<svg version="1.1" xmlns="http://www.w3.org/2000/svg" viewBox="0 0 380.6990381946042 306.93775183742866" width="761.3980763892084" height="613.8755036748573">
  <!-- svg-source:excalidraw -->
  
  <defs>
    <style>
      @font-face {
        font-family: "Virgil";
        src: url("https://excalidraw.com/Virgil.woff2");
      }
      @font-face {
        font-family: "Cascadia";
        src: url("https://excalidraw.com/Cascadia.woff2");
      }
    </style>
  </defs>
  <rect x="0" y="0" width="380.6990381946042" height="306.93775183742866" fill="#ffffff"></rect><g stroke-linecap="round"><g transform="translate(203.50548231240361 15.371532539166509) rotate(0 -20.477701539713905 35.17864680733531)"><path d="M0.34 0.47 C-6.24 12.14, -33.44 57.77, -40.23 69.45 M-0.95 -0.33 C-7.63 11.55, -34.55 59.22, -41.29 70.69" stroke="#000000" stroke-width="1" fill="none"></path></g></g><g stroke-linecap="round"><g transform="translate(158.50548231240361 93.37153253916651) rotate(0 -21.091924051213994 42.143460746370266)"><path d="M0.08 0.2 C-6.8 14.06, -34.24 69.86, -41.21 83.67 M-1.34 -0.74 C-8.4 13.26, -35.96 70.94, -42.27 85.03" stroke="#000000" stroke-width="1" fill="none"></path></g></g><g stroke-linecap="round"><g transform="translate(160.50548231240361 87.37153253916651) rotate(0 18.923739597573842 47.407935248035926)"><path d="M-0.29 0.75 C6.08 16.28, 31.93 77.62, 38.13 93.12 M1.76 0.09 C7.99 15.85, 31 79.43, 37.26 94.72" stroke="#000000" stroke-width="1" fill="none"></path></g></g><g stroke-linecap="round"><g transform="translate(107.50548231240361 184.3715325391665) rotate(0 -48.22904565867037 46.09701032277198)"><path d="M-0.76 0.27 C-16.84 15.45, -80.62 75.97, -96.37 91.19 M1.05 -0.63 C-15.23 14.75, -81.4 77.8, -97.51 92.82" stroke="#000000" stroke-width="1" fill="none"></path></g></g><g stroke-linecap="round"><g transform="translate(110.50548231240361 180.3715325391665) rotate(0 -9.927803856302035 56.96953488754107)"><path d="M0.52 1.2 C-2.76 19.86, -16.03 94.82, -19.63 113.16 M-0.66 0.78 C-4.08 19.65, -17.37 93.08, -20.38 111.64" stroke="#000000" stroke-width="1" fill="none"></path></g></g><g stroke-linecap="round"><g transform="translate(116.50548231240361 187.3715325391665) rotate(0 35.13259104165246 54.23370943756774)"><path d="M1.15 -0.03 C12.95 18.08, 58.67 90.24, 69.97 108.36 M0.3 -1.1 C12.09 17.2, 58.23 91.08, 69.52 109.57" stroke="#000000" stroke-width="1" fill="none"></path></g></g><g stroke-linecap="round"><g transform="translate(197.50548231240361 180.3715325391665) rotate(0 -10.920799359101807 25.72413679691033)"><path d="M-0.46 1.11 C-4.34 9.49, -18.57 41.44, -22.25 49.86 M1.49 0.65 C-2.65 9.17, -19.15 42.64, -23.33 50.8" stroke="#000000" stroke-width="1" fill="none"></path></g></g><g stroke-linecap="round"><g transform="translate(204.50548231240361 179.3715325391665) rotate(0 15.556963162301145 25.48305368067699)"><path d="M-1 -0.43 C3.9 7.99, 24.66 42.63, 29.95 51.09 M0.68 -1.7 C5.88 6.88, 27.25 43.84, 32.11 52.67" stroke="#000000" stroke-width="1" fill="none"></path></g></g><g stroke-linecap="round"><g transform="translate(204.50548231240361 11.371532539166509) rotate(0 47.989135226234794 53.66433166202158)"><path d="M-0.97 -0.21 C15.1 17.53, 80.88 89.2, 96.94 107.11 M0.73 -1.37 C16.67 16.53, 80.89 90.36, 96.49 108.7" stroke="#000000" stroke-width="1" fill="none"></path></g></g><g stroke-linecap="round"><g transform="translate(287.5054823124036 199.3715325391665) rotate(0 0.5401189631503485 0.08009870318480239)"><path d="M0.59 -0.83 C0.3 -1.21, -0.44 -1.34, -0.65 -1.1 M-0.55 1.35 C-0.55 1.59, 1.92 0.33, 1.73 -0.14" stroke="#000000" stroke-width="1" fill="none"></path></g></g><g stroke-linecap="round"><g transform="translate(297.5054823124036 125.37153253916651) rotate(0 -14.204710435886 30.92254934998229)"><path d="M-1.17 0.56 C-5.82 10.68, -23.56 50.42, -27.92 60.68 M0.42 -0.2 C-4.38 10.1, -24.13 51.96, -28.83 62.04" stroke="#000000" stroke-width="1" fill="none"></path></g></g><g stroke-linecap="round"><g transform="translate(302.5054823124036 126.37153253916651) rotate(0 3.000393687812675 31.466773363575328)"><path d="M0.62 -0.88 C1.55 9.92, 5.6 53.26, 6.51 63.81 M-0.51 1.28 C0.13 11.83, 3.8 51.76, 5.31 62.11" stroke="#000000" stroke-width="1" fill="none"></path></g></g><g stroke-linecap="round"><g transform="translate(301.5054823124036 118.37153253916651) rotate(0 33.83460905758659 35.733228687904756)"><path d="M-0.04 0.25 C11.53 11.92, 57.86 58.75, 69.19 70.74 M-1.52 -0.67 C10.01 11.13, 57.42 60.29, 68.87 72.13" stroke="#000000" stroke-width="1" fill="none"></path></g></g><g stroke-linecap="round"><g transform="translate(308.5054823124036 185.3715325391665) rotate(0 -13.495578163582877 38.416465693134796)"><path d="M-1.03 0.83 C-5.45 13.68, -23.22 64.25, -27.63 76.61 M0.64 0.22 C-3.29 12.76, -20.39 62.22, -25.25 74.81" stroke="#000000" stroke-width="1" fill="none"></path></g></g><g stroke-linecap="round"><g transform="translate(310.5054823124036 189.3715325391665) rotate(0 18.631778607144952 37.723257531244315)"><path d="M-0.83 0.08 C5.34 12.56, 31.45 62.54, 38.09 74.89 M0.94 -0.92 C6.86 11.76, 30.88 63.7, 37.19 76.37" stroke="#000000" stroke-width="1" fill="none"></path></g></g><g transform="translate(206.50548231240361 72.37153253916651) rotate(0 8.5 13)"><text x="0" y="18" font-family="Virgil, Segoe UI Emoji" font-size="20px" fill="#000000" text-anchor="start" style="white-space: pre;" direction="ltr">...</text></g><g stroke-linecap="round" transform="translate(100.50548231240361 73.37153253916651) rotate(22.667711099351262 34.5 62)"><path d="M26.2 2.2 C31.26 -0.69, 38.92 0.04, 44.5 3.11 C50.09 6.19, 55.78 13.26, 59.71 20.63 C63.64 28, 66.68 37.4, 68.07 47.36 C69.45 57.32, 69.75 70.46, 68.04 80.39 C66.33 90.31, 61.96 99.79, 57.82 106.91 C53.68 114.04, 48.87 120.66, 43.19 123.15 C37.52 125.63, 29.34 125.03, 23.76 121.84 C18.18 118.64, 13.42 111.56, 9.7 103.97 C5.98 96.37, 2.65 86.17, 1.43 76.26 C0.21 66.36, 0.72 54.37, 2.37 44.54 C4.02 34.72, 6.97 24.52, 11.31 17.3 C15.64 10.09, 25.16 3.89, 28.39 1.26 C31.63 -1.37, 30.49 0.61, 30.73 1.51 M48.02 3.41 C53.37 5.63, 58.78 13.66, 62.19 21.62 C65.6 29.58, 67.86 40.62, 68.47 51.18 C69.08 61.74, 67.71 75.36, 65.83 84.99 C63.96 94.63, 61.57 102.78, 57.24 108.99 C52.9 115.2, 45.52 120.54, 39.85 122.26 C34.17 123.98, 28.77 123.05, 23.2 119.3 C17.64 115.56, 9.99 107.55, 6.43 99.79 C2.87 92.03, 2.36 82.71, 1.84 72.74 C1.32 62.78, 1.34 49.87, 3.3 39.99 C5.26 30.1, 9.32 19.99, 13.6 13.44 C17.88 6.89, 23.45 2.18, 28.96 0.68 C34.48 -0.83, 43.52 3.9, 46.7 4.41 C49.87 4.93, 48.33 2.7, 48.03 3.77" stroke="#d9480f" stroke-width="4" fill="none"></path></g><g stroke-linecap="round" transform="translate(257.22468647584344 104.22371977608228) rotate(22.667711099351262 27.280795836560287 48.14781276308412)"><path d="M37.08 2.7 C41.97 4.89, 46.22 12.79, 49.06 20.68 C51.9 28.58, 54.22 40.56, 54.15 50.06 C54.07 59.55, 51.91 70.21, 48.62 77.65 C45.33 85.09, 39.32 91.88, 34.4 94.71 C29.48 97.53, 24.18 97.73, 19.13 94.57 C14.08 91.42, 7.17 83.62, 4.08 75.79 C0.99 67.95, 0.27 56.89, 0.58 47.54 C0.9 38.19, 2.78 27.26, 5.99 19.69 C9.21 12.13, 14.04 4.31, 19.87 2.16 C25.7 0.02, 37.07 5.44, 40.96 6.83 C44.85 8.22, 43.45 9.84, 43.2 10.48 M17.9 4.01 C22.65 0.29, 28.58 -1.32, 33.91 0.89 C39.25 3.11, 46.37 9.85, 49.92 17.32 C53.47 24.78, 55.1 36.16, 55.21 45.68 C55.32 55.21, 53.7 66.72, 50.59 74.46 C47.48 82.2, 41.72 88.59, 36.56 92.11 C31.39 95.64, 24.59 97.97, 19.59 95.62 C14.59 93.27, 9.8 85.47, 6.56 78.02 C3.31 70.56, 0.36 60.43, 0.14 50.91 C-0.08 41.4, 2.43 29.08, 5.22 20.92 C8.01 12.76, 14.61 4.8, 16.9 1.94 C19.18 -0.91, 18.58 2.94, 18.9 3.8" stroke="#d9480f" stroke-width="4" fill="none"></path></g></svg>