<svg version="1.1" xmlns="http://www.w3.org/2000/svg" viewBox="0 0 590.7092116897738 182" width="1181.4184233795477" height="364">
  <!-- svg-source:excalidraw -->
  
  <defs>
    <style>
      @font-face {
        font-family: "Virgil";
        src: url("https://excalidraw.com/Virgil.woff2");
      }
      @font-face {
        font-family: "Cascadia";
        src: url("https://excalidraw.com/Cascadia.woff2");
      }
    </style>
  </defs>
  <rect x="0" y="0" width="590.7092116897738" height="182" fill="#ffffff"></rect><g stroke-linecap="round" transform="translate(150.95894826673901 10) rotate(0 69 60.5)"><path d="M0.47 1.09 C27.7 -1.33, 56.89 -1.17, 137.66 1.48 M-0.41 0.27 C54.16 1.25, 106.87 1.25, 138.37 0.02 M137.08 -1.7 C136.58 36.81, 137.76 75.06, 138.56 122.03 M138.44 0.04 C139.16 33.14, 138.93 64.58, 137.72 121.96 M139.98 120.16 C90.44 121.96, 40.19 119.4, 0.56 120.23 M138.41 120.15 C101.16 120.66, 63.93 120.52, 0.83 120.59 M-1.46 121.91 C2.34 80.06, -0.85 41, -1.06 1.36 M-0.77 121.86 C0.05 79.44, -0.79 38.22, 0.62 -0.52" stroke="#000000" stroke-width="1" fill="none"></path></g><g stroke-linecap="round"><g transform="translate(311.958948266739 71) rotate(0 134.09796092115806 -0.46801546325440313)"><path d="M-0.55 -1.02 C43.88 -1.42, 221.81 -1.97, 266.43 -1.99 M1.36 1.06 C46.19 0.83, 224.58 0.23, 268.75 -0.45" stroke="#000000" stroke-width="1" fill="none"></path></g><g transform="translate(311.958948266739 71) rotate(0 134.09796092115806 -0.46801546325440313)"><path d="M238.94 8.81 C248.61 7.14, 258.05 4.76, 269.78 -1.06 M240.69 10.18 C251.97 5.78, 261.59 1.55, 269.71 0.1" stroke="#000000" stroke-width="1" fill="none"></path></g><g transform="translate(311.958948266739 71) rotate(0 134.09796092115806 -0.46801546325440313)"><path d="M238.77 -11.71 C248.55 -7.54, 258.04 -4.09, 269.78 -1.06 M240.52 -10.34 C251.89 -6.84, 261.58 -3.16, 269.71 0.1" stroke="#000000" stroke-width="1" fill="none"></path></g></g><g transform="translate(172.95894826673901 52) rotate(0 50.5 13)"><text x="0" y="18" font-family="Virgil, Segoe UI Emoji" font-size="20px" fill="#000000" text-anchor="start" style="white-space: pre;" direction="ltr">Generator</text></g><g transform="translate(314.958948266739 23) rotate(0 129 13.5)"><text x="0" y="19" font-family="Virgil, Segoe UI Emoji" font-size="20px" fill="#000000" text-anchor="start" style="white-space: pre;" direction="ltr">&lt;input₀, input₁, ..., inputₙ&gt; </text></g><g stroke-linecap="round"><g transform="translate(9.958948266739014 67) rotate(0 60.464522636937915 0.42454096805769836)"><path d="M0.98 -0.7 C21.07 -0.46, 101.07 1.24, 120.89 1.34 M0.04 1.55 C20.01 1.43, 100.58 -0.46, 120.41 -0.61" stroke="#000000" stroke-width="1" fill="none"></path></g><g transform="translate(9.958948266739014 67) rotate(0 60.464522636937915 0.42454096805769836)"><path d="M91.22 11.59 C102.29 6.08, 109.21 1.28, 122.3 -0.47 M91.4 10.37 C100.56 6.66, 108.2 4.29, 119.91 -1.04" stroke="#000000" stroke-width="1" fill="none"></path></g><g transform="translate(9.958948266739014 67) rotate(0 60.464522636937915 0.42454096805769836)"><path d="M90.88 -8.92 C102.05 -7.6, 109.08 -5.57, 122.3 -0.47 M91.06 -10.15 C100.42 -8.37, 108.16 -5.25, 119.91 -1.04" stroke="#000000" stroke-width="1" fill="none"></path></g></g><g transform="translate(36.958948266739014 25) rotate(0 23 13)"><text x="0" y="18" font-family="Virgil, Segoe UI Emoji" font-size="20px" fill="#000000" text-anchor="start" style="white-space: pre;" direction="ltr">Seed</text></g><g transform="translate(32.958948266739014 121) rotate(0 29 25.5)"><text x="0" y="18.5" font-family="Virgil, Segoe UI Emoji" font-size="20px" fill="#000000" text-anchor="start" style="white-space: pre;" direction="ltr">Max</text><text x="0" y="44" font-family="Virgil, Segoe UI Emoji" font-size="20px" fill="#000000" text-anchor="start" style="white-space: pre;" direction="ltr">length</text></g><g stroke-linecap="round"><g transform="translate(14.958948266739014 113) rotate(0 56.41049634571186 -0.030692980438487893)"><path d="M0.18 0.82 C18.84 0.79, 93.15 -0.61, 111.88 -0.88 M-1.19 0.2 C17.83 0.36, 95.22 0.21, 114.01 0.2" stroke="#000000" stroke-width="1" fill="none"></path></g><g transform="translate(14.958948266739014 113) rotate(0 56.41049634571186 -0.030692980438487893)"><path d="M87.19 8.63 C92.7 6.69, 101.12 5.05, 114.47 -1.28 M86.66 10.63 C92.83 7.84, 99.2 6.47, 113.19 -0.53" stroke="#000000" stroke-width="1" fill="none"></path></g><g transform="translate(14.958948266739014 113) rotate(0 56.41049634571186 -0.030692980438487893)"><path d="M87.16 -11.89 C92.56 -7.81, 100.99 -3.42, 114.47 -1.28 M86.64 -9.89 C92.86 -7.84, 99.24 -4.37, 113.19 -0.53" stroke="#000000" stroke-width="1" fill="none"></path></g></g></svg>