<svg version="1.1" xmlns="http://www.w3.org/2000/svg" viewBox="0 0 610 593" width="1220" height="1186">
  <!-- svg-source:excalidraw -->
  
  <defs>
    <style class="style-fonts">
      @font-face {
        font-family: "Virgil";
        src: url("https://excalidraw.com/Virgil.woff2");
      }
      @font-face {
        font-family: "Cascadia";
        src: url("https://excalidraw.com/Cascadia.woff2");
      }
    </style>
  </defs>
  <rect x="0" y="0" width="610" height="593" fill="#ffffff"></rect><g stroke-linecap="round"><g transform="translate(55 61) rotate(0 -1.4196300614625557 245.30279794543983)"><path d="M0.01 0.23 C-0.35 81.97, -2.48 408.21, -2.85 489.84 M-1.44 -0.69 C-1.36 81.28, -0.3 409.28, -0.58 491.29" stroke="#000000" stroke-width="1" fill="none"></path></g><g transform="translate(55 61) rotate(0 -1.4196300614625557 245.30279794543983)"><path d="M-10.47 461.69 C-8.76 469.55, -5.95 475.36, -1.86 491.62 M-9.98 463.59 C-7.93 471.9, -5.73 478.54, -0.76 491.99" stroke="#000000" stroke-width="1" fill="none"></path></g><g transform="translate(55 61) rotate(0 -1.4196300614625557 245.30279794543983)"><path d="M10.06 461.68 C6.79 469.55, 4.63 475.35, -1.86 491.62 M10.54 463.59 C6.97 471.75, 3.55 478.4, -0.76 491.99" stroke="#000000" stroke-width="1" fill="none"></path></g></g><mask></mask><g stroke-linecap="round"><g transform="translate(216.4196300614625 59.697202054560165) rotate(0 -0.7049329049419271 245.3455464198999)"><path d="M0.12 0.7 C-0.24 82.26, -0.62 407.87, -1.07 489.43 M-1.27 0.03 C-1.8 81.74, -1.14 408.76, -1.53 490.66" stroke="#000000" stroke-width="1" fill="none"></path></g><g transform="translate(216.4196300614625 59.697202054560165) rotate(0 -0.7049329049419271 245.3455464198999)"><path d="M-10.59 464.01 C-8.71 472.51, -3.65 484.96, -2.6 488.95 M-10.81 463.16 C-8.79 472.82, -3.28 483.34, -0.77 490.33" stroke="#000000" stroke-width="1" fill="none"></path></g><g transform="translate(216.4196300614625 59.697202054560165) rotate(0 -0.7049329049419271 245.3455464198999)"><path d="M9.93 464.03 C3.8 472.55, 0.86 484.99, -2.6 488.95 M9.71 463.18 C4.41 472.88, 2.6 483.39, -0.77 490.33" stroke="#000000" stroke-width="1" fill="none"></path></g></g><mask></mask><g stroke-linecap="round"><g transform="translate(390.4196300614625 60.697202054560165) rotate(0 -1.055791790410865 245.47458785946483)"><path d="M0.47 -0.77 C0.07 80.81, -2.22 408.45, -2.58 490.12 M-0.74 1.44 C-0.73 83.18, 0.08 410.27, -0.18 491.72" stroke="#000000" stroke-width="1" fill="none"></path></g><g transform="translate(390.4196300614625 60.697202054560165) rotate(0 -1.055791790410865 245.47458785946483)"><path d="M-11.72 462.56 C-7.16 472.07, -5.7 481.16, -2.16 490.45 M-10.94 463.24 C-8.13 470.31, -5.45 478.38, 0.59 492.64" stroke="#000000" stroke-width="1" fill="none"></path></g><g transform="translate(390.4196300614625 60.697202054560165) rotate(0 -1.055791790410865 245.47458785946483)"><path d="M8.8 462.56 C7.51 472.15, 3.11 481.24, -2.16 490.45 M9.58 463.24 C6.98 470.11, 4.25 478.18, 0.59 492.64" stroke="#000000" stroke-width="1" fill="none"></path></g></g><mask></mask><g stroke-linecap="round"><g transform="translate(562.4196300614626 53.697202054560165) rotate(0 -1.0421118079499365 245.03665630310775)"><path d="M0.42 -0.01 C0.27 81.63, -1.41 407.91, -1.71 489.73 M-0.81 -1.05 C-1.03 80.76, -2.34 409.45, -2.51 491.13" stroke="#000000" stroke-width="1" fill="none"></path></g><g transform="translate(562.4196300614626 53.697202054560165) rotate(0 -1.0421118079499365 245.03665630310775)"><path d="M-12.69 463.39 C-10.76 470.5, -6.43 478.06, -1.64 489.7 M-11.98 462.42 C-10.1 473.2, -5.34 483.26, -2.36 491.25" stroke="#000000" stroke-width="1" fill="none"></path></g><g transform="translate(562.4196300614626 53.697202054560165) rotate(0 -1.0421118079499365 245.03665630310775)"><path d="M7.83 463.45 C4.95 470.62, 4.47 478.16, -1.64 489.7 M8.54 462.48 C3.37 473.14, 1.07 483.18, -2.36 491.25" stroke="#000000" stroke-width="1" fill="none"></path></g></g><mask></mask><g transform="translate(10 13) rotate(0 41.5 13)"><text x="0" y="18" font-family="Virgil, Segoe UI Emoji" font-size="20px" fill="#000000" text-anchor="start" style="white-space: pre;" direction="ltr">thread 1</text></g><g transform="translate(166 10) rotate(0 46 13)"><text x="0" y="18" font-family="Virgil, Segoe UI Emoji" font-size="20px" fill="#000000" text-anchor="start" style="white-space: pre;" direction="ltr">thread 2</text></g><g transform="translate(346 19) rotate(0 45.5 13)"><text x="0" y="18" font-family="Virgil, Segoe UI Emoji" font-size="20px" fill="#000000" text-anchor="start" style="white-space: pre;" direction="ltr">thread 3</text></g><g transform="translate(518 15) rotate(0 39 13)"><text x="0" y="18" font-family="Virgil, Segoe UI Emoji" font-size="20px" fill="#000000" text-anchor="start" style="white-space: pre;" direction="ltr">Counter</text></g><g transform="translate(559 557) rotate(0 20.5 13)"><text x="0" y="18" font-family="Virgil, Segoe UI Emoji" font-size="20px" fill="#000000" text-anchor="start" style="white-space: pre;" direction="ltr">time</text></g><g stroke-linecap="round"><g transform="translate(56 82) rotate(0 252.00180827021597 13.631901710070679)"><path d="M-0.11 -0.62 C83.76 3.69, 419.17 21.87, 503.29 26.57 M-1.62 1.67 C82.62 6.09, 421.33 23.9, 505.63 27.88" stroke="#364fc7" stroke-width="1" fill="none"></path></g><g transform="translate(56 82) rotate(0 252.00180827021597 13.631901710070679)"><path d="M475.93 35.53 C485.04 35.05, 495.62 30.13, 505.97 29.87 M475.96 36.1 C487.66 32.88, 496.98 30.07, 505.67 28.55" stroke="#364fc7" stroke-width="1" fill="none"></path></g><g transform="translate(56 82) rotate(0 252.00180827021597 13.631901710070679)"><path d="M476.96 15.03 C485.88 20.88, 496.14 22.29, 505.97 29.87 M476.99 15.61 C488.4 19.39, 497.37 23.58, 505.67 28.55" stroke="#364fc7" stroke-width="1" fill="none"></path></g></g><mask></mask><g stroke-linecap="round"><g transform="translate(214 144) rotate(0 173.63683499582112 8.860382223380725)"><path d="M-0.46 -0.83 C57.37 2.18, 289.74 14.37, 347.74 17.35 M1.5 1.35 C59.08 4.56, 289.15 15.8, 346.65 18.55" stroke="#2b8a3e" stroke-width="1" fill="none"></path></g><g transform="translate(214 144) rotate(0 173.63683499582112 8.860382223380725)"><path d="M316.62 26.99 C327.33 23.51, 337.18 22.74, 346.52 17.58 M318.4 26.56 C327.92 23.98, 337.96 21.04, 346.22 18.2" stroke="#2b8a3e" stroke-width="1" fill="none"></path></g><g transform="translate(214 144) rotate(0 173.63683499582112 8.860382223380725)"><path d="M317.61 6.49 C327.85 10.42, 337.34 17.06, 346.52 17.58 M319.39 6.06 C328.58 10.89, 338.26 15.36, 346.22 18.2" stroke="#2b8a3e" stroke-width="1" fill="none"></path></g></g><mask></mask><g stroke-linecap="round"><g transform="translate(558 198) rotate(0 -251.4283528030943 23.425536751104516)"><path d="M0.15 1 C-83.66 8.64, -418.44 38.71, -502.38 46.37 M-1.23 0.48 C-85.19 7.7, -419.13 37, -503.01 44.44" stroke="#364fc7" stroke-width="1" fill="none"></path></g><g transform="translate(558 198) rotate(0 -251.4283528030943 23.425536751104516)"><path d="M-474.16 32.77 C-484.43 35.31, -492.67 39.06, -503.41 45.47 M-475.09 31.05 C-483.48 34.75, -489.8 38.26, -502.27 44.46" stroke="#364fc7" stroke-width="1" fill="none"></path></g><g transform="translate(558 198) rotate(0 -251.4283528030943 23.425536751104516)"><path d="M-472.36 53.22 C-483.33 48.78, -492.18 45.56, -503.41 45.47 M-473.29 51.49 C-481.95 49.94, -488.73 48.19, -502.27 44.46" stroke="#364fc7" stroke-width="1" fill="none"></path></g></g><mask></mask><g stroke-linecap="round"><g transform="translate(558 357) rotate(0 -169.13591060578824 5.908918918706462)"><path d="M-0.54 -0.94 C-57.11 0.74, -282.38 9.06, -338.8 11.15 M1.38 1.18 C-55.39 3.6, -282.78 11.37, -339.65 12.76" stroke="#2b8a3e" stroke-width="1" fill="none"></path></g><g transform="translate(558 357) rotate(0 -169.13591060578824 5.908918918706462)"><path d="M-313.35 1.98 C-321.25 5.35, -330.34 9.46, -340.59 11.99 M-312.16 2.52 C-319.19 5.59, -327.52 7.86, -339.82 12.83" stroke="#2b8a3e" stroke-width="1" fill="none"></path></g><g transform="translate(558 357) rotate(0 -169.13591060578824 5.908918918706462)"><path d="M-312.73 22.49 C-321.03 18.63, -330.34 15.52, -340.59 11.99 M-311.54 23.03 C-318.59 20.22, -327.11 16.61, -339.82 12.83" stroke="#2b8a3e" stroke-width="1" fill="none"></path></g></g><mask></mask><g stroke-linecap="round"><g transform="translate(56 319) rotate(0 252.00024545677002 1.5147873681597446)"><path d="M-1.03 0.69 C83.07 1.23, 420.83 1.6, 505.04 2 M0.62 0.01 C84.62 0.76, 420.81 2.27, 504.63 3.02" stroke="#364fc7" stroke-width="1" fill="none"></path></g><g transform="translate(56 319) rotate(0 252.00024545677002 1.5147873681597446)"><path d="M477.53 14.82 C484.28 10.33, 495.62 5.47, 506.37 4.42 M475.61 13.6 C483.15 10.69, 491.8 7.21, 503.93 2.31" stroke="#364fc7" stroke-width="1" fill="none"></path></g><g transform="translate(56 319) rotate(0 252.00024545677002 1.5147873681597446)"><path d="M477.66 -5.7 C484.17 -3.32, 495.46 -1.29, 506.37 4.42 M475.75 -6.92 C483.4 -4.5, 492.03 -2.64, 503.93 2.31" stroke="#364fc7" stroke-width="1" fill="none"></path></g></g><mask></mask><g stroke-linecap="round"><g transform="translate(556 466) rotate(0 -248.90341700378804 15.236744635179662)"><path d="M-0.22 -1.03 C-83.22 4.05, -414.13 26.33, -497.11 31.5 M-1.79 1.04 C-84.95 6.28, -414.74 24.69, -497.59 29.65" stroke="#364fc7" stroke-width="1" fill="none"></path></g><g transform="translate(556 466) rotate(0 -248.90341700378804 15.236744635179662)"><path d="M-471.75 19.27 C-479.4 22.02, -492.24 24.62, -498.64 28.32 M-470.56 18.43 C-478.16 22.52, -487.63 26.52, -498.32 29.67" stroke="#364fc7" stroke-width="1" fill="none"></path></g><g transform="translate(556 466) rotate(0 -248.90341700378804 15.236744635179662)"><path d="M-470.57 39.75 C-478.84 34.84, -492.12 29.78, -498.64 28.32 M-469.38 38.91 C-477.24 36.5, -487.08 33.97, -498.32 29.67" stroke="#364fc7" stroke-width="1" fill="none"></path></g></g><mask></mask><g stroke-linecap="round"><g transform="translate(389 436) rotate(0 84.247910560295 3.2279529036954386)"><path d="M-1.06 0.23 C27.28 1.59, 140.88 6.24, 169.55 7.15 M0.59 -0.7 C28.77 0.45, 140.02 4.37, 168.37 5.63" stroke="#e67700" stroke-width="1" fill="none"></path></g><g transform="translate(389 436) rotate(0 84.247910560295 3.2279529036954386)"><path d="M140.18 14.04 C149.21 14.25, 154.23 8.42, 167.45 3.86 M140.02 13.89 C147.03 12.86, 155.29 8.97, 167.5 5.33" stroke="#e67700" stroke-width="1" fill="none"></path></g><g transform="translate(389 436) rotate(0 84.247910560295 3.2279529036954386)"><path d="M140.99 -6.47 C149.63 -0.94, 154.45 -1.45, 167.45 3.86 M140.82 -6.61 C147.67 -1.73, 155.69 0.3, 167.5 5.33" stroke="#e67700" stroke-width="1" fill="none"></path></g></g><mask></mask><g stroke-linecap="round"><g transform="translate(554 482) rotate(0 -81.06772720847277 17.749919810034328)"><path d="M0.9 -0.8 C-26.24 5.06, -135.03 28.95, -162.06 35.19 M-0.09 1.39 C-27.45 7.38, -136.12 30.77, -163.04 36.3" stroke="#e67700" stroke-width="1" fill="none"></path></g><g transform="translate(554 482) rotate(0 -81.06772720847277 17.749919810034328)"><path d="M-138.91 20.34 C-148.18 27.67, -155.05 33.9, -163.75 38.02 M-138.09 20.29 C-147.42 25.98, -156.43 31.4, -163.52 35.59" stroke="#e67700" stroke-width="1" fill="none"></path></g><g transform="translate(554 482) rotate(0 -81.06772720847277 17.749919810034328)"><path d="M-134.67 40.42 C-145.49 40.48, -153.9 39.41, -163.75 38.02 M-133.85 40.37 C-144.83 38.71, -155.4 36.73, -163.52 35.59" stroke="#e67700" stroke-width="1" fill="none"></path></g></g><mask></mask><g transform="translate(97 57.5) rotate(0 25 13)"><text x="0" y="18" font-family="Virgil, Segoe UI Emoji" font-size="20px" fill="#000000" text-anchor="start" style="white-space: pre;" direction="ltr">incr 1</text></g><g transform="translate(258 120) rotate(0 29.5 13)"><text x="0" y="18" font-family="Virgil, Segoe UI Emoji" font-size="20px" fill="#000000" text-anchor="start" style="white-space: pre;" direction="ltr">incr 2</text></g><g transform="translate(105 293) rotate(0 17 13)"><text x="0" y="18" font-family="Virgil, Segoe UI Emoji" font-size="20px" fill="#000000" text-anchor="start" style="white-space: pre;" direction="ltr">get</text></g><g transform="translate(431 410) rotate(0 17 13)"><text x="0" y="18" font-family="Virgil, Segoe UI Emoji" font-size="20px" fill="#000000" text-anchor="start" style="white-space: pre;" direction="ltr">get</text></g></svg>