<svg version="1.1" xmlns="http://www.w3.org/2000/svg" viewBox="0 0 741.5 777.6083578169346" width="741.5" height="777.6083578169346">
  <!-- svg-source:excalidraw -->
  
  <defs>
    <style>
      @font-face {
        font-family: "Virgil";
        src: url("https://excalidraw.com/Virgil.woff2");
      }
      @font-face {
        font-family: "Cascadia";
        src: url("https://excalidraw.com/Cascadia.woff2");
      }
    </style>
  </defs>
  <rect x="0" y="0" width="741.5" height="777.6083578169346" fill="#ffffff"></rect><g stroke-linecap="round"><g transform="translate(484.5 52) rotate(0 3.5710829203250114 349.1907496254798)"><path d="M1.1 0.74 C2.24 116.86, 6.01 580.83, 6.92 696.84 M0.22 0.09 C1.18 116.38, 5.04 581.97, 5.93 698.3" stroke="#000000" stroke-width="1" fill="none"></path></g><g transform="translate(484.5 52) rotate(0 3.5710829203250114 349.1907496254798)"><path d="M-3.32 670.06 C-1.54 678.05, 1.68 687.8, 5.25 697.94 M-4.79 670.57 C-0.5 681.56, 4.06 692.36, 5.68 698.96" stroke="#000000" stroke-width="1" fill="none"></path></g><g transform="translate(484.5 52) rotate(0 3.5710829203250114 349.1907496254798)"><path d="M17.2 669.89 C12.63 678.13, 9.5 687.92, 5.25 697.94 M15.73 670.41 C11.96 681.34, 8.45 692.2, 5.68 698.96" stroke="#000000" stroke-width="1" fill="none"></path></g></g><g transform="translate(526.5 717) rotate(0 20 13)"><text x="0" y="18" font-family="Virgil, Segoe UI Emoji" font-size="20px" fill="#000000" text-anchor="start" style="white-space: pre;" direction="ltr">time</text></g><g transform="translate(80.5 13) rotate(0 26 13)"><text x="0" y="18" font-family="Virgil, Segoe UI Emoji" font-size="20px" fill="#000000" text-anchor="start" style="white-space: pre;" direction="ltr">client</text></g><g transform="translate(456.5 10) rotate(0 30.5 13)"><text x="0" y="18" font-family="Virgil, Segoe UI Emoji" font-size="20px" fill="#000000" text-anchor="start" style="white-space: pre;" direction="ltr">server</text></g><g stroke-linecap="round"><g transform="translate(105.5 84) rotate(0 187.37230780103255 8.408260789611383)"><path d="M-0.51 0.16 C61.52 3, 310.53 13.84, 372.91 16.51 M1.43 -0.81 C63.77 2.23, 313.31 14.68, 375.25 17.62" stroke="#000000" stroke-width="1" fill="none"></path></g><g transform="translate(105.5 84) rotate(0 187.37230780103255 8.408260789611383)"><path d="M346.85 25.31 C355.75 23.61, 365.61 18.67, 376.92 16.6 M346.71 26.76 C357.28 22.54, 366.27 21.05, 374.85 16.84" stroke="#000000" stroke-width="1" fill="none"></path></g><g transform="translate(105.5 84) rotate(0 187.37230780103255 8.408260789611383)"><path d="M347.86 4.81 C356.29 10.58, 365.79 13.12, 376.92 16.6 M347.71 6.26 C357.94 9.2, 366.57 14.87, 374.85 16.84" stroke="#000000" stroke-width="1" fill="none"></path></g></g><g transform="translate(171.5 61) rotate(0 45.5 13)"><text x="0" y="18" font-family="Virgil, Segoe UI Emoji" font-size="20px" fill="#000000" text-anchor="start" style="white-space: pre;" direction="ltr">request 1</text></g><g stroke-linecap="round"><g transform="translate(479.750234991312 120.79162612951362) rotate(0 -184.49510224870403 33.74242009095731)"><path d="M0.25 -0.11 C-61.28 11.53, -307.14 57.39, -368.62 68.69 M-1.08 -1.21 C-62.76 10.15, -307.91 55.13, -369.24 66.79" stroke="#000000" stroke-width="1" fill="none"></path></g><g transform="translate(479.750234991312 120.79162612951362) rotate(0 -184.49510224870403 33.74242009095731)"><path d="M-343.58 52.58 C-351.84 57.91, -362.45 61.06, -370.85 65.2 M-343.95 51.84 C-349.08 53.98, -355.04 58.17, -368.49 66.68" stroke="#000000" stroke-width="1" fill="none"></path></g><g transform="translate(479.750234991312 120.79162612951362) rotate(0 -184.49510224870403 33.74242009095731)"><path d="M-339.83 72.76 C-349.2 71.07, -361.12 67.2, -370.85 65.2 M-340.19 72.01 C-346.31 69.92, -353.06 69.84, -368.49 66.68" stroke="#000000" stroke-width="1" fill="none"></path></g></g><g transform="translate(123.5 122) rotate(0 60.5 25.5)"><text x="0" y="18.5" font-family="Virgil, Segoe UI Emoji" font-size="20px" fill="#000000" text-anchor="start" style="white-space: pre;" direction="ltr">400</text><text x="0" y="44" font-family="Virgil, Segoe UI Emoji" font-size="20px" fill="#000000" text-anchor="start" style="white-space: pre;" direction="ltr">bad request</text></g><g stroke-linecap="round"><g transform="translate(111.5 310) rotate(0 185.11146940290922 9.491276170942001)"><path d="M-1.16 -0.1 C60.82 3.16, 309.45 16.84, 371.38 20.18 M0.43 -1.19 C62.41 1.69, 309.5 15.43, 371.06 18.62" stroke="#000000" stroke-width="1" fill="none"></path></g><g transform="translate(111.5 310) rotate(0 185.11146940290922 9.491276170942001)"><path d="M342.2 29.34 C351.52 25.75, 358.44 24.96, 371.18 19.77 M342.98 27.24 C351.94 23.62, 360.08 22.5, 370.94 18.57" stroke="#000000" stroke-width="1" fill="none"></path></g><g transform="translate(111.5 310) rotate(0 185.11146940290922 9.491276170942001)"><path d="M343.3 8.85 C352.45 10.52, 359.09 15.01, 371.18 19.77 M344.09 6.74 C352.52 9.43, 360.32 14.6, 370.94 18.57" stroke="#000000" stroke-width="1" fill="none"></path></g></g><g stroke-linecap="round"><g transform="translate(113.5 169) rotate(0 -7.435751170325091 16.733868128061303)"><path d="M0.92 -1.19 C-1.68 4.61, -12.08 28.74, -14.9 34.66 M-0.05 0.8 C-2.86 6.27, -13.53 27.05, -15.79 32.88" stroke="#c92a2a" stroke-width="1" fill="none"></path></g></g><g stroke-linecap="round"><g transform="translate(96.5 176) rotate(0 15.22498244643208 15.605001531126902)"><path d="M-1.08 -0.63 C4.34 4.46, 25.99 25.3, 31.53 30.89 M0.55 1.65 C5.86 6.83, 25.18 26.94, 30.34 31.84" stroke="#c92a2a" stroke-width="1" fill="none"></path></g></g><g transform="translate(159.5 281) rotate(0 50 13)"><text x="0" y="18" font-family="Virgil, Segoe UI Emoji" font-size="20px" fill="#000000" text-anchor="start" style="white-space: pre;" direction="ltr">request 2</text></g><g stroke-linecap="round"><g transform="translate(101.5 49) rotate(0 0.5341094911098594 358.46885327968283)"><path d="M-0.84 -0.41 C-0.41 119.52, 1.66 598.88, 1.91 718.61 M0.92 -1.67 C1.32 118, 1.64 596.64, 1.43 716.81" stroke="#000000" stroke-width="1" fill="none"></path></g><g transform="translate(101.5 49) rotate(0 0.5341094911098594 358.46885327968283)"><path d="M-9.5 690.12 C-5.51 695.05, -4.01 700.79, 2.55 717.71 M-9.72 688.93 C-6.78 695.74, -3.79 702.02, 1.25 716.24" stroke="#000000" stroke-width="1" fill="none"></path></g><g transform="translate(101.5 49) rotate(0 0.5341094911098594 358.46885327968283)"><path d="M11.02 690.13 C9.95 694.91, 6.38 700.65, 2.55 717.71 M10.8 688.93 C8.97 695.87, 7.18 702.15, 1.25 716.24" stroke="#000000" stroke-width="1" fill="none"></path></g></g><g stroke-linecap="round"><g transform="translate(483.0355682746201 375.9237729289383) rotate(0 -115.68085083664107 15.226597530730032)"><path d="M-0.39 0.22 C-39.02 5.12, -192.5 25.21, -230.97 30.23" stroke="#000000" stroke-width="1.5" fill="none" stroke-dasharray="8 9"></path></g><g transform="translate(483.0355682746201 375.9237729289383) rotate(0 -115.68085083664107 15.226597530730032)"><path d="M-203.98 16.47 C-213.78 21.04, -223.39 27, -231.58 30.73" stroke="#000000" stroke-width="1.5" fill="none"></path></g><g transform="translate(483.0355682746201 375.9237729289383) rotate(0 -115.68085083664107 15.226597530730032)"><path d="M-201.32 36.82 C-212.24 33.9, -222.83 32.37, -231.58 30.73" stroke="#000000" stroke-width="1.5" fill="none"></path></g></g><g transform="translate(212.5 414) rotate(0 122 13)"><text x="0" y="18" font-family="Virgil, Segoe UI Emoji" font-size="20px" fill="#000000" text-anchor="start" style="white-space: pre;" direction="ltr">response 2 gets dropped</text></g><g stroke-linecap="round"><g transform="translate(114.5 480) rotate(0 -9.834953639763398 11.15285498056096)"><path d="M-0.78 0.6 C-4.19 4.39, -17.66 18.88, -20.68 22.44 M1.01 -0.13 C-1.99 3.31, -14.97 16.66, -18.33 20.54" stroke="#c92a2a" stroke-width="1" fill="none"></path></g></g><g stroke-linecap="round"><g transform="translate(91.5 475) rotate(0 14.448936563730228 16.27163408211436)"><path d="M-0.87 0.97 C4.12 6.28, 24.78 25.84, 29.77 31.06 M0.87 0.43 C5.7 5.94, 23.6 26.55, 28.7 32.11" stroke="#c92a2a" stroke-width="1" fill="none"></path></g></g><g transform="translate(12.5 477) rotate(0 37 13)"><text x="0" y="18" font-family="Virgil, Segoe UI Emoji" font-size="20px" fill="#000000" text-anchor="start" style="white-space: pre;" direction="ltr">timeout</text></g><g transform="translate(494.5 343) rotate(0 109.5 13)"><text x="0" y="18" font-family="Virgil, Segoe UI Emoji" font-size="20px" fill="#000000" text-anchor="start" style="white-space: pre;" direction="ltr">server state updated</text></g><g stroke-linecap="round"><g transform="translate(107.5 547) rotate(0 104.7827836930752 12.951648432016327)"><path d="M-0.41 0.24 C34.7 4.66, 174.6 21.35, 209.98 25.66" stroke="#000000" stroke-width="1.5" fill="none" stroke-dasharray="8 9"></path></g><g transform="translate(107.5 547) rotate(0 104.7827836930752 12.951648432016327)"><path d="M181.16 30.78 C188.94 32.38, 196.71 28.83, 211.09 25.2" stroke="#000000" stroke-width="1.5" fill="none"></path></g><g transform="translate(107.5 547) rotate(0 104.7827836930752 12.951648432016327)"><path d="M183.62 10.4 C190.67 16.89, 197.84 18.24, 211.09 25.2" stroke="#000000" stroke-width="1.5" fill="none"></path></g></g><g transform="translate(221.5 588) rotate(0 118 13)"><text x="0" y="18" font-family="Virgil, Segoe UI Emoji" font-size="20px" fill="#000000" text-anchor="start" style="white-space: pre;" direction="ltr">request 3 gets dropped</text></g><g stroke-linecap="round"><g transform="translate(112 667) rotate(0 -9.984343820321328 11.712212390219804)"><path d="M-0.84 0.98 C-4.3 4.4, -17.81 18.08, -20.89 21.63 M0.92 0.44 C-2.16 4.56, -15.2 19.1, -18.64 22.98" stroke="#c92a2a" stroke-width="1" fill="none"></path></g></g><g stroke-linecap="round"><g transform="translate(89 662) rotate(0 14.832681874972764 15.90240011811261)"><path d="M0.98 -0.89 C5.74 4.7, 24.75 27.27, 29.63 32.69 M0.03 1.26 C4.5 6.58, 23.56 25.68, 28.49 30.93" stroke="#c92a2a" stroke-width="1" fill="none"></path></g></g><g transform="translate(10 664) rotate(0 37 13)"><text x="0" y="18" font-family="Virgil, Segoe UI Emoji" font-size="20px" fill="#000000" text-anchor="start" style="white-space: pre;" direction="ltr">timeout</text></g><g transform="translate(496.5 101) rotate(0 117.5 13)"><text x="0" y="18" font-family="Virgil, Segoe UI Emoji" font-size="20px" fill="#000000" text-anchor="start" style="white-space: pre;" direction="ltr">server state unchanged</text></g></svg>