<svg version="1.1" xmlns="http://www.w3.org/2000/svg" viewBox="0 0 697.9747809028626 516.5" width="1395.9495618057251" height="1033">
  <!-- svg-source:excalidraw -->
  
  <defs>
    <style>
      @font-face {
        font-family: "Virgil";
        src: url("https://excalidraw.com/Virgil.woff2");
      }
      @font-face {
        font-family: "Cascadia";
        src: url("https://excalidraw.com/Cascadia.woff2");
      }
    </style>
  </defs>
  <rect x="0" y="0" width="697.9747809028626" height="516.5" fill="#ffffff"></rect><g stroke-linecap="round" transform="translate(239.97478090286256 48.5) rotate(0 224 229)"><path d="M-0.56 0.23 C138.68 1.03, 278.42 -0.3, 447.22 -0.49 M-0.17 -0.13 C115.29 -0.73, 230.72 -0.74, 448.04 -0.18 M447.84 0.02 C445.07 166.59, 445.59 332.07, 447.24 457.6 M447.79 0.29 C447.3 150.66, 446.51 301.83, 447.95 458.09 M448.58 457.52 C340.56 456.23, 232.88 455.35, -0.43 458.35 M447.57 458.35 C333.7 457.3, 219.21 457.25, -0.22 458.33 M-0.26 458.4 C1.73 300.43, 0.55 142.44, 0.39 0.9 M-0.37 457.8 C-0.82 351.46, -0.8 245.3, -0.04 0.22" stroke="#000000" stroke-width="1" fill="none"></path></g><g stroke-linecap="round" transform="translate(291.97478090286256 406.5) rotate(0 14.5 33)"><path d="M19.71 2.25 C22.66 4.41, 25.85 10.69, 27.46 16.8 C29.07 22.91, 29.93 31.96, 29.37 38.89 C28.8 45.83, 26.56 53.91, 24.07 58.43 C21.57 62.96, 17.53 66.32, 14.4 66.04 C11.27 65.77, 7.73 61.43, 5.29 56.77 C2.84 52.11, 0.3 44.96, -0.29 38.09 C-0.88 31.21, 0.1 21.74, 1.72 15.52 C3.35 9.3, 5.95 2.56, 9.46 0.77 C12.96 -1.01, 20.23 3.58, 22.75 4.82 C25.28 6.05, 24.74 7.77, 24.62 8.17 M18.43 1.5 C21.26 3.6, 25.89 10.85, 27.64 16.78 C29.38 22.72, 29.59 30.11, 28.88 37.11 C28.17 44.1, 25.53 54.1, 23.39 58.75 C21.25 63.4, 18.93 64.95, 16.04 64.99 C13.15 65.02, 8.87 63.38, 6.04 58.93 C3.21 54.49, -0.42 45.41, -0.95 38.32 C-1.49 31.23, 0.95 22.33, 2.85 16.39 C4.75 10.44, 7.74 4.95, 10.47 2.65 C13.2 0.36, 18 2.42, 19.23 2.61 C20.46 2.8, 18.04 3.62, 17.86 3.78" stroke="#000000" stroke-width="1" fill="none"></path></g><g stroke-linecap="round"><g transform="translate(309.97478090286256 407.5) rotate(0 153.35012449969537 -1.258616660879909)"><path d="M0.12 0.04 C51.41 -0.12, 256.51 -0.62, 307.97 -0.97 M-1.27 -0.99 C49.84 -1.46, 255.36 -2.59, 307.01 -2.55" stroke="#000000" stroke-width="1" fill="none"></path></g></g><g stroke-linecap="round"><g transform="translate(303.60091308005155 470.526325089857) rotate(0 157.96920624319466 -1.1730753704998733)"><path d="M-0.37 1.03 C52.48 0.69, 263.65 -1.1, 316.31 -1.52 M1.63 0.52 C54.49 -0.22, 263.63 -2.69, 315.86 -3.37" stroke="#000000" stroke-width="1" fill="none"></path></g></g><g stroke-linecap="round" transform="translate(599.4747809028626 403.5) rotate(0 14.5 33)"><path d="M21.65 3.97 C24.59 6.87, 27.4 14.43, 28.65 20.83 C29.9 27.23, 30.14 35.72, 29.15 42.36 C28.16 48.99, 25.48 56.83, 22.73 60.66 C19.99 64.49, 15.96 66.38, 12.69 65.32 C9.42 64.27, 5.18 59.71, 3.11 54.33 C1.04 48.96, 0.26 39.96, 0.26 33.1 C0.25 26.24, 1.14 18.4, 3.08 13.16 C5.03 7.91, 8.69 3.02, 11.94 1.61 C15.19 0.19, 20.91 3.72, 22.59 4.67 C24.26 5.62, 22.05 6.69, 22 7.33 M17.81 1.81 C20.49 2.82, 23.41 7.38, 25.16 12.35 C26.91 17.32, 28 24.93, 28.3 31.64 C28.6 38.34, 28.51 46.98, 26.93 52.59 C25.36 58.19, 21.96 63.64, 18.86 65.24 C15.76 66.85, 11.52 65.34, 8.36 62.2 C5.2 59.05, 0.95 53.07, -0.11 46.37 C-1.18 39.67, 0.89 28.86, 1.95 22 C3.02 15.13, 3.64 8.57, 6.26 5.16 C8.88 1.75, 16.15 2.29, 17.65 1.54 C19.15 0.78, 15.55 0.33, 15.26 0.65" stroke="#000000" stroke-width="1" fill="none"></path></g><g transform="translate(563.9747809028626 10) rotate(0 56.5 13)"><text x="0" y="18" font-family="Virgil, Segoe UI Emoji" font-size="20px" fill="#000000" text-anchor="start" style="white-space: pre;" direction="ltr">Web service</text></g><g stroke-linecap="round"><g transform="translate(10.974780902862562 89.5) rotate(0 106.7783736991882 -0.8666079591959743)"><path d="M0.32 0.23 C35.8 -0.04, 176.69 -1.95, 212.23 -1.97 M-0.97 -0.69 C34.95 -0.81, 178.87 -0.79, 214.53 -0.94" stroke="#000000" stroke-width="1" fill="none"></path></g><g transform="translate(10.974780902862562 89.5) rotate(0 106.7783736991882 -0.8666079591959743)"><path d="M186.75 8.08 C191.7 7.61, 202.16 2.78, 215.56 -0.35 M185.42 9.93 C197.49 5.76, 207.41 1.37, 215.41 -1.75" stroke="#000000" stroke-width="1" fill="none"></path></g><g transform="translate(10.974780902862562 89.5) rotate(0 106.7783736991882 -0.8666079591959743)"><path d="M186.71 -12.44 C191.62 -7.86, 202.08 -7.65, 215.56 -0.35 M185.39 -10.59 C197.45 -7.17, 207.38 -3.98, 215.41 -1.75" stroke="#000000" stroke-width="1" fill="none"></path></g></g><g transform="translate(50.97478090286256 48.5) rotate(0 40.5 13)"><text x="0" y="18" font-family="Virgil, Segoe UI Emoji" font-size="20px" fill="#000000" text-anchor="start" style="white-space: pre;" direction="ltr">Request</text></g><g stroke-linecap="round"><g transform="translate(256.97478090286256 86.5) rotate(0 190.07257737719715 141.42302179811298)"><path d="M-0.84 -0.89 C57.11 -0.32, 286.34 -45.79, 347.97 4.65 C409.6 55.1, 365.52 252.16, 368.94 301.77" stroke="#000000" stroke-width="1.5" fill="none" stroke-dasharray="8 9"></path></g><g transform="translate(256.97478090286256 86.5) rotate(0 190.07257737719715 141.42302179811298)"><path d="M359.28 272.85 C364.75 282.07, 365.88 290.54, 369.5 302.39" stroke="#000000" stroke-width="1.5" fill="none"></path></g><g transform="translate(256.97478090286256 86.5) rotate(0 190.07257737719715 141.42302179811298)"><path d="M379.75 274.35 C378.68 282.94, 373.29 290.94, 369.5 302.39" stroke="#000000" stroke-width="1.5" fill="none"></path></g></g><g transform="translate(394.97478090286256 425.5) rotate(0 66.5 13)"><text x="0" y="18" font-family="Virgil, Segoe UI Emoji" font-size="20px" fill="#000000" text-anchor="start" style="white-space: pre;" direction="ltr">Queue (FIFO)</text></g><g stroke-linecap="round" transform="translate(293.97478090286256 150.5) rotate(0 103.5 67.5)"><path d="M-1.08 -0.37 C53.95 -0.32, 109.02 0.09, 205.47 0.89 M206.48 0.09 C204.64 48.64, 205.91 97.57, 205.67 136.51 M208.78 134.94 C152.44 136.21, 102.38 133.78, -1.32 135.78 M-1.41 134 C1.22 89.64, 0.3 45.72, 1.88 1.77" stroke="#000000" stroke-width="1.5" fill="none" stroke-dasharray="8 9"></path></g><g transform="translate(363.97478090286256 177.5) rotate(0 32.5 13)"><text x="0" y="18" font-family="Virgil, Segoe UI Emoji" font-size="20px" fill="#000000" text-anchor="start" style="white-space: pre;" direction="ltr">Worker</text></g><g stroke-linecap="round"><g transform="translate(317.2119538003668 402.3751747611627) rotate(0 1.7142686283316948 -56.28286884928568)"><path d="M-0.2 0.49 C0.31 -18.37, 3 -93.92, 3.63 -113.05" stroke="#000000" stroke-width="1.5" fill="none" stroke-dasharray="8 9"></path></g><g transform="translate(317.2119538003668 402.3751747611627) rotate(0 1.7142686283316948 -56.28286884928568)"><path d="M13.73 -85.28 C11.01 -95.38, 5.68 -105.67, 2.31 -113.09" stroke="#000000" stroke-width="1.5" fill="none"></path></g><g transform="translate(317.2119538003668 402.3751747611627) rotate(0 1.7142686283316948 -56.28286884928568)"><path d="M-6.78 -85.99 C-2.32 -95.81, -0.47 -105.84, 2.31 -113.09" stroke="#000000" stroke-width="1.5" fill="none"></path></g></g><g stroke-linecap="round"><g transform="translate(282.97478090286256 180.5) rotate(0 -22.881389613077033 1.3419871579855567)"><path d="M0.11 0.71 C-7.57 0.98, -38.38 1.83, -45.87 1.97" stroke="#000000" stroke-width="1.5" fill="none" stroke-dasharray="8 9"></path></g><g transform="translate(282.97478090286256 180.5) rotate(0 -22.881389613077033 1.3419871579855567)"><path d="M-23.72 -7.69 C-31.55 -3.3, -38.83 -0.94, -44.27 0.26" stroke="#000000" stroke-width="1.5" fill="none"></path></g><g transform="translate(282.97478090286256 180.5) rotate(0 -22.881389613077033 1.3419871579855567)"><path d="M-23.34 7.71 C-31.34 7.23, -38.74 4.72, -44.27 0.26" stroke="#000000" stroke-width="1.5" fill="none"></path></g></g><g stroke-linecap="round"><g transform="translate(236.97478090286256 185.5) rotate(0 -112.5955468776636 -1.7601589191704932)"><path d="M-0.64 -0.39 C-38.44 -0.72, -188.02 -2.84, -225.65 -3.13 M1.22 -1.64 C-36.8 -1.77, -188.31 -2.31, -226.41 -2.19" stroke="#000000" stroke-width="1" fill="none"></path></g><g transform="translate(236.97478090286256 185.5) rotate(0 -112.5955468776636 -1.7601589191704932)"><path d="M-198.86 -11.84 C-211.27 -9.25, -220.7 -3.32, -226.72 -4.07 M-198.78 -12.09 C-207.48 -9, -217.11 -6.84, -227.28 -2.32" stroke="#000000" stroke-width="1" fill="none"></path></g><g transform="translate(236.97478090286256 185.5) rotate(0 -112.5955468776636 -1.7601589191704932)"><path d="M-198.88 8.68 C-211.08 3.22, -220.51 1.09, -226.72 -4.07 M-198.79 8.43 C-207.65 4.97, -217.27 0.58, -227.28 -2.32" stroke="#000000" stroke-width="1" fill="none"></path></g></g><g transform="translate(66.97478090286256 152.5) rotate(0 44 13)"><text x="0" y="18" font-family="Virgil, Segoe UI Emoji" font-size="20px" fill="#000000" text-anchor="start" style="white-space: pre;" direction="ltr">Response</text></g></svg>