<svg version="1.1" xmlns="http://www.w3.org/2000/svg" viewBox="0 0 1040 753.8118545269034" width="2080" height="1507.6237090538068">
  <!-- svg-source:excalidraw -->
  
  <defs>
    <style class="style-fonts">
      @font-face {
        font-family: "Virgil";
        src: url("https://excalidraw.com/Virgil.woff2");
      }
      @font-face {
        font-family: "Cascadia";
        src: url("https://excalidraw.com/Cascadia.woff2");
      }
    </style>
  </defs>
  <rect x="0" y="0" width="1040" height="753.8118545269034" fill="#ffffff"></rect><g stroke-linecap="round" transform="translate(277.99999999999983 382.8118545269034) rotate(0 72 114.5)"><path d="M32 0 M32 0 C49.74 -1.36, 71.26 0.98, 112 0 M32 0 C60.05 0.8, 89.02 -0.11, 112 0 M112 0 C133.87 -0.71, 144.4 10.46, 144 32 M112 0 C132.73 0.32, 142.97 10.61, 144 32 M144 32 C146.69 80.38, 146.5 129.63, 144 197 M144 32 C142.94 83.92, 143.31 134.49, 144 197 M144 197 C142.4 216.81, 134.46 229.59, 112 229 M144 197 C145.47 217.74, 134.46 230.14, 112 229 M112 229 C83.45 227.83, 54.8 228.58, 32 229 M112 229 C84.67 230.46, 57.13 228.73, 32 229 M32 229 C12.16 229.62, -1.8 218.4, 0 197 M32 229 C12.72 227.84, -1.25 216.08, 0 197 M0 197 C0.46 163.47, 2.18 130.56, 0 32 M0 197 C-1.34 156.93, -1.66 119.61, 0 32 M0 32 C1.87 9.44, 12.4 1.59, 32 0 M0 32 C-1.78 9.73, 9.47 -0.81, 32 0" stroke="#000000" stroke-width="1" fill="none"></path></g><g stroke-linecap="round" transform="translate(516.9999999999998 380.3118545269034) rotate(0 72 114.5)"><path d="M32 0 M32 0 C51.13 1.61, 74.55 1.66, 112 0 M32 0 C56.03 0.4, 78.19 0.61, 112 0 M112 0 C132.63 0.4, 143.79 10.14, 144 32 M112 0 C133.65 -1.03, 143.95 10.63, 144 32 M144 32 C142.98 90.21, 143 144.99, 144 197 M144 32 C145.57 75.57, 145.06 118.56, 144 197 M144 197 C142.48 219.46, 133.92 230.28, 112 229 M144 197 C143.41 219.46, 134.47 230.04, 112 229 M112 229 C93.74 226.69, 76.63 229.56, 32 229 M112 229 C85.54 229.86, 56.59 230.05, 32 229 M32 229 C11.28 227.2, 0.07 220.12, 0 197 M32 229 C9.5 227.75, -2.25 216.07, 0 197 M0 197 C0.42 163.07, 0.79 126.51, 0 32 M0 197 C-2.43 134.13, -0.62 72.92, 0 32 M0 32 C-1.23 12.4, 12.26 -1.55, 32 0 M0 32 C-0.94 9.47, 9.86 -0.88, 32 0" stroke="#000000" stroke-width="1" fill="none"></path></g><g stroke-linecap="round" transform="translate(739.9999999999998 380.3118545269034) rotate(0 72 114.5)"><path d="M32 0 M32 0 C51.26 1.18, 69.51 0.54, 112 0 M32 0 C57.78 -0.71, 83.72 -1.13, 112 0 M112 0 C133.74 -0.21, 143.48 10.94, 144 32 M112 0 C132.31 -0.05, 143.96 11.63, 144 32 M144 32 C147.45 78.98, 145.84 126.92, 144 197 M144 32 C143.11 89.15, 142.42 144.88, 144 197 M144 197 C145.13 218.92, 134.62 228.49, 112 229 M144 197 C145.12 219.47, 134.38 227.23, 112 229 M112 229 C93.72 229.18, 80.25 229.64, 32 229 M112 229 C81.44 228.61, 50.51 229.91, 32 229 M32 229 C8.86 229.07, 1.79 217.32, 0 197 M32 229 C9.41 226.75, -2.26 216.26, 0 197 M0 197 C1.54 154.26, -0.41 112.84, 0 32 M0 197 C-0.29 133.46, 1.01 67.55, 0 32 M0 32 C1.73 12.26, 9.12 -0.82, 32 0 M0 32 C-1.2 9.86, 9.79 -1.43, 32 0" stroke="#000000" stroke-width="1" fill="none"></path></g><g transform="translate(345.99999999999983 388.8118545269034) rotate(0 39.5 13)"><text x="0" y="18" font-family="Virgil, Segoe UI Emoji" font-size="20px" fill="#000000" text-anchor="start" style="white-space: pre;" direction="ltr">Network</text></g><g transform="translate(602.9999999999998 389.8118545269034) rotate(0 29 25.5)"><text x="0" y="18.5" font-family="Virgil, Segoe UI Emoji" font-size="20px" fill="#000000" text-anchor="start" style="white-space: pre;" direction="ltr">Event</text><text x="0" y="44" font-family="Virgil, Segoe UI Emoji" font-size="20px" fill="#000000" text-anchor="start" style="white-space: pre;" direction="ltr">queue</text></g><g transform="translate(784.9999999999998 388.8118545269034) rotate(0 47.5 13)"><text x="0" y="18" font-family="Virgil, Segoe UI Emoji" font-size="20px" fill="#000000" text-anchor="start" style="white-space: pre;" direction="ltr">Timewheel</text></g><g transform="translate(537.9999999999998 93.8118545269034) rotate(0 76 13)"><text x="0" y="18" font-family="Virgil, Segoe UI Emoji" font-size="20px" fill="#000000" text-anchor="start" style="white-space: pre;" direction="ltr">State machines</text></g><g stroke-linecap="round"><g transform="translate(585.9999999999998 373.8118545269034) rotate(0 -1.2592016939958626 -62.71497087395278)"><path d="M0.08 0.32 C-0.36 -20.31, -1.22 -102.99, -1.42 -123.76 M-1.34 -0.55 C-2.07 -21.58, -2.49 -105.32, -2.59 -125.75" stroke="#000000" stroke-width="1" fill="none"></path></g><g transform="translate(585.9999999999998 373.8118545269034) rotate(0 -1.2592016939958626 -62.71497087395278)"><path d="M8.36 -98.33 C4.08 -108.98, -0.98 -119.66, -3.49 -125.8 M8.82 -98.04 C5.5 -106.44, 1.58 -114.77, -2.15 -126.23" stroke="#000000" stroke-width="1" fill="none"></path></g><g transform="translate(585.9999999999998 373.8118545269034) rotate(0 -1.2592016939958626 -62.71497087395278)"><path d="M-12.16 -98.21 C-8.3 -108.93, -5.22 -119.65, -3.49 -125.8 M-11.7 -97.93 C-8.9 -106.34, -6.69 -114.7, -2.15 -126.23" stroke="#000000" stroke-width="1" fill="none"></path></g></g><mask></mask><g transform="translate(596.9999999999998 313.8118545269034) rotate(0 40 13)"><text x="0" y="18" font-family="Virgil, Segoe UI Emoji" font-size="20px" fill="#000000" text-anchor="start" style="white-space: pre;" direction="ltr">dequeue</text></g><g stroke-linecap="round"><g transform="translate(428.99999999999983 446.8118545269034) rotate(0 41.22634425908328 1.1905992210190561)"><path d="M-0.42 0.24 C13.38 0.47, 68.94 1.48, 82.88 1.69 M1.56 -0.68 C15.18 -0.3, 68.37 2.53, 81.86 3.06" stroke="#000000" stroke-width="1" fill="none"></path></g><g transform="translate(428.99999999999983 446.8118545269034) rotate(0 41.22634425908328 1.1905992210190561)"><path d="M53.63 11.78 C61.45 9.63, 69.85 6.57, 81.83 3.89 M54.13 11.57 C61.53 9.17, 70.18 6.46, 82.7 2.95" stroke="#000000" stroke-width="1" fill="none"></path></g><g transform="translate(428.99999999999983 446.8118545269034) rotate(0 41.22634425908328 1.1905992210190561)"><path d="M54.59 -8.72 C62.17 -4.59, 70.28 -1.37, 81.83 3.89 M55.08 -8.92 C62.41 -5.39, 70.78 -2.16, 82.7 2.95" stroke="#000000" stroke-width="1" fill="none"></path></g></g><mask></mask><g transform="translate(433.99999999999983 462.8118545269034) rotate(0 38.5 38.5)"><text x="0" y="17.666666666666668" font-family="Virgil, Segoe UI Emoji" font-size="20px" fill="#000000" text-anchor="start" style="white-space: pre;" direction="ltr">enqueue</text><text x="0" y="43.333333333333336" font-family="Virgil, Segoe UI Emoji" font-size="20px" fill="#000000" text-anchor="start" style="white-space: pre;" direction="ltr">network</text><text x="0" y="69" font-family="Virgil, Segoe UI Emoji" font-size="20px" fill="#000000" text-anchor="start" style="white-space: pre;" direction="ltr">event</text></g><g stroke-linecap="round"><g transform="translate(721.9999999999998 544.8118545269034) rotate(0 -30.90960135148373 0.5978249454777824)"><path d="M-0.12 -0.31 C-10.19 -0.11, -50.68 1.08, -60.83 1.46 M-1.65 -1.53 C-11.82 -1.18, -51.67 1.92, -61.7 2.72" stroke="#000000" stroke-width="1" fill="none"></path></g><g transform="translate(721.9999999999998 544.8118545269034) rotate(0 -30.90960135148373 0.5978249454777824)"><path d="M-34.91 -9.42 C-42.48 -6.49, -48.85 -2.32, -61.9 4.72 M-34.29 -10.05 C-40.87 -7.09, -47.5 -3.52, -61.36 1.92" stroke="#000000" stroke-width="1" fill="none"></path></g><g transform="translate(721.9999999999998 544.8118545269034) rotate(0 -30.90960135148373 0.5978249454777824)"><path d="M-33.32 11.03 C-41.35 8.55, -48.14 7.31, -61.9 4.72 M-32.7 10.41 C-39.87 8.09, -46.92 6.39, -61.36 1.92" stroke="#000000" stroke-width="1" fill="none"></path></g></g><mask></mask><g transform="translate(662.9999999999998 465.8118545269034) rotate(0 38.5 38.5)"><text x="0" y="17.666666666666668" font-family="Virgil, Segoe UI Emoji" font-size="20px" fill="#000000" text-anchor="start" style="white-space: pre;" direction="ltr">enqueue</text><text x="0" y="43.333333333333336" font-family="Virgil, Segoe UI Emoji" font-size="20px" fill="#000000" text-anchor="start" style="white-space: pre;" direction="ltr">timer</text><text x="0" y="69" font-family="Virgil, Segoe UI Emoji" font-size="20px" fill="#000000" text-anchor="start" style="white-space: pre;" direction="ltr">event</text></g><g stroke-linecap="round"><g transform="translate(496.99999999999983 241.1282003446721) rotate(0 -84.57072368239069 71.32780926861068)"><path d="M0.17 -0.54 C-27.87 23.13, -140.35 117.98, -168.34 141.66 M-1.21 1.8 C-29.39 25.69, -141.46 119.69, -169.31 143.19" stroke="#000000" stroke-width="1" fill="none"></path></g><g transform="translate(496.99999999999983 241.1282003446721) rotate(0 -84.57072368239069 71.32780926861068)"><path d="M-155.23 117.15 C-158.77 125.58, -163.28 134.27, -170.16 145 M-153.89 116.72 C-157.34 123.75, -161.72 129.78, -170.07 143.76" stroke="#000000" stroke-width="1" fill="none"></path></g><g transform="translate(496.99999999999983 241.1282003446721) rotate(0 -84.57072368239069 71.32780926861068)"><path d="M-142.02 132.85 C-149.35 136.75, -157.68 140.9, -170.16 145 M-140.68 132.42 C-147.56 135.35, -155.35 137.32, -170.07 143.76" stroke="#000000" stroke-width="1" fill="none"></path></g></g><mask></mask><g stroke-linecap="round"><g transform="translate(689.9999999999998 235.8118545269034) rotate(0 49.72242209166285 68.70654533041176)"><path d="M-0.54 -0.03 C16.18 23.03, 83.24 115.3, 99.98 138.5 M1.38 -1.09 C17.97 21.59, 82.74 113.55, 99.02 136.64" stroke="#000000" stroke-width="1" fill="none"></path></g><g transform="translate(689.9999999999998 235.8118545269034) rotate(0 49.72242209166285 68.70654533041176)"><path d="M74.34 119.48 C82 124.11, 89.9 128.16, 100.83 135.81 M73.92 120.36 C81.85 125.04, 88.78 129.25, 99.59 136.94" stroke="#000000" stroke-width="1" fill="none"></path></g><g transform="translate(689.9999999999998 235.8118545269034) rotate(0 49.72242209166285 68.70654533041176)"><path d="M91.12 107.66 C94.19 115.45, 97.5 122.73, 100.83 135.81 M90.69 108.53 C93.39 116.95, 95.13 124.82, 99.59 136.94" stroke="#000000" stroke-width="1" fill="none"></path></g></g><mask></mask><g transform="translate(252.99999999999983 248.8118545269034) rotate(0 96 38.5)"><text x="0" y="17.666666666666668" font-family="Virgil, Segoe UI Emoji" font-size="20px" fill="#000000" text-anchor="start" style="white-space: pre;" direction="ltr">respond to client /</text><text x="0" y="43.333333333333336" font-family="Virgil, Segoe UI Emoji" font-size="20px" fill="#000000" text-anchor="start" style="white-space: pre;" direction="ltr">send reply to other</text><text x="0" y="69" font-family="Virgil, Segoe UI Emoji" font-size="20px" fill="#000000" text-anchor="start" style="white-space: pre;" direction="ltr">node(s) </text></g><g stroke-linecap="round"><g transform="translate(321.99999999999983 418.28521240381303) rotate(0 -23.815693886578075 15.317277090616471)"><path d="M-0.12 1.2 C-8.04 6.02, -39.61 24.89, -47.51 29.44" stroke="#000000" stroke-width="1.5" fill="none" stroke-dasharray="1.5 7"></path></g><g transform="translate(321.99999999999983 418.28521240381303) rotate(0 -23.815693886578075 15.317277090616471)"><path d="M-28.05 7.42 C-33.36 13.73, -40.19 20.18, -46.62 28.49" stroke="#000000" stroke-width="1.5" fill="none" stroke-dasharray="1.5 5"></path></g><g transform="translate(321.99999999999983 418.28521240381303) rotate(0 -23.815693886578075 15.317277090616471)"><path d="M-18.52 23.6 C-26.75 25.08, -36.41 26.69, -46.62 28.49" stroke="#000000" stroke-width="1.5" fill="none" stroke-dasharray="1.5 5"></path></g></g><mask></mask><g transform="translate(742.9999999999998 261.8118545269034) rotate(0 99 13)"><text x="0" y="18" font-family="Virgil, Segoe UI Emoji" font-size="20px" fill="#000000" text-anchor="start" style="white-space: pre;" direction="ltr">register/reset timer</text></g><g stroke-linecap="round"><g transform="translate(582.9999999999998 242.8118545269034) rotate(0 55.267186943047534 -25.03575108362861)"><path d="M0.11 -0.42 C8.86 -8.6, 35.15 -47.65, 53.53 -49.57 C71.92 -51.49, 101.04 -18.07, 110.42 -11.94" stroke="#000000" stroke-width="1.5" fill="none" stroke-dasharray="1.5 7"></path></g><g transform="translate(582.9999999999998 242.8118545269034) rotate(0 55.267186943047534 -25.03575108362861)"><path d="M81.68 -21.73 C92.33 -16.79, 104 -13.65, 108.82 -13.46" stroke="#000000" stroke-width="1.5" fill="none" stroke-dasharray="1.5 5"></path></g><g transform="translate(582.9999999999998 242.8118545269034) rotate(0 55.267186943047534 -25.03575108362861)"><path d="M95.1 -37.25 C100.45 -26.25, 106.89 -17.04, 108.82 -13.46" stroke="#000000" stroke-width="1.5" fill="none" stroke-dasharray="1.5 5"></path></g></g><mask></mask><g transform="translate(569.9999999999998 175.8118545269034) rotate(0 22.5 13)"><text x="0" y="18" font-family="Virgil, Segoe UI Emoji" font-size="20px" fill="#000000" text-anchor="start" style="white-space: pre;" direction="ltr">step</text></g><g stroke-linecap="round" transform="translate(757.9999999999998 457.8118545269034) rotate(0 53.5 53.5)"><path d="M74.52 3.89 C82.68 6.64, 91.91 15.1, 97.39 22.4 C102.86 29.7, 106.45 38.81, 107.36 47.72 C108.26 56.62, 106.5 67.76, 102.84 75.82 C99.17 83.87, 92.81 90.98, 85.35 96.05 C77.89 101.13, 67.05 105.37, 58.07 106.25 C49.09 107.14, 39.43 104.86, 31.48 101.38 C23.52 97.89, 15.48 92.27, 10.35 85.36 C5.22 78.45, 1.57 68.74, 0.69 59.92 C-0.2 51.09, 1.37 40.88, 5.04 32.43 C8.7 23.97, 15.38 14.5, 22.66 9.19 C29.94 3.89, 39.48 1.04, 48.72 0.59 C57.96 0.15, 72.41 5.11, 78.1 6.5 C83.78 7.89, 83.2 8.34, 82.84 8.95 M27.48 6.14 C34.9 1.58, 46.86 -0.39, 55.74 0.12 C64.63 0.64, 73.07 4.56, 80.79 9.24 C88.5 13.91, 97.9 20.62, 102.03 28.19 C106.16 35.76, 105.86 45.52, 105.57 54.68 C105.27 63.83, 104.88 75.25, 100.26 83.13 C95.63 91.01, 85.7 98.19, 77.82 101.97 C69.94 105.75, 61.83 106.45, 52.97 105.81 C44.11 105.18, 32.52 102.77, 24.66 98.17 C16.8 93.56, 10.06 86.14, 5.8 78.17 C1.54 70.2, -1.49 59.3, -0.9 50.35 C-0.32 41.4, 4.24 31.88, 9.32 24.47 C14.4 17.06, 26.28 8.59, 29.58 5.9 C32.88 3.2, 28.75 7.39, 29.12 8.28" stroke="#000000" stroke-width="1" fill="none"></path></g><g stroke-linecap="round"><g transform="translate(808.9999999999998 510.8118545269034) rotate(0 -0.40663591022598666 -25.753887445055852)"><path d="M-0.57 1.01 C-0.69 -7.51, -0.9 -41.78, -1.13 -50.6 M1.33 0.49 C1.08 -8.45, -2 -43.92, -2.15 -52.52" stroke="#000000" stroke-width="1" fill="none"></path></g><g transform="translate(808.9999999999998 510.8118545269034) rotate(0 -0.40663591022598666 -25.753887445055852)"><path d="M9.6 -29.3 C5.82 -36.94, 0.97 -40.41, -1.56 -51.23 M8.38 -29.85 C4.09 -35.92, 2.08 -42.86, -1.97 -52.05" stroke="#000000" stroke-width="1" fill="none"></path></g><g transform="translate(808.9999999999998 510.8118545269034) rotate(0 -0.40663591022598666 -25.753887445055852)"><path d="M-7.81 -28.31 C-6.99 -36.12, -7.23 -39.86, -1.56 -51.23 M-9.04 -28.86 C-8.56 -35.29, -5.78 -42.5, -1.97 -52.05" stroke="#000000" stroke-width="1" fill="none"></path></g></g><mask></mask><g stroke-linecap="round"><g transform="translate(810.9999999999998 508.8118545269034) rotate(0 18.7380921724299 -1.045724280178547)"><path d="M1.01 -0.13 C7.15 -0.36, 31.55 -1.93, 37.4 -1.96 M0.08 -1.24 C6.05 -1.31, 30.25 -0.75, 36.66 -0.93" stroke="#000000" stroke-width="1" fill="none"></path></g><g transform="translate(810.9999999999998 508.8118545269034) rotate(0 18.7380921724299 -1.045724280178547)"><path d="M19.07 6.01 C23.8 1.67, 32.32 1.44, 37.85 -1.4 M18.56 4.51 C24.88 2.93, 30.47 1.06, 37.09 -0.56" stroke="#000000" stroke-width="1" fill="none"></path></g><g transform="translate(810.9999999999998 508.8118545269034) rotate(0 18.7380921724299 -1.045724280178547)"><path d="M19.07 -6.65 C23.75 -6.63, 32.26 -2.5, 37.85 -1.4 M18.56 -8.15 C24.94 -5.32, 30.53 -2.76, 37.09 -0.56" stroke="#000000" stroke-width="1" fill="none"></path></g></g><mask></mask><g stroke-linecap="round"><g transform="translate(583.9999999999998 465.8118545269034) rotate(0 0.22991412220463303 -39.477860872447536)"><path d="M0.68 0.35 C0.8 -12.71, -0.05 -66.18, -0.23 -79.31" stroke="#000000" stroke-width="1.5" fill="none" stroke-dasharray="1.5 7"></path></g><g transform="translate(583.9999999999998 465.8118545269034) rotate(0 0.22991412220463303 -39.477860872447536)"><path d="M11.03 -49.99 C7.79 -56.4, 6.95 -62.63, -1.77 -81.22" stroke="#000000" stroke-width="1.5" fill="none" stroke-dasharray="1.5 5"></path></g><g transform="translate(583.9999999999998 465.8118545269034) rotate(0 0.22991412220463303 -39.477860872447536)"><path d="M-9.49 -49.69 C-8.21 -56.28, -4.54 -62.58, -1.77 -81.22" stroke="#000000" stroke-width="1.5" fill="none" stroke-dasharray="1.5 5"></path></g></g><mask></mask><g stroke-linecap="round" transform="translate(10 348.8118545269034) rotate(0 510 197.5)"><path d="M32 0 M32 0 C246.72 -1.33, 460.81 -0.73, 988 0 M988 0 C1010.24 -1.54, 1018.09 9.74, 1020 32 M1020 32 C1018.44 125.16, 1019.02 217.76, 1020 363 M1020 363 C1021.5 385.44, 1007.36 396.49, 988 395 M988 395 C672.45 394.73, 355.04 394.35, 32 395 M32 395 C8.7 393.2, -0.8 383.3, 0 363 M0 363 C-1.64 268.88, 0.45 172.56, 0 32 M0 32 C-1.87 9.94, 12.42 1.87, 32 0" stroke="#000000" stroke-width="1.5" fill="none" stroke-dasharray="1.5 7"></path></g><g transform="translate(923.9999999999998 355.8118545269034) rotate(0 51 25.5)"><text x="0" y="18.5" font-family="Virgil, Segoe UI Emoji" font-size="20px" fill="#000000" text-anchor="start" style="white-space: pre;" direction="ltr">Simulation</text><text x="0" y="44" font-family="Virgil, Segoe UI Emoji" font-size="20px" fill="#000000" text-anchor="start" style="white-space: pre;" direction="ltr">event loop</text></g><g stroke-linecap="round" transform="translate(501.99999999999983 90.8118545269034) rotate(0 97 74.5)"><path d="M1.54 -0.76 C52.34 0.07, 102.25 -3.1, 194.37 -1.7 M0.31 0.8 C50.32 -2.25, 101.42 -1.99, 193.41 0.91 M194.54 1.44 C193.89 58.31, 192.97 116.66, 192.05 147.96 M193.16 -1 C193.7 55.82, 193.85 114.27, 193.33 149.06 M194.9 150.88 C118.34 150.71, 47 148.65, -1.35 148.72 M193.54 148.35 C117.12 149.74, 39.96 148.65, 0.84 149.57 M0.63 148.16 C-0.39 113.4, 1.44 76.64, 1.18 -0.72 M-0.27 148.47 C0.59 118.71, 0.49 87.67, 0.89 -0.17" stroke="#000000" stroke-width="1" fill="none"></path></g><g stroke-linecap="round" transform="translate(55.99999999999983 377.8118545269034) rotate(0 72 114.5)"><path d="M32 0 M32 0 C52.98 0.34, 71.92 -1.49, 112 0 M32 0 C54.12 -1.59, 77.85 -1.5, 112 0 M112 0 C133.63 0.65, 142.47 9.23, 144 32 M112 0 C132.93 -0.78, 144.06 12.87, 144 32 M144 32 C144.54 78.97, 142.33 130.78, 144 197 M144 32 C143.38 94.07, 144.83 154.96, 144 197 M144 197 C142.66 218.46, 131.44 227.97, 112 229 M144 197 C143.29 220.31, 133.03 230.99, 112 229 M112 229 C88.36 229.04, 64.69 230.54, 32 229 M112 229 C95.28 229.46, 77.53 230.07, 32 229 M32 229 C10.55 229.01, 0.24 218.93, 0 197 M32 229 C9.83 230.48, -1.18 216.05, 0 197 M0 197 C0.78 147.36, 0.03 98.6, 0 32 M0 197 C0.26 149.58, 0.63 103.31, 0 32 M0 32 C1.19 8.71, 9.1 1.25, 32 0 M0 32 C-1.79 9.07, 10.38 1.04, 32 0" stroke="#000000" stroke-width="1" fill="none"></path></g><g transform="translate(97.99999999999983 386.3118545269034) rotate(0 48 25.5)"><text x="0" y="18.5" font-family="Virgil, Segoe UI Emoji" font-size="20px" fill="#000000" text-anchor="start" style="white-space: pre;" direction="ltr">Client</text><text x="0" y="44" font-family="Virgil, Segoe UI Emoji" font-size="20px" fill="#000000" text-anchor="start" style="white-space: pre;" direction="ltr">generator</text></g><g stroke-linecap="round"><g transform="translate(583.9999999999998 473.3118545269034) rotate(0 -23.92230780358426 44.11079869580931)"><path d="M-0.6 -0.4 C-8.43 14.6, -40.3 74.94, -48.12 89.88 M1.29 -1.66 C-6.62 13.03, -40.91 72.84, -49.13 88.22" stroke="#000000" stroke-width="1" fill="none"></path></g></g><mask></mask><g stroke-linecap="round"><g transform="translate(539.9999999999998 560.3118545269034) rotate(0 49.381489315079534 -1.6935622617602348)"><path d="M0 0.67 C16.16 -0.09, 81.44 -3.39, 98.02 -4.06 M-1.45 -0.02 C14.98 -0.71, 83.48 -2.71, 100.22 -3.08" stroke="#000000" stroke-width="1" fill="none"></path></g></g><mask></mask><g stroke-linecap="round"><g transform="translate(643.9999999999998 554.3118545269034) rotate(0 -29.48398576493372 -40.21142678427043)"><path d="M-0.47 -0.6 C-10.45 -14.22, -49.74 -68.72, -59.33 -82.12 M1.48 1.7 C-8.73 -11.78, -50.5 -67.61, -60.45 -81.17" stroke="#000000" stroke-width="1" fill="none"></path></g></g><mask></mask><g transform="translate(558.9999999999998 504.3118545269034) rotate(0 36 25.5)"><text x="0" y="18.5" font-family="Virgil, Segoe UI Emoji" font-size="20px" fill="#000000" text-anchor="start" style="white-space: pre;" direction="ltr">Priority</text><text x="0" y="44" font-family="Virgil, Segoe UI Emoji" font-size="20px" fill="#000000" text-anchor="start" style="white-space: pre;" direction="ltr">queue</text></g><g stroke-linecap="round"><g transform="translate(528.9999999999998 89.3118545269034) rotate(0 105.1817888579688 36.576843591836564)"><path d="M-1.27 1.04 C-0.93 -7.16, 0.93 -16.64, -1.37 -36.06 M0.72 -0.02 C0.92 -14.32, -0.65 -27.2, -0.78 -36.03 M-1.04 -37.59 C79.93 -35.43, 158.19 -35.79, 211.74 -35.37 M0 -35.43 C66.48 -36.1, 132.91 -35.29, 210.52 -36.56 M208.16 -37.17 C206.53 -1.62, 208.06 32.87, 208.01 109.69 M210.89 -37.97 C206.9 18.85, 206.81 76.82, 208.24 109.14 M209.21 108.68 C195.82 111.44, 182.08 111.22, 166.31 111 M208.35 110.86 C195.73 111.13, 181.54 109.96, 165.39 110.94" stroke="#000000" stroke-width="1" fill="none"></path></g></g><mask></mask><g stroke-linecap="round"><g transform="translate(568.9999999999998 48.3118545269034) rotate(0 105.74255560524762 40.46697694410574)"><path d="M1.54 -0.73 C0.35 -14.43, 1.65 -26.2, 1.18 -36.47 M-0.53 -0.5 C0.98 -13.91, 0.63 -28.25, 1.76 -38.04 M1.62 -38.31 C47.75 -37.93, 92.04 -37.05, 210.03 -35.13 M1.05 -38.08 C84.45 -35.71, 168.72 -34.31, 210.9 -35.1 M212.01 -33.7 C208.43 4.8, 207.65 47.41, 207.52 119.25 M210.51 -35.82 C210.95 14.05, 210.62 62.28, 206.52 117.24 M205.88 117.58 C193.33 117.81, 179.23 115.6, 170.69 118.91 M206.11 117.39 C195.69 117.41, 184.94 117.17, 169.01 116.47" stroke="#000000" stroke-width="1" fill="none"></path></g></g><mask></mask><g stroke-linecap="round"><g transform="translate(581.9999999999998 241.3118545269034) rotate(0 -38.593893440067774 -24.4206739815574)"><path d="M0.83 -0.89 C-6.59 -9.1, -31.93 -50.19, -45.07 -49.87 C-58.21 -49.55, -72.52 -7.17, -78.02 1.03" stroke="#000000" stroke-width="1.5" fill="none" stroke-dasharray="1.5 7"></path></g><g transform="translate(581.9999999999998 241.3118545269034) rotate(0 -38.593893440067774 -24.4206739815574)"><path d="M-76.48 -26.69 C-75.7 -22.44, -74.97 -15.09, -79.12 2.31" stroke="#000000" stroke-width="1.5" fill="none" stroke-dasharray="1.5 5"></path></g><g transform="translate(581.9999999999998 241.3118545269034) rotate(0 -38.593893440067774 -24.4206739815574)"><path d="M-58.38 -17.9 C-62.17 -15.77, -66.07 -10.66, -79.12 2.31" stroke="#000000" stroke-width="1.5" fill="none" stroke-dasharray="1.5 5"></path></g></g><mask></mask><g stroke-linecap="round"><g transform="translate(266.99999999999983 448.3118545269034) rotate(0 -33.38550282468554 -0.36964060236698515)"><path d="M0.5 -0.27 C-10.47 -0.29, -55.4 -0.52, -66.9 -0.54 M-0.69 -1.45 C-11.64 -1.28, -55.8 0.35, -67.28 0.71" stroke="#000000" stroke-width="1" fill="none"></path></g><g transform="translate(266.99999999999983 448.3118545269034) rotate(0 -33.38550282468554 -0.36964060236698515)"><path d="M-39.9 -8.68 C-46.32 -8.88, -51.98 -5.17, -69.17 1.78 M-38.57 -9.52 C-46.09 -7.02, -54.12 -3.45, -67.6 0.46" stroke="#000000" stroke-width="1" fill="none"></path></g><g transform="translate(266.99999999999983 448.3118545269034) rotate(0 -33.38550282468554 -0.36964060236698515)"><path d="M-39.19 11.83 C-45.7 7.26, -51.5 6.6, -69.17 1.78 M-37.87 10.99 C-45.75 7.8, -53.97 5.67, -67.6 0.46" stroke="#000000" stroke-width="1" fill="none"></path></g></g><mask></mask><g transform="translate(233.99999999999983 403.3118545269034) rotate(0 37 13)"><text x="0" y="18" font-family="Virgil, Segoe UI Emoji" font-size="20px" fill="#000000" text-anchor="start" style="white-space: pre;" direction="ltr">respond</text></g><g stroke-linecap="round"><g transform="translate(321.99999999999983 422.4844790709484) rotate(0 51.92015661459489 10.408782488368729)"><path d="M0.47 0.06 C17.65 3.36, 86.33 17.02, 103.37 20.76" stroke="#000000" stroke-width="1.5" fill="none" stroke-dasharray="1.5 7"></path></g><g transform="translate(321.99999999999983 422.4844790709484) rotate(0 51.92015661459489 10.408782488368729)"><path d="M73.77 25.35 C82.08 22.73, 94.62 23.67, 102.47 21.69" stroke="#000000" stroke-width="1.5" fill="none" stroke-dasharray="1.5 5"></path></g><g transform="translate(321.99999999999983 422.4844790709484) rotate(0 51.92015661459489 10.408782488368729)"><path d="M77.94 5.26 C85.04 9.2, 96.23 16.7, 102.47 21.69" stroke="#000000" stroke-width="1.5" fill="none" stroke-dasharray="1.5 5"></path></g></g><mask></mask><g transform="translate(348.99999999999983 439.3118545269034) rotate(0 22.5 13)"><text x="0" y="18" font-family="Virgil, Segoe UI Emoji" font-size="20px" fill="#000000" text-anchor="start" style="white-space: pre;" direction="ltr">send</text></g><g transform="translate(204.99999999999983 544.3118545269034) rotate(0 38.5 38.5)"><text x="0" y="17.666666666666668" font-family="Virgil, Segoe UI Emoji" font-size="20px" fill="#000000" text-anchor="start" style="white-space: pre;" direction="ltr">next </text><text x="0" y="43.333333333333336" font-family="Virgil, Segoe UI Emoji" font-size="20px" fill="#000000" text-anchor="start" style="white-space: pre;" direction="ltr">client</text><text x="0" y="69" font-family="Virgil, Segoe UI Emoji" font-size="20px" fill="#000000" text-anchor="start" style="white-space: pre;" direction="ltr">request</text></g><g stroke-linecap="round"><g transform="translate(198.99999999999983 541.3118545269034) rotate(0 156.77923017293216 3.2084190047065704)"><path d="M-1.02 -0.32 C51.33 0.83, 262.05 5.38, 314.58 6.96 M0.65 -1.53 C52.76 -0.27, 260.75 6.45, 313.41 7.95" stroke="#000000" stroke-width="1" fill="none"></path></g><g transform="translate(198.99999999999983 541.3118545269034) rotate(0 156.77923017293216 3.2084190047065704)"><path d="M284.39 16.64 C292.85 12.96, 306.2 10.17, 313.19 9.59 M284.65 17.9 C291.86 14.1, 298.55 11.95, 312.64 7.06" stroke="#000000" stroke-width="1" fill="none"></path></g><g transform="translate(198.99999999999983 541.3118545269034) rotate(0 156.77923017293216 3.2084190047065704)"><path d="M285.01 -3.87 C293.27 -0.59, 306.41 3.58, 313.19 9.59 M285.28 -2.61 C292.37 -1.66, 298.92 0.94, 312.64 7.06" stroke="#000000" stroke-width="1" fill="none"></path></g></g><mask></mask><g stroke-linecap="round" transform="translate(291.99999999999983 649.3118545269034) rotate(0 58 11)"><path d="M84.62 1.77 C93.96 2.5, 104.04 4.15, 109.28 5.86 C114.52 7.57, 116.87 10, 116.07 12.03 C115.27 14.06, 110.49 16.47, 104.48 18.04 C98.48 19.62, 89.73 20.95, 80.01 21.49 C70.29 22.02, 56.66 21.71, 46.16 21.27 C35.65 20.84, 24.52 20.21, 16.98 18.87 C9.44 17.54, 3.25 15.16, 0.93 13.26 C-1.39 11.36, -0.53 9.19, 3.07 7.49 C6.67 5.78, 14.41 4.27, 22.54 3.03 C30.67 1.78, 39.95 0.04, 51.86 0.02 C63.77 0, 85.55 2.32, 93.99 2.89 C102.43 3.46, 102.95 3.49, 102.5 3.44 M73.75 0.37 C83.41 0.67, 93.43 0.59, 100.22 2.3 C107.02 4.01, 112.46 8.25, 114.52 10.63 C116.59 13.01, 116.44 14.95, 112.61 16.59 C108.78 18.23, 100.41 19.58, 91.57 20.45 C82.73 21.33, 69.98 22.1, 59.55 21.84 C49.11 21.58, 37.93 19.84, 28.94 18.9 C19.95 17.95, 10.1 17.47, 5.59 16.17 C1.09 14.88, 0.85 13.1, 1.91 11.14 C2.98 9.18, 5.75 6.14, 11.98 4.42 C18.21 2.71, 29.23 1.32, 39.31 0.86 C49.38 0.39, 66.85 1.84, 72.45 1.62 C78.04 1.4, 73.13 -0.21, 72.86 -0.45" stroke="#000000" stroke-width="1" fill="none"></path></g><g stroke-linecap="round"><g transform="translate(291.99999999999983 665.3118545269034) rotate(0 58.07827608164189 33.6727238533573)"><path d="M-0.49 1 C-0.33 10.64, -10.4 46.84, 0.09 58.17 C10.57 69.49, 43.19 69.48, 62.41 68.96 C81.64 68.44, 106.42 66.51, 115.45 55.03 C124.47 43.55, 116.37 9.55, 116.58 0.07 M1.46 0.47 C1.54 10.23, -10.8 47.72, -0.82 59.27 C9.16 70.81, 41.88 70.34, 61.34 69.73 C80.8 69.12, 106.39 67.68, 115.93 55.62 C125.46 43.56, 118.21 6.58, 118.55 -2.64" stroke="#000000" stroke-width="1" fill="none"></path></g></g><mask></mask><g transform="translate(312.99999999999983 683.3118545269034) rotate(0 34.5 13)"><text x="0" y="18" font-family="Virgil, Segoe UI Emoji" font-size="20px" fill="#000000" text-anchor="start" style="white-space: pre;" direction="ltr">History</text></g><g stroke-linecap="round"><g transform="translate(321.99999999999983 426.3118545269034) rotate(0 2.640760095417491 109.43056589812045)"><path d="M1.2 -1.16 C1.7 35.63, 3.58 182.91, 4.09 220.02" stroke="#000000" stroke-width="1.5" fill="none" stroke-dasharray="1.5 7"></path></g><g transform="translate(321.99999999999983 426.3118545269034) rotate(0 2.640760095417491 109.43056589812045)"><path d="M-8.47 192.11 C-4.21 203.11, 2.42 214.44, 4.61 219.86" stroke="#000000" stroke-width="1.5" fill="none" stroke-dasharray="1.5 5"></path></g><g transform="translate(321.99999999999983 426.3118545269034) rotate(0 2.640760095417491 109.43056589812045)"><path d="M12.05 191.84 C8.33 203.15, 6.97 214.58, 4.61 219.86" stroke="#000000" stroke-width="1.5" fill="none" stroke-dasharray="1.5 5"></path></g></g><mask></mask><g stroke-linecap="round"><g transform="translate(323.99999999999983 385.3118545269034) rotate(0 0.05187917500734329 17.859656779468082)"><path d="M0.88 -0.59 C0.85 5.43, -0.59 30.09, -0.78 36.31" stroke="#000000" stroke-width="1.5" fill="none" stroke-dasharray="1.5 7"></path></g></g><mask></mask><g transform="translate(364.99999999999983 620.3118545269034) rotate(0 33.5 13)"><text x="0" y="18" font-family="Virgil, Segoe UI Emoji" font-size="20px" fill="#000000" text-anchor="start" style="white-space: pre;" direction="ltr">append</text></g><g stroke-linecap="round"><g transform="translate(456.99999999999983 547.3118545269034) rotate(0 -17.543631904337303 70.36264368916864)"><path d="M-0.37 0.52 C-0.18 20.88, 7.4 97.74, 0.99 120.95 C-5.41 144.16, -32.49 136.67, -38.81 139.77 M1.64 -0.25 C1.77 20.41, 6.9 98.93, 0.57 122.46 C-5.76 146, -29.62 137.98, -36.34 140.97" stroke="#000000" stroke-width="1" fill="none"></path></g><g transform="translate(456.99999999999983 547.3118545269034) rotate(0 -17.543631904337303 70.36264368916864)"><path d="M-16.23 133.62 C-22.79 133.14, -28.61 138.86, -37.1 140.52 M-16.7 131.75 C-22.86 133.32, -27.84 135.53, -36.12 140.18" stroke="#000000" stroke-width="1" fill="none"></path></g><g transform="translate(456.99999999999983 547.3118545269034) rotate(0 -17.543631904337303 70.36264368916864)"><path d="M-14.94 148.09 C-21.73 143.45, -27.92 145.02, -37.1 140.52 M-15.41 146.22 C-21.85 144.09, -27.15 142.62, -36.12 140.18" stroke="#000000" stroke-width="1" fill="none"></path></g></g><mask></mask></svg>