<svg version="1.1" xmlns="http://www.w3.org/2000/svg" viewBox="0 0 983.1164928495884 375.9691370904445" width="983.1164928495884" height="375.9691370904445">
  <!-- svg-source:excalidraw -->
  
  <defs>
    <style>
      @font-face {
        font-family: "Virgil";
        src: url("https://excalidraw.com/Virgil.woff2");
      }
      @font-face {
        font-family: "Cascadia";
        src: url("https://excalidraw.com/Cascadia.woff2");
      }
    </style>
  </defs>
  <rect x="0" y="0" width="983.1164928495884" height="375.9691370904445" fill="#ffffff"></rect><g stroke-linecap="round"><g transform="translate(178.5 366) rotate(0 396.5722696201923 -2.717882687118845)"><path d="M-0.01 -0.03 C132.35 -0.8, 662.27 -3.11, 794.62 -3.87 M-1.47 -1.09 C130.75 -2.23, 661.52 -4.47, 793.99 -5.4" stroke="#000000" stroke-width="1" fill="none"></path></g><g transform="translate(178.5 366) rotate(0 396.5722696201923 -2.717882687118845)"><path d="M765.81 6.04 C777.15 1.64, 785.41 -3.09, 792.15 -4.09 M765.15 4.3 C772.5 3.01, 781.22 -0.75, 794.22 -6.15" stroke="#000000" stroke-width="1" fill="none"></path></g><g transform="translate(178.5 366) rotate(0 396.5722696201923 -2.717882687118845)"><path d="M765.69 -14.48 C777.2 -11.98, 785.5 -9.79, 792.15 -4.09 M765.04 -16.22 C772.28 -12.03, 781.03 -10.3, 794.22 -6.15" stroke="#000000" stroke-width="1" fill="none"></path></g></g><g stroke-linecap="round"><g transform="translate(230.5000000000001 158) rotate(0 91.56544199585915 -3.04941788315773)"><path d="M-0.33 -0.34 C30.05 -1.34, 152.57 -5.03, 183.46 -5.76 M1.7 -1.57 C31.77 -2.45, 151.71 -4.33, 182.23 -4.62" stroke="#000000" stroke-width="1" fill="none"></path></g><g transform="translate(230.5000000000001 158) rotate(0 91.56544199585915 -3.04941788315773)"><path d="M-1.21 -16.01 C-1.52 -8.08, -0.05 -3.78, 0.32 0.4 M-0.5 -15.22 C-1.06 -10.42, -1.17 -3.58, -0.42 -0.76" stroke="#000000" stroke-width="1" fill="none"></path></g><g transform="translate(230.5000000000001 158) rotate(0 91.56544199585915 -3.04941788315773)"><path d="M-0.3 13.98 C-1.03 9.99, 0.07 2.37, 0.32 0.4 M0.41 14.77 C-0.49 8.5, -0.93 4.26, -0.42 -0.76" stroke="#000000" stroke-width="1" fill="none"></path></g></g><g transform="translate(927.5 328) rotate(0 20 13)"><text x="0" y="18" font-family="Virgil, Segoe UI Emoji" font-size="20px" fill="#000000" text-anchor="start" style="white-space: pre;" direction="ltr">time</text></g><g transform="translate(13.5 44) rotate(0 43.5 13)"><text x="0" y="18" font-family="Virgil, Segoe UI Emoji" font-size="20px" fill="#000000" text-anchor="start" style="white-space: pre;" direction="ltr">thread 1:</text></g><g transform="translate(10 144) rotate(0 48 13)"><text x="0" y="18" font-family="Virgil, Segoe UI Emoji" font-size="20px" fill="#000000" text-anchor="start" style="white-space: pre;" direction="ltr">thread 2:</text></g><g transform="translate(12 255) rotate(0 47.5 13)"><text x="0" y="18" font-family="Virgil, Segoe UI Emoji" font-size="20px" fill="#000000" text-anchor="start" style="white-space: pre;" direction="ltr">thread 3:</text></g><g stroke-linecap="round"><g transform="translate(171.5 59.5) rotate(0 91.41951433349868 -1.953607685980387)"><path d="M0.4 -0.89 C30.91 -1.87, 153.27 -4.54, 183.69 -5.16 M-0.85 1.25 C29.42 0.4, 151.57 -2.38, 182.58 -3.71" stroke="#000000" stroke-width="1" fill="none"></path></g><g transform="translate(171.5 59.5) rotate(0 91.41951433349868 -1.953607685980387)"><path d="M-1.08 -16.27 C0.05 -11.95, 0.87 -3.94, -0.95 -0.33 M-0.5 -15.75 C0.87 -9.55, 0.08 -4.99, 0.11 -1.34" stroke="#000000" stroke-width="1" fill="none"></path></g><g transform="translate(171.5 59.5) rotate(0 91.41951433349868 -1.953607685980387)"><path d="M-0.36 13.72 C0.34 7.47, 0.9 4.91, -0.95 -0.33 M0.22 14.24 C1.37 9.2, 0.31 2.54, 0.11 -1.34" stroke="#000000" stroke-width="1" fill="none"></path></g><g transform="translate(171.5 59.5) rotate(0 91.41951433349868 -1.953607685980387)"><path d="M181.94 10.9 C182.6 4.65, 183.12 2.09, 181.24 -3.15 M182.52 11.42 C183.63 6.38, 182.53 -0.28, 182.3 -4.16" stroke="#000000" stroke-width="1" fill="none"></path></g><g transform="translate(171.5 59.5) rotate(0 91.41951433349868 -1.953607685980387)"><path d="M181 -19.09 C182.17 -14.76, 183.02 -6.76, 181.24 -3.15 M181.57 -18.57 C182.98 -12.37, 182.23 -7.81, 182.3 -4.16" stroke="#000000" stroke-width="1" fill="none"></path></g></g><g stroke-linecap="round"><g transform="translate(431.5 138) rotate(0 -15.890700628417505 15.866599005972972)"><path d="M0.53 0.68 C-4.76 5.65, -26.43 25.72, -31.92 30.82 M-0.66 0 C-5.99 4.98, -26.92 26.36, -32.31 31.74" stroke="#c92a2a" stroke-width="1" fill="none"></path></g></g><g stroke-linecap="round"><g transform="translate(396.5 137) rotate(0 19.929719418818138 17.3060657700058)"><path d="M-0.03 0.33 C6.61 5.92, 32.39 28.31, 39.11 33.75 M-1.5 -0.55 C5.57 5.22, 34.5 29.44, 41.36 35.16" stroke="#c92a2a" stroke-width="1" fill="none"></path></g></g><g transform="translate(136.5 18) rotate(0 28.5 13)"><text x="0" y="18" font-family="Virgil, Segoe UI Emoji" font-size="20px" fill="#000000" text-anchor="start" style="white-space: pre;" direction="ltr">invoke</text></g><g transform="translate(344.5 10) rotate(0 11 13)"><text x="0" y="18" font-family="Virgil, Segoe UI Emoji" font-size="20px" fill="#000000" text-anchor="start" style="white-space: pre;" direction="ltr">ok</text></g><g transform="translate(206.5 112) rotate(0 28.5 13)"><text x="0" y="18" font-family="Virgil, Segoe UI Emoji" font-size="20px" fill="#000000" text-anchor="start" style="white-space: pre;" direction="ltr">invoke</text></g><g transform="translate(399.5 111) rotate(0 17 13)"><text x="0" y="18" font-family="Virgil, Segoe UI Emoji" font-size="20px" fill="#000000" text-anchor="start" style="white-space: pre;" direction="ltr">fail</text></g><g stroke-linecap="round"><g transform="translate(194.5 259) rotate(0 158.24268591572064 0.05524432591164441)"><path d="M-0.1 -0.6 C52.73 -0.55, 265.25 0, 318.1 0.01 M-1.62 1.7 C51.06 1.46, 264.75 -0.85, 317.74 -1.58" stroke="#000000" stroke-width="1" fill="none"></path></g><g transform="translate(194.5 259) rotate(0 158.24268591572064 0.05524432591164441)"><path d="M-0.83 -14.22 C1.13 -9.71, 0.39 -3.09, 0.24 -1.45 M-0.45 -16.34 C-0.5 -11.34, 0.17 -6.75, -0.82 -0.46" stroke="#000000" stroke-width="1" fill="none"></path></g><g transform="translate(194.5 259) rotate(0 158.24268591572064 0.05524432591164441)"><path d="M-0.89 15.78 C1.18 8.61, 0.46 3.54, 0.24 -1.45 M-0.51 13.66 C-0.49 10.49, 0.2 6.91, -0.82 -0.46" stroke="#000000" stroke-width="1" fill="none"></path></g></g><g transform="translate(178.5 212) rotate(0 28.5 13)"><text x="0" y="18" font-family="Virgil, Segoe UI Emoji" font-size="20px" fill="#000000" text-anchor="start" style="white-space: pre;" direction="ltr">invoke</text></g><g stroke-linecap="round"><g transform="translate(521.5 258) rotate(0 219.0661854803563 -2.360677725076698)"><path d="M0.26 -1.12 C73.27 -1.59, 365.02 -3.22, 437.88 -3.6" stroke="#000000" stroke-width="1.5" fill="none" stroke-dasharray="1.5 7"></path></g></g><g transform="translate(496.5 226) rotate(0 18 13)"><text x="0" y="18" font-family="Virgil, Segoe UI Emoji" font-size="20px" fill="#000000" text-anchor="start" style="white-space: pre;" direction="ltr">info</text></g></svg>