<svg version="1.1" xmlns="http://www.w3.org/2000/svg" viewBox="0 0 416.6649337752908 459" width="833.3298675505816" height="918">
  <!-- svg-source:excalidraw -->
  
  <defs>
    <style>
      @font-face {
        font-family: "Virgil";
        src: url("https://excalidraw.com/Virgil.woff2");
      }
      @font-face {
        font-family: "Cascadia";
        src: url("https://excalidraw.com/Cascadia.woff2");
      }
    </style>
  </defs>
  <rect x="0" y="0" width="416.6649337752908" height="459" fill="#ffffff"></rect><g stroke-linecap="round" transform="translate(114.13171433538196 10) rotate(0 99 88)"><path d="M-0.79 -0.26 C49.62 -0.21, 98.29 -1.74, 196.87 1.19 M0.73 0.04 C67.2 0.58, 132.31 -0.9, 198.82 0.88 M196.55 0.14 C199.67 34.26, 197.01 71.77, 197.53 174.8 M198.42 0.4 C199.42 52.32, 198.62 102.94, 198.05 176.3 M198.73 175.9 C141.69 176.35, 82.26 177.46, 1.34 175.42 M197.51 175.99 C131.95 175.5, 65.32 174.65, 0.88 176.19 M-0.08 174.67 C-1.93 114.52, 0.88 53.49, 1.05 1.1 M0.68 175.83 C0.08 108.25, 0.41 41.04, -0.21 0.55" stroke="#000000" stroke-width="1" fill="none"></path></g><g stroke-linecap="round" transform="translate(116.13171433538196 273) rotate(0 99 88)"><path d="M0.85 0.8 C60.02 0.4, 116.56 -1.75, 198.1 0.59 M0.36 -0.05 C58.26 -1.47, 114.97 -0.92, 198.67 -0.29 M197.02 -0.02 C196.36 59.43, 194.8 116.27, 199.76 176.38 M197.96 -0.67 C197.07 60.3, 198.47 120.83, 198.52 176.55 M199.36 175.65 C121.24 174.51, 45.69 175.58, -0.42 177.11 M198.66 175.66 C148.19 178.54, 97.12 177.45, 0.82 176.46 M-1.87 177.23 C0.55 115.31, 2.76 51.95, 1.23 1.33 M0.44 175.61 C-1.22 117.49, -0.83 57.44, 0.99 0.12" stroke="#000000" stroke-width="1" fill="none"></path></g><g stroke-linecap="round"><g transform="translate(11.131714335381957 75) rotate(0 44.75911010693761 -0.3504663194820239)"><path d="M0.21 0.8 C15.4 0.92, 75.66 0.62, 90.65 0.39 M-1.13 0.18 C13.9 -0.05, 73.89 -1.57, 89.52 -1.53" stroke="#000000" stroke-width="1" fill="none"></path></g><g transform="translate(11.131714335381957 75) rotate(0 44.75911010693761 -0.3504663194820239)"><path d="M62.8 8.51 C69.51 4.87, 75.27 2.49, 89.5 -1.94 M62.34 9.29 C71.7 5.55, 80.49 1.84, 88.85 -2.48" stroke="#000000" stroke-width="1" fill="none"></path></g><g transform="translate(11.131714335381957 75) rotate(0 44.75911010693761 -0.3504663194820239)"><path d="M62.53 -12.01 C69.26 -10.26, 75.09 -7.25, 89.5 -1.94 M62.08 -11.23 C71.32 -7.88, 80.21 -4.52, 88.85 -2.48" stroke="#000000" stroke-width="1" fill="none"></path></g></g><g stroke-linecap="round"><g transform="translate(315.13171433538196 78) rotate(0 42.95974690773522 -0.7555083466693873)"><path d="M0.23 0.54 C14.81 0.02, 72.57 -1.57, 87.03 -2.05 M-1.11 -0.22 C13.36 -0.07, 71.54 -0.59, 86.09 -0.79" stroke="#000000" stroke-width="1" fill="none"></path></g><g transform="translate(315.13171433538196 78) rotate(0 42.95974690773522 -0.7555083466693873)"><path d="M58.9 9.8 C64.35 6.88, 71.21 2.31, 85.31 0.11 M58.86 9.58 C64.05 7.72, 71.48 4.2, 86.09 -0.73" stroke="#000000" stroke-width="1" fill="none"></path></g><g transform="translate(315.13171433538196 78) rotate(0 42.95974690773522 -0.7555083466693873)"><path d="M58.69 -10.72 C64.37 -8.29, 71.28 -7.52, 85.31 0.11 M58.64 -10.94 C63.99 -7.79, 71.47 -6.31, 86.09 -0.73" stroke="#000000" stroke-width="1" fill="none"></path></g></g><g transform="translate(184.13171433538196 64) rotate(0 22 13)"><text x="0" y="18" font-family="Virgil, Segoe UI Emoji" font-size="20px" fill="#000000" text-anchor="start" style="white-space: pre;" direction="ltr">SUT</text></g><g transform="translate(158.13171433538196 326) rotate(0 45 13)"><text x="0" y="18" font-family="Virgil, Segoe UI Emoji" font-size="20px" fill="#000000" text-anchor="start" style="white-space: pre;" direction="ltr">SM model</text></g><g stroke-linecap="round"><g transform="translate(19.131714335381957 319) rotate(0 45.494435903839786 0.6355142493918606)"><path d="M1.17 -0.23 C16.36 0.26, 75.99 2.31, 90.66 2.67 M0.33 -1.4 C15.45 -1.23, 74.83 0.13, 90.06 0.9" stroke="#000000" stroke-width="1" fill="none"></path></g><g transform="translate(19.131714335381957 319) rotate(0 45.494435903839786 0.6355142493918606)"><path d="M61.15 11.29 C70.13 6.2, 76.33 5.66, 88.72 0.2 M60.76 10.16 C69.29 7.21, 77.21 4.08, 90.02 1.09" stroke="#000000" stroke-width="1" fill="none"></path></g><g transform="translate(19.131714335381957 319) rotate(0 45.494435903839786 0.6355142493918606)"><path d="M61.86 -9.22 C70.61 -8.94, 76.62 -4.12, 88.72 0.2 M61.46 -10.35 C69.7 -7.75, 77.43 -5.33, 90.02 1.09" stroke="#000000" stroke-width="1" fill="none"></path></g></g><g stroke-linecap="round"><g transform="translate(17.131714335381957 400) rotate(0 43.786445372812466 -0.3075768271088464)"><path d="M-0.51 -0.19 C13.77 -0.41, 71.35 -0.43, 85.93 -0.19 M1.42 -1.33 C16.04 -0.94, 73.96 0.06, 88.08 0.72" stroke="#000000" stroke-width="1" fill="none"></path></g><g transform="translate(17.131714335381957 400) rotate(0 43.786445372812466 -0.3075768271088464)"><path d="M59.28 8.35 C66.65 7.15, 78.12 5.67, 88.14 2.61 M59.87 10.34 C69.08 7.41, 77.42 4.81, 89.03 0.18" stroke="#000000" stroke-width="1" fill="none"></path></g><g transform="translate(17.131714335381957 400) rotate(0 43.786445372812466 -0.3075768271088464)"><path d="M59.9 -12.16 C67.26 -6.79, 78.53 -1.69, 88.14 2.61 M60.48 -10.17 C69.4 -6.5, 77.54 -2.49, 89.03 0.18" stroke="#000000" stroke-width="1" fill="none"></path></g></g><g stroke-linecap="round"><g transform="translate(323.13171433538196 322) rotate(0 39.38861066587265 -0.17454765923321247)"><path d="M-0.65 0.85 C12.42 0.46, 65.98 -0.91, 79.42 -1.2 M1.21 0.25 C14.07 0.56, 65.61 0.19, 78.7 0.24" stroke="#000000" stroke-width="1" fill="none"></path></g><g transform="translate(323.13171433538196 322) rotate(0 39.38861066587265 -0.17454765923321247)"><path d="M51.95 11.26 C60.95 8.39, 72.36 1.56, 79.65 1.89 M50.27 10.84 C59.51 6.29, 70.8 4.18, 79.59 0.51" stroke="#000000" stroke-width="1" fill="none"></path></g><g transform="translate(323.13171433538196 322) rotate(0 39.38861066587265 -0.17454765923321247)"><path d="M51.9 -9.26 C61.12 -4.23, 72.54 -3.16, 79.65 1.89 M50.22 -9.68 C59.52 -7.14, 70.82 -2.17, 79.59 0.51" stroke="#000000" stroke-width="1" fill="none"></path></g></g><g stroke-linecap="round"><g transform="translate(319.13171433538196 391) rotate(0 43.3918805676326 -2.0842472624033235)"><path d="M0.47 -0.4 C15.08 -0.95, 72.8 -3.51, 87.53 -3.76 M-0.75 -1.66 C13.68 -2.02, 71.46 -2.28, 86.34 -2.63" stroke="#000000" stroke-width="1" fill="none"></path></g><g transform="translate(319.13171433538196 391) rotate(0 43.3918805676326 -2.0842472624033235)"><path d="M57.61 7.22 C65.09 6.29, 76.14 0.1, 84.41 -4.59 M59.22 8.35 C68.68 4.41, 77.58 2.03, 87.23 -3.23" stroke="#000000" stroke-width="1" fill="none"></path></g><g transform="translate(319.13171433538196 391) rotate(0 43.3918805676326 -2.0842472624033235)"><path d="M57.35 -13.3 C64.81 -8.35, 75.94 -8.67, 84.41 -4.59 M58.96 -12.17 C68.63 -9.18, 77.62 -4.63, 87.23 -3.23" stroke="#000000" stroke-width="1" fill="none"></path></g></g><g transform="translate(16.131714335381957 36) rotate(0 23.5 13)"><text x="0" y="18" font-family="Virgil, Segoe UI Emoji" font-size="20px" fill="#000000" text-anchor="start" style="white-space: pre;" direction="ltr">input</text></g><g transform="translate(339.13171433538196 38) rotate(0 33.5 13)"><text x="0" y="18" font-family="Virgil, Segoe UI Emoji" font-size="20px" fill="#000000" text-anchor="start" style="white-space: pre;" direction="ltr">output</text></g><g transform="translate(19.131714335381957 287) rotate(0 23.5 13)"><text x="0" y="18" font-family="Virgil, Segoe UI Emoji" font-size="20px" fill="#000000" text-anchor="start" style="white-space: pre;" direction="ltr">input</text></g><g transform="translate(27.131714335381957 364) rotate(0 29.5 13)"><text x="0" y="18" font-family="Virgil, Segoe UI Emoji" font-size="20px" fill="#000000" text-anchor="start" style="white-space: pre;" direction="ltr">state</text></g><g transform="translate(337.13171433538196 283) rotate(0 33.5 13)"><text x="0" y="18" font-family="Virgil, Segoe UI Emoji" font-size="20px" fill="#000000" text-anchor="start" style="white-space: pre;" direction="ltr">output</text></g><g transform="translate(339.13171433538196 352) rotate(0 29.5 13)"><text x="0" y="18" font-family="Virgil, Segoe UI Emoji" font-size="20px" fill="#000000" text-anchor="start" style="white-space: pre;" direction="ltr">state</text></g></svg>