<svg version="1.1" xmlns="http://www.w3.org/2000/svg" viewBox="0 0 898.2247809028626 668" width="898.2247809028626" height="668">
  <!-- svg-source:excalidraw -->
  
  <defs>
    <style>
      @font-face {
        font-family: "Virgil";
        src: url("https://excalidraw.com/Virgil.woff2");
      }
      @font-face {
        font-family: "Cascadia";
        src: url("https://excalidraw.com/Cascadia.woff2");
      }
    </style>
  </defs>
  <rect x="0" y="0" width="898.2247809028626" height="668" fill="#ffffff"></rect><g stroke-linecap="round" transform="translate(239.97478090286256 48.5) rotate(0 224 229)"><path d="M-0.56 0.23 C138.68 1.03, 278.42 -0.3, 447.22 -0.49 M-0.17 -0.13 C115.29 -0.73, 230.72 -0.74, 448.04 -0.18 M447.84 0.02 C445.07 166.59, 445.59 332.07, 447.24 457.6 M447.79 0.29 C447.3 150.66, 446.51 301.83, 447.95 458.09 M448.58 457.52 C340.56 456.23, 232.88 455.35, -0.43 458.35 M447.57 458.35 C333.7 457.3, 219.21 457.25, -0.22 458.33 M-0.26 458.4 C1.73 300.43, 0.55 142.44, 0.39 0.9 M-0.37 457.8 C-0.82 351.46, -0.8 245.3, -0.04 0.22" stroke="#000000" stroke-width="1" fill="none"></path></g><g stroke-linecap="round" transform="translate(36.97478090286256 590.5) rotate(0 14.5 33)"><path d="M19.71 2.25 C22.66 4.41, 25.85 10.69, 27.46 16.8 C29.07 22.91, 29.93 31.96, 29.37 38.89 C28.8 45.83, 26.56 53.91, 24.07 58.43 C21.57 62.96, 17.53 66.32, 14.4 66.04 C11.27 65.77, 7.73 61.43, 5.29 56.77 C2.84 52.11, 0.3 44.96, -0.29 38.09 C-0.88 31.21, 0.1 21.74, 1.72 15.52 C3.35 9.3, 5.95 2.56, 9.46 0.77 C12.96 -1.01, 20.23 3.58, 22.75 4.82 C25.28 6.05, 24.74 7.77, 24.62 8.17 M18.43 1.5 C21.26 3.6, 25.89 10.85, 27.64 16.78 C29.38 22.72, 29.59 30.11, 28.88 37.11 C28.17 44.1, 25.53 54.1, 23.39 58.75 C21.25 63.4, 18.93 64.95, 16.04 64.99 C13.15 65.02, 8.87 63.38, 6.04 58.93 C3.21 54.49, -0.42 45.41, -0.95 38.32 C-1.49 31.23, 0.95 22.33, 2.85 16.39 C4.75 10.44, 7.74 4.95, 10.47 2.65 C13.2 0.36, 18 2.42, 19.23 2.61 C20.46 2.8, 18.04 3.62, 17.86 3.78" stroke="#000000" stroke-width="1" fill="none"></path></g><g stroke-linecap="round"><g transform="translate(54.97478090286256 591.5) rotate(0 153.35012449969537 -1.258616660879909)"><path d="M0.12 0.04 C51.41 -0.12, 256.51 -0.62, 307.97 -0.97 M-1.27 -0.99 C49.84 -1.46, 255.36 -2.59, 307.01 -2.55" stroke="#000000" stroke-width="1" fill="none"></path></g></g><g stroke-linecap="round"><g transform="translate(48.600913080051555 654.526325089857) rotate(0 157.96920624319466 -1.1730753704998733)"><path d="M-0.37 1.03 C52.48 0.69, 263.65 -1.1, 316.31 -1.52 M1.63 0.52 C54.49 -0.22, 263.63 -2.69, 315.86 -3.37" stroke="#000000" stroke-width="1" fill="none"></path></g></g><g stroke-linecap="round" transform="translate(344.47478090286256 587.5) rotate(0 14.5 33)"><path d="M21.65 3.97 C24.59 6.87, 27.4 14.43, 28.65 20.83 C29.9 27.23, 30.14 35.72, 29.15 42.36 C28.16 48.99, 25.48 56.83, 22.73 60.66 C19.99 64.49, 15.96 66.38, 12.69 65.32 C9.42 64.27, 5.18 59.71, 3.11 54.33 C1.04 48.96, 0.26 39.96, 0.26 33.1 C0.25 26.24, 1.14 18.4, 3.08 13.16 C5.03 7.91, 8.69 3.02, 11.94 1.61 C15.19 0.19, 20.91 3.72, 22.59 4.67 C24.26 5.62, 22.05 6.69, 22 7.33 M17.81 1.81 C20.49 2.82, 23.41 7.38, 25.16 12.35 C26.91 17.32, 28 24.93, 28.3 31.64 C28.6 38.34, 28.51 46.98, 26.93 52.59 C25.36 58.19, 21.96 63.64, 18.86 65.24 C15.76 66.85, 11.52 65.34, 8.36 62.2 C5.2 59.05, 0.95 53.07, -0.11 46.37 C-1.18 39.67, 0.89 28.86, 1.95 22 C3.02 15.13, 3.64 8.57, 6.26 5.16 C8.88 1.75, 16.15 2.29, 17.65 1.54 C19.15 0.78, 15.55 0.33, 15.26 0.65" stroke="#000000" stroke-width="1" fill="none"></path></g><g transform="translate(563.9747809028626 10) rotate(0 56.5 13)"><text x="0" y="18" font-family="Virgil, Segoe UI Emoji" font-size="20px" fill="#000000" text-anchor="start" style="white-space: pre;" direction="ltr">Web service</text></g><g stroke-linecap="round"><g transform="translate(10.974780902862562 89.5) rotate(0 106.7783736991882 -0.8666079591959743)"><path d="M0.32 0.23 C35.8 -0.04, 176.69 -1.95, 212.23 -1.97 M-0.97 -0.69 C34.95 -0.81, 178.87 -0.79, 214.53 -0.94" stroke="#000000" stroke-width="1" fill="none"></path></g><g transform="translate(10.974780902862562 89.5) rotate(0 106.7783736991882 -0.8666079591959743)"><path d="M186.75 8.08 C191.7 7.61, 202.16 2.78, 215.56 -0.35 M185.42 9.93 C197.49 5.76, 207.41 1.37, 215.41 -1.75" stroke="#000000" stroke-width="1" fill="none"></path></g><g transform="translate(10.974780902862562 89.5) rotate(0 106.7783736991882 -0.8666079591959743)"><path d="M186.71 -12.44 C191.62 -7.86, 202.08 -7.65, 215.56 -0.35 M185.39 -10.59 C197.45 -7.17, 207.38 -3.98, 215.41 -1.75" stroke="#000000" stroke-width="1" fill="none"></path></g></g><g transform="translate(50.97478090286256 48.5) rotate(0 40.5 13)"><text x="0" y="18" font-family="Virgil, Segoe UI Emoji" font-size="20px" fill="#000000" text-anchor="start" style="white-space: pre;" direction="ltr">Request</text></g><g stroke-linecap="round"><g transform="translate(256.97478090286256 86.5) rotate(0 190.07257737719715 141.42302179811298)"><path d="M-0.84 -0.89 C57.11 -0.32, 286.34 -45.79, 347.97 4.65 C409.6 55.1, 365.52 252.16, 368.94 301.77" stroke="#000000" stroke-width="1.5" fill="none" stroke-dasharray="8 9"></path></g><g transform="translate(256.97478090286256 86.5) rotate(0 190.07257737719715 141.42302179811298)"><path d="M359.28 272.85 C364.75 282.07, 365.88 290.54, 369.5 302.39" stroke="#000000" stroke-width="1.5" fill="none"></path></g><g transform="translate(256.97478090286256 86.5) rotate(0 190.07257737719715 141.42302179811298)"><path d="M379.75 274.35 C378.68 282.94, 373.29 290.94, 369.5 302.39" stroke="#000000" stroke-width="1.5" fill="none"></path></g></g><g transform="translate(139.97478090286256 609.5) rotate(0 55 13)"><text x="0" y="18" font-family="Virgil, Segoe UI Emoji" font-size="20px" fill="#000000" text-anchor="start" style="white-space: pre;" direction="ltr">Real queue</text></g><g stroke-linecap="round" transform="translate(293.97478090286256 150.5) rotate(0 103.5 67.5)"><path d="M-1.08 -0.37 C53.95 -0.32, 109.02 0.09, 205.47 0.89 M206.48 0.09 C204.64 48.64, 205.91 97.57, 205.67 136.51 M208.78 134.94 C152.44 136.21, 102.38 133.78, -1.32 135.78 M-1.41 134 C1.22 89.64, 0.3 45.72, 1.88 1.77" stroke="#000000" stroke-width="1.5" fill="none" stroke-dasharray="8 9"></path></g><g transform="translate(363.97478090286256 177.5) rotate(0 32.5 13)"><text x="0" y="18" font-family="Virgil, Segoe UI Emoji" font-size="20px" fill="#000000" text-anchor="start" style="white-space: pre;" direction="ltr">Worker</text></g><g stroke-linecap="round"><g transform="translate(282.97478090286256 180.5) rotate(0 -22.881389613077033 1.3419871579855567)"><path d="M0.11 0.71 C-7.57 0.98, -38.38 1.83, -45.87 1.97" stroke="#000000" stroke-width="1.5" fill="none" stroke-dasharray="8 9"></path></g><g transform="translate(282.97478090286256 180.5) rotate(0 -22.881389613077033 1.3419871579855567)"><path d="M-23.72 -7.69 C-31.55 -3.3, -38.83 -0.94, -44.27 0.26" stroke="#000000" stroke-width="1.5" fill="none"></path></g><g transform="translate(282.97478090286256 180.5) rotate(0 -22.881389613077033 1.3419871579855567)"><path d="M-23.34 7.71 C-31.34 7.23, -38.74 4.72, -44.27 0.26" stroke="#000000" stroke-width="1.5" fill="none"></path></g></g><g stroke-linecap="round"><g transform="translate(236.97478090286256 185.5) rotate(0 -112.5955468776636 -1.7601589191704932)"><path d="M-0.64 -0.39 C-38.44 -0.72, -188.02 -2.84, -225.65 -3.13 M1.22 -1.64 C-36.8 -1.77, -188.31 -2.31, -226.41 -2.19" stroke="#000000" stroke-width="1" fill="none"></path></g><g transform="translate(236.97478090286256 185.5) rotate(0 -112.5955468776636 -1.7601589191704932)"><path d="M-198.86 -11.84 C-211.27 -9.25, -220.7 -3.32, -226.72 -4.07 M-198.78 -12.09 C-207.48 -9, -217.11 -6.84, -227.28 -2.32" stroke="#000000" stroke-width="1" fill="none"></path></g><g transform="translate(236.97478090286256 185.5) rotate(0 -112.5955468776636 -1.7601589191704932)"><path d="M-198.88 8.68 C-211.08 3.22, -220.51 1.09, -226.72 -4.07 M-198.79 8.43 C-207.65 4.97, -217.27 0.58, -227.28 -2.32" stroke="#000000" stroke-width="1" fill="none"></path></g></g><g transform="translate(66.97478090286256 152.5) rotate(0 44 13)"><text x="0" y="18" font-family="Virgil, Segoe UI Emoji" font-size="20px" fill="#000000" text-anchor="start" style="white-space: pre;" direction="ltr">Response</text></g><g stroke-linecap="round" transform="translate(284.97478090286256 407.5) rotate(0 183 33.5)"><path d="M184.07 0.52 C242.04 8.79, 300.93 20.02, 365.71 32.68 M184.4 -0.93 C230.93 9.83, 279.28 18.84, 366.29 34.4 M367.86 32.68 C303.25 43.62, 239.13 58.17, 182.03 67.48 M365.77 33.55 C294.77 48.43, 224.66 61.7, 184.99 66.91 M182.42 67.1 C124.79 55.4, 66.18 45.9, 1.07 35.85 M184.05 67.29 C120.44 56.1, 56.58 42.84, -0.6 34.91 M0.68 32.84 C35.83 24.97, 74.59 20.22, 184.3 0.86 M0.56 33.44 C64.86 21.69, 131 9.1, 183.79 -0.89" stroke="#000000" stroke-width="1" fill="none"></path></g><g transform="translate(380.97478090286256 424.5) rotate(0 79 13)"><text x="0" y="18" font-family="Virgil, Segoe UI Emoji" font-size="20px" fill="#000000" text-anchor="start" style="white-space: pre;" direction="ltr">Queue interface</text></g><g stroke-linecap="round"><g transform="translate(324.97478090286256 423.5) rotate(0 0.6124616671353351 -62.962865709140914)"><path d="M-0.86 0.63 C-0.61 -20.66, 1.38 -105.35, 2.08 -126.55" stroke="#000000" stroke-width="1.5" fill="none" stroke-dasharray="8 9"></path></g><g transform="translate(324.97478090286256 423.5) rotate(0 0.6124616671353351 -62.962865709140914)"><path d="M12.61 -99.62 C7.02 -107.63, 3.61 -118.79, 0.84 -126.05" stroke="#000000" stroke-width="1.5" fill="none"></path></g><g transform="translate(324.97478090286256 423.5) rotate(0 0.6124616671353351 -62.962865709140914)"><path d="M-7.9 -100.18 C-6.25 -107.85, -2.43 -118.8, 0.84 -126.05" stroke="#000000" stroke-width="1.5" fill="none"></path></g></g><g stroke-linecap="round" transform="translate(551.7247809028626 592) rotate(0 14.5 33)"><path d="M13.33 -0.54 C16.18 -1.68, 18.84 1.95, 21.16 5.73 C23.48 9.52, 25.95 15.44, 27.26 22.17 C28.56 28.89, 30.02 39.26, 28.99 46.06 C27.96 52.86, 23.9 59.87, 21.08 62.96 C18.25 66.06, 15.18 66.33, 12.03 64.61 C8.88 62.9, 4.19 58.03, 2.19 52.7 C0.18 47.37, -0.25 39.58, -0.01 32.61 C0.24 25.64, 1.37 16.44, 3.67 10.89 C5.97 5.35, 12.19 0.93, 13.81 -0.64 C15.43 -2.2, 13.4 0.96, 13.4 1.52 M17.06 0.67 C19.8 1.49, 21.97 6.81, 24.14 12.31 C26.32 17.82, 29.87 26.59, 30.12 33.69 C30.38 40.78, 27.93 49.54, 25.66 54.87 C23.4 60.2, 19.49 64.65, 16.52 65.67 C13.55 66.7, 10.45 64.35, 7.86 61.02 C5.28 57.7, 2.27 52.16, 0.99 45.73 C-0.29 39.29, -0.8 29.2, 0.19 22.41 C1.18 15.63, 4.15 8.83, 6.91 5.02 C9.66 1.21, 15.12 0.18, 16.72 -0.45 C18.31 -1.09, 16.31 0.36, 16.49 1.2" stroke="#000000" stroke-width="1" fill="none"></path></g><g stroke-linecap="round"><g transform="translate(569.7247809028626 593) rotate(0 154.26451499532914 -1.635483283922099)"><path d="M-0.96 -0.36 C50.12 -0.91, 255.51 -2.46, 307.2 -2.91 M0.74 -1.59 C52.13 -2.05, 258.1 -1.73, 309.49 -1.86" stroke="#000000" stroke-width="1" fill="none"></path></g></g><g stroke-linecap="round"><g transform="translate(563.3509130800516 656.026325089857) rotate(0 158.16753808409908 -0.48298915086314764)"><path d="M-0.36 -0.8 C51.99 -0.79, 262.02 -0.46, 314.46 -0.85 M1.66 1.39 C54.34 1.19, 264.2 -1.73, 316.69 -2.35" stroke="#000000" stroke-width="1" fill="none"></path></g></g><g stroke-linecap="round" transform="translate(859.2247809028626 589) rotate(0 14.5 33)"><path d="M22.21 2.9 C24.99 6.01, 26.43 15.02, 27.6 21.68 C28.78 28.35, 30.01 36.28, 29.27 42.9 C28.52 49.53, 26.06 57.8, 23.13 61.43 C20.21 65.07, 15.11 65.77, 11.73 64.7 C8.35 63.63, 4.73 60.12, 2.85 55.03 C0.98 49.93, 0.47 41.09, 0.47 34.13 C0.47 27.17, 1.13 18.93, 2.84 13.24 C4.55 7.56, 7.41 1.38, 10.74 0.03 C14.07 -1.32, 20.99 4.08, 22.82 5.16 C24.65 6.24, 21.98 6.11, 21.71 6.5 M17.17 1.33 C20.31 1.86, 24.22 5.33, 26.38 10.13 C28.54 14.94, 30.14 23.03, 30.16 30.17 C30.17 37.3, 28.66 47.14, 26.46 52.96 C24.27 58.78, 19.94 63.59, 17.01 65.09 C14.07 66.59, 11.47 65.12, 8.84 61.96 C6.22 58.79, 2.6 52.48, 1.26 46.1 C-0.07 39.71, 0.11 30.45, 0.84 23.65 C1.57 16.85, 3.07 9, 5.64 5.31 C8.22 1.61, 14.39 2.13, 16.29 1.48 C18.19 0.83, 17.31 1.05, 17.05 1.41" stroke="#000000" stroke-width="1" fill="none"></path></g><g transform="translate(654.7247809028626 611) rotate(0 56 13)"><text x="0" y="18" font-family="Virgil, Segoe UI Emoji" font-size="20px" fill="#000000" text-anchor="start" style="white-space: pre;" direction="ltr">Fake queue</text></g><g stroke-linecap="round"><g transform="translate(239.97478090286256 581.5) rotate(0 62.424276845529675 -57.1323894370347)"><path d="M-0.04 -0.4 C20.81 -19.35, 104.16 -95.13, 124.89 -113.86" stroke="#000000" stroke-width="1.5" fill="none" stroke-dasharray="1.5 7"></path></g><g transform="translate(239.97478090286256 581.5) rotate(0 62.424276845529675 -57.1323894370347)"><path d="M123.5 -121.79 C125.24 -122.03, 128.79 -121.63, 130.32 -120.82 C131.85 -120.01, 132.49 -118.47, 132.68 -116.93 C132.87 -115.4, 132.2 -113.35, 131.46 -111.62 C130.72 -109.88, 129.78 -107.33, 128.24 -106.52 C126.71 -105.71, 124.03 -106.25, 122.24 -106.78 C120.46 -107.3, 118.42 -108.29, 117.53 -109.69 C116.64 -111.08, 116.67 -113.46, 116.88 -115.15 C117.09 -116.84, 117.41 -118.87, 118.81 -119.81 C120.22 -120.76, 124.1 -120.58, 125.31 -120.84 C126.52 -121.1, 126.03 -121.29, 126.04 -121.4" stroke="none" stroke-width="0" fill="#000000"></path></g></g><g stroke-linecap="round"><g transform="translate(694.9747809028626 587.5) rotate(0 -70.59657320491976 -60.18517467863859)"><path d="M-0.47 -0.52 C-23.9 -20.35, -117.3 -99.8, -140.72 -119.85" stroke="#000000" stroke-width="1.5" fill="none" stroke-dasharray="1.5 7"></path></g><g transform="translate(694.9747809028626 587.5) rotate(0 -70.59657320491976 -60.18517467863859)"><path d="M-143.6 -127.76 C-142.04 -128.31, -139.52 -127.71, -137.82 -127.13 C-136.11 -126.55, -134.2 -125.6, -133.37 -124.29 C-132.54 -122.98, -132.64 -120.98, -132.83 -119.26 C-133.01 -117.54, -133.28 -115.07, -134.49 -113.98 C-135.71 -112.88, -138.13 -112.77, -140.1 -112.68 C-142.07 -112.59, -145.04 -112.68, -146.31 -113.41 C-147.59 -114.15, -147.61 -115.6, -147.74 -117.08 C-147.87 -118.56, -147.89 -120.44, -147.1 -122.29 C-146.31 -124.13, -143.75 -127.46, -143 -128.16 C-142.26 -128.85, -142.67 -126.6, -142.63 -126.46" stroke="none" stroke-width="0" fill="#000000"></path></g></g><g stroke-linecap="round"><g transform="translate(413.97478090286256 619.5) rotate(0 44.14914474599061 -2.1505849966034134)"><path d="M-0.92 0.4 C14.14 -0.1, 74.37 -2.34, 89.22 -3.07 M0.79 -0.44 C15.82 -1.25, 73.41 -4.34, 88.39 -4.7" stroke="#000000" stroke-width="1" fill="none"></path></g></g><g stroke-linecap="round"><g transform="translate(417.47478090286256 641.5) rotate(0 44.24640237395653 -2.0473859775811434)"><path d="M0.81 0.11 C15.4 -0.69, 74.03 -3.55, 88.72 -4.21 M-0.23 -0.88 C14.08 -1.54, 72.89 -2.52, 87.62 -2.78" stroke="#000000" stroke-width="1" fill="none"></path></g></g><g transform="translate(450.97478090286256 580.5) rotate(0 5 13)"><text x="0" y="18" font-family="Virgil, Segoe UI Emoji" font-size="20px" fill="#000000" text-anchor="start" style="white-space: pre;" direction="ltr">?</text></g></svg>