<svg version="1.1" xmlns="http://www.w3.org/2000/svg" viewBox="0 0 855 567" width="1710" height="1134">
  <!-- svg-source:excalidraw -->
  
  <defs>
    <style class="style-fonts">
      @font-face {
        font-family: "Virgil";
        src: url("https://excalidraw.com/Virgil.woff2");
      }
      @font-face {
        font-family: "Cascadia";
        src: url("https://excalidraw.com/Cascadia.woff2");
      }
    </style>
  </defs>
  <rect x="0" y="0" width="855" height="567" fill="#ffffff"></rect><g stroke-linecap="round" transform="translate(231 222) rotate(0 78.5 67.5)"><path d="M32 0 M32 0 C65.57 1.35, 98.63 1.62, 125 0 M32 0 C62.37 -0.46, 94.14 -0.46, 125 0 M125 0 C145.72 0.71, 157.51 10.95, 157 32 M125 0 C145.72 2.22, 155.35 11.98, 157 32 M157 32 C155.66 55.12, 156.94 81.04, 157 103 M157 32 C157.48 57.03, 156.45 79.94, 157 103 M157 103 C156.83 122.7, 146.97 134.31, 125 135 M157 103 C155.25 124.21, 147.39 136.98, 125 135 M125 135 C99 134.21, 71.92 134.5, 32 135 M125 135 C93.91 134.6, 60.48 134.45, 32 135 M32 135 C9.77 134.91, 1.02 123.21, 0 103 M32 135 C10.57 134.34, 0.46 126.08, 0 103 M0 103 C-1.52 89.07, 0.27 70.97, 0 32 M0 103 C-0.22 75.35, -0.35 46.55, 0 32 M0 32 C1.34 8.72, 11.05 1.5, 32 0 M0 32 C-1.87 10.18, 11.44 -1.3, 32 0" stroke="#000000" stroke-width="1" fill="none"></path></g><g transform="translate(322 230) rotate(0 27.5 25.5)"><text x="0" y="18.5" font-family="Virgil, Segoe UI Emoji" font-size="20px" fill="#000000" text-anchor="start" style="white-space: pre;" direction="ltr">Data</text><text x="0" y="44" font-family="Virgil, Segoe UI Emoji" font-size="20px" fill="#000000" text-anchor="start" style="white-space: pre;" direction="ltr">store</text></g><g stroke-linecap="round" transform="translate(426.5 46.5) rotate(0 78.5 67.5)"><path d="M32 0 M32 0 C69.73 -0.4, 106.17 -1.57, 125 0 M32 0 C65.32 -0.45, 96.73 1.15, 125 0 M125 0 C146.21 -0.25, 158.26 9.2, 157 32 M125 0 C147.94 -1.46, 158.93 9.45, 157 32 M157 32 C157.58 52.83, 155.41 74.14, 157 103 M157 32 C156.02 57.27, 157.39 82.27, 157 103 M157 103 C157.37 125.86, 145.55 135.25, 125 135 M157 103 C154.71 124.73, 146.35 136.38, 125 135 M125 135 C90.05 133.64, 51.65 132.88, 32 135 M125 135 C105.81 135.02, 84.16 135.5, 32 135 M32 135 C10.96 135.57, -0.54 125.91, 0 103 M32 135 C12.29 134.06, -0.59 125.81, 0 103 M0 103 C0.84 78.17, -1.24 51.94, 0 32 M0 103 C0.16 78.23, -1.28 53.33, 0 32 M0 32 C1.43 11.33, 10 0.4, 32 0 M0 32 C-0.91 11.19, 11.54 1.16, 32 0" stroke="#000000" stroke-width="1" fill="none"></path></g><g transform="translate(517.5 54.5) rotate(0 27.5 25.5)"><text x="0" y="18.5" font-family="Virgil, Segoe UI Emoji" font-size="20px" fill="#000000" text-anchor="start" style="white-space: pre;" direction="ltr">Data</text><text x="0" y="44" font-family="Virgil, Segoe UI Emoji" font-size="20px" fill="#000000" text-anchor="start" style="white-space: pre;" direction="ltr">store</text></g><g stroke-linecap="round" transform="translate(433.5 376.5) rotate(0 78.5 67.5)"><path d="M32 0 M32 0 C57.22 0.41, 81.32 1.42, 125 0 M32 0 C67.1 0.8, 101.71 -0.76, 125 0 M125 0 C147.74 0.43, 156.32 10.14, 157 32 M125 0 C147.51 1.44, 158.15 12.06, 157 32 M157 32 C157.84 55.14, 155.74 77.35, 157 103 M157 32 C157.67 49.74, 156.81 68.97, 157 103 M157 103 C156.38 124.48, 148.22 134.34, 125 135 M157 103 C159.04 126.45, 144.1 137.2, 125 135 M125 135 C98.81 135.71, 73.74 134.45, 32 135 M125 135 C88.81 136.43, 53.59 136.57, 32 135 M32 135 C9.01 136.98, 0.01 124.32, 0 103 M32 135 C11.98 133.24, 1.21 122.95, 0 103 M0 103 C-1.71 82.26, -1.69 60.21, 0 32 M0 103 C-0.15 87.69, 0.83 69.59, 0 32 M0 32 C1.16 8.97, 11.04 -1.67, 32 0 M0 32 C-1.24 9.91, 10.81 -2.18, 32 0" stroke="#000000" stroke-width="1" fill="none"></path></g><g transform="translate(524.5 384.5) rotate(0 27.5 25.5)"><text x="0" y="18.5" font-family="Virgil, Segoe UI Emoji" font-size="20px" fill="#000000" text-anchor="start" style="white-space: pre;" direction="ltr">Data</text><text x="0" y="44" font-family="Virgil, Segoe UI Emoji" font-size="20px" fill="#000000" text-anchor="start" style="white-space: pre;" direction="ltr">store</text></g><g stroke-linecap="round" transform="translate(626.5 208.5) rotate(0 78.5 67.5)"><path d="M32 0 M32 0 C61.28 0.35, 88.39 0.68, 125 0 M32 0 C63.51 0.29, 94.91 0.32, 125 0 M125 0 C144.76 -1.06, 158.05 12.2, 157 32 M125 0 C144.62 -0.6, 159.15 12.19, 157 32 M157 32 C156.64 59.74, 156.01 83.86, 157 103 M157 32 C157.8 51.12, 157.64 71.83, 157 103 M157 103 C156.45 124.88, 148.11 133.34, 125 135 M157 103 C158.96 126.36, 144.48 137.17, 125 135 M125 135 C102.87 134.65, 79.01 136.95, 32 135 M125 135 C88.93 134.31, 55.07 134.72, 32 135 M32 135 C12.06 134.61, -0.85 125.05, 0 103 M32 135 C10.24 135.28, -1.9 123.8, 0 103 M0 103 C0.31 83.74, -1.49 64.46, 0 32 M0 103 C0.25 76.36, 0.33 47.85, 0 32 M0 32 C0.66 8.82, 12.01 0.54, 32 0 M0 32 C-1.14 12.85, 12.69 1.82, 32 0" stroke="#000000" stroke-width="1" fill="none"></path></g><g transform="translate(717.5 216.5) rotate(0 27.5 25.5)"><text x="0" y="18.5" font-family="Virgil, Segoe UI Emoji" font-size="20px" fill="#000000" text-anchor="start" style="white-space: pre;" direction="ltr">Data</text><text x="0" y="44" font-family="Virgil, Segoe UI Emoji" font-size="20px" fill="#000000" text-anchor="start" style="white-space: pre;" direction="ltr">store</text></g><g stroke-linecap="round"><g transform="translate(62 247) rotate(0 77.75295154361527 -0.144092908243465)"><path d="M0.54 -0.55 C26.52 -1.07, 130.24 -2.06, 156.14 -2.07 M-0.63 1.78 C25.17 1.89, 129.3 -0.34, 155.26 -1.1" stroke="#000000" stroke-width="1" fill="none"></path></g><g transform="translate(62 247) rotate(0 77.75295154361527 -0.144092908243465)"><path d="M126.42 10.08 C134.52 6.04, 145.98 0.64, 154.08 -1.15 M127.78 10.19 C134.19 6.89, 138.78 6.35, 154.97 -1.57" stroke="#000000" stroke-width="1" fill="none"></path></g><g transform="translate(62 247) rotate(0 77.75295154361527 -0.144092908243465)"><path d="M125.92 -10.44 C134.36 -7.82, 145.98 -6.56, 154.08 -1.15 M127.28 -10.33 C133.82 -9.3, 138.52 -5.51, 154.97 -1.57" stroke="#000000" stroke-width="1" fill="none"></path></g></g><mask></mask><g stroke-linecap="round"><g transform="translate(207 308) rotate(0 -71.83884067649944 -1.1998970663015598)"><path d="M-0.33 -0.1 C-24.58 -0.38, -120.61 -0.44, -144.96 -0.81 M1.69 -1.19 C-22.67 -1.85, -120.51 -2.31, -145.37 -2.3" stroke="#000000" stroke-width="1" fill="none"></path></g><g transform="translate(207 308) rotate(0 -71.83884067649944 -1.1998970663015598)"><path d="M-117.31 -10.75 C-124.76 -9.85, -136.96 -3.82, -145.7 -3.09 M-116.46 -13.33 C-124.62 -8.86, -133.63 -6.48, -146.22 -2.38" stroke="#000000" stroke-width="1" fill="none"></path></g><g transform="translate(207 308) rotate(0 -71.83884067649944 -1.1998970663015598)"><path d="M-117.37 9.77 C-124.96 3.64, -137.13 2.62, -145.7 -3.09 M-116.52 7.2 C-124.59 5.54, -133.58 1.8, -146.22 -2.38" stroke="#000000" stroke-width="1" fill="none"></path></g></g><mask></mask><g stroke-linecap="round" transform="translate(171 10) rotate(0 337 273.5)"><path d="M32 0 M32 0 C210.6 1.06, 388.06 0.96, 642 0 M642 0 C661.96 0.23, 675.27 10.64, 674 32 M674 32 C671.9 214.42, 672.84 398.82, 674 515 M674 515 C674.06 534.49, 663.58 546.69, 642 547 M642 547 C414.67 549.31, 187.25 548.01, 32 547 M32 547 C8.7 547.17, -0.88 534.69, 0 515 M0 515 C-1 327.78, -2.04 139.44, 0 32 M0 32 C-0.81 9.57, 12.61 0.86, 32 0" stroke="#000000" stroke-width="1.5" fill="none" stroke-dasharray="1.5 7"></path></g><g transform="translate(643 22) rotate(0 97.5 13)"><text x="0" y="18" font-family="Virgil, Segoe UI Emoji" font-size="20px" fill="#000000" text-anchor="start" style="white-space: pre;" direction="ltr">Distributed network</text></g><g stroke-linecap="round"><g transform="translate(370 220) rotate(0 28.629036624729565 -26.573087675869374)"><path d="M0.82 -0.63 C10.31 -9.23, 47.29 -44.07, 56.44 -52.52" stroke="#000000" stroke-width="1.5" fill="none" stroke-dasharray="8 9"></path></g><g transform="translate(370 220) rotate(0 28.629036624729565 -26.573087675869374)"><path d="M41.79 -25.05 C45.71 -33.27, 51.26 -37.91, 57.67 -52.78" stroke="#000000" stroke-width="1.5" fill="none"></path></g><g transform="translate(370 220) rotate(0 28.629036624729565 -26.573087675869374)"><path d="M27.78 -40.05 C35.23 -44.47, 44.42 -45.21, 57.67 -52.78" stroke="#000000" stroke-width="1.5" fill="none"></path></g></g><mask></mask><g stroke-linecap="round"><g transform="translate(449 186) rotate(0 -26.49416611939671 24.10725060254333)"><path d="M-0.57 0.34 C-9.5 8.37, -43.71 39.84, -52.42 47.88" stroke="#000000" stroke-width="1.5" fill="none" stroke-dasharray="8 9"></path></g><g transform="translate(449 186) rotate(0 -26.49416611939671 24.10725060254333)"><path d="M-38.07 22.21 C-46.01 32.01, -50.28 40.81, -51.94 47.83" stroke="#000000" stroke-width="1.5" fill="none"></path></g><g transform="translate(449 186) rotate(0 -26.49416611939671 24.10725060254333)"><path d="M-24.17 37.3 C-37.54 41.09, -47.29 43.94, -51.94 47.83" stroke="#000000" stroke-width="1.5" fill="none"></path></g></g><mask></mask><g stroke-linecap="round"><g transform="translate(402 270) rotate(0 103.18815222531555 -3.1039317920804024)"><path d="M-1.18 0.84 C33.45 -0.29, 172.59 -5.45, 207.56 -7.05" stroke="#000000" stroke-width="1.5" fill="none" stroke-dasharray="8 9"></path></g><g transform="translate(402 270) rotate(0 103.18815222531555 -3.1039317920804024)"><path d="M181.21 3.62 C189.23 2.51, 194.16 -2.74, 209.06 -6.32" stroke="#000000" stroke-width="1.5" fill="none"></path></g><g transform="translate(402 270) rotate(0 103.18815222531555 -3.1039317920804024)"><path d="M180.38 -16.89 C188.58 -12.22, 193.75 -11.7, 209.06 -6.32" stroke="#000000" stroke-width="1.5" fill="none"></path></g></g><mask></mask><g stroke-linecap="round"><g transform="translate(614 294) rotate(0 -110.02099551409492 8.525539128482365)"><path d="M-0.1 0.98 C-36.78 3.57, -183.38 13.41, -219.94 16.07" stroke="#000000" stroke-width="1.5" fill="none" stroke-dasharray="8 9"></path></g><g transform="translate(614 294) rotate(0 -110.02099551409492 8.525539128482365)"><path d="M-190.9 3.98 C-200.83 8.52, -207.84 9.84, -221.14 15.58" stroke="#000000" stroke-width="1.5" fill="none"></path></g><g transform="translate(614 294) rotate(0 -110.02099551409492 8.525539128482365)"><path d="M-189.47 24.45 C-199.94 22.67, -207.39 17.65, -221.14 15.58" stroke="#000000" stroke-width="1.5" fill="none"></path></g></g><mask></mask><g stroke-linecap="round"><g transform="translate(430 395) rotate(0 -29.032534973323436 -22.795697291195438)"><path d="M-0.66 -1.07 C-10.05 -8.39, -47.85 -37.17, -57.4 -44.52" stroke="#000000" stroke-width="1.5" fill="none" stroke-dasharray="8 9"></path></g><g transform="translate(430 395) rotate(0 -29.032534973323436 -22.795697291195438)"><path d="M-30.56 -36.21 C-35.68 -39.28, -42.83 -40.53, -58.52 -45.58" stroke="#000000" stroke-width="1.5" fill="none"></path></g><g transform="translate(430 395) rotate(0 -29.032534973323436 -22.795697291195438)"><path d="M-43.03 -19.91 C-45.42 -26.37, -49.93 -31.08, -58.52 -45.58" stroke="#000000" stroke-width="1.5" fill="none"></path></g></g><mask></mask><g stroke-linecap="round"><g transform="translate(393 347) rotate(0 28.429085843265057 13.802740247547717)"><path d="M0.97 -0.4 C10.27 4.24, 47.04 23.29, 55.89 28.01" stroke="#000000" stroke-width="1.5" fill="none" stroke-dasharray="8 9"></path></g><g transform="translate(393 347) rotate(0 28.429085843265057 13.802740247547717)"><path d="M25.48 25.49 C36.99 23.43, 46.02 25.96, 54.68 26.95" stroke="#000000" stroke-width="1.5" fill="none"></path></g><g transform="translate(393 347) rotate(0 28.429085843265057 13.802740247547717)"><path d="M35.01 7.31 C43.61 10.93, 49.71 19.04, 54.68 26.95" stroke="#000000" stroke-width="1.5" fill="none"></path></g></g><mask></mask><g stroke-linecap="round"><g transform="translate(565 379) rotate(0 28.486375148594334 -21.485202200710773)"><path d="M0.56 1.11 C10.12 -6.14, 47.2 -36.4, 56.41 -44.08" stroke="#000000" stroke-width="1.5" fill="none" stroke-dasharray="8 9"></path></g><g transform="translate(565 379) rotate(0 28.486375148594334 -21.485202200710773)"><path d="M43 -17.56 C46.22 -24.42, 48.13 -31.2, 56.76 -44.65" stroke="#000000" stroke-width="1.5" fill="none"></path></g><g transform="translate(565 379) rotate(0 28.486375148594334 -21.485202200710773)"><path d="M29.97 -33.41 C36.02 -36.79, 40.84 -40.04, 56.76 -44.65" stroke="#000000" stroke-width="1.5" fill="none"></path></g></g><mask></mask><g stroke-linecap="round"><g transform="translate(668 347) rotate(0 -31.93917630463841 30.22059880048039)"><path d="M0.75 1.12 C-9.99 11.19, -53.49 49.66, -64.63 59.32" stroke="#000000" stroke-width="1.5" fill="none" stroke-dasharray="8 9"></path></g><g transform="translate(668 347) rotate(0 -31.93917630463841 30.22059880048039)"><path d="M-48.35 33.63 C-54.06 38.79, -58.62 50.18, -63.75 61.2" stroke="#000000" stroke-width="1.5" fill="none"></path></g><g transform="translate(668 347) rotate(0 -31.93917630463841 30.22059880048039)"><path d="M-34.81 49.05 C-44.26 49.87, -52.7 56.84, -63.75 61.2" stroke="#000000" stroke-width="1.5" fill="none"></path></g></g><mask></mask><g stroke-linecap="round"><g transform="translate(481 377) rotate(0 1.5902738168836095 -92.59258521348238)"><path d="M0.85 -0.03 C1.1 -31.06, 2.02 -154.34, 2.33 -185.15" stroke="#000000" stroke-width="1.5" fill="none" stroke-dasharray="8 9"></path></g><g transform="translate(481 377) rotate(0 1.5902738168836095 -92.59258521348238)"><path d="M12.29 -157.99 C9.83 -167.72, 6.55 -179.04, 1.6 -185.85" stroke="#000000" stroke-width="1.5" fill="none"></path></g><g transform="translate(481 377) rotate(0 1.5902738168836095 -92.59258521348238)"><path d="M-8.23 -158.17 C-3.12 -167.97, 1.17 -179.23, 1.6 -185.85" stroke="#000000" stroke-width="1.5" fill="none"></path></g></g><mask></mask><g stroke-linecap="round"><g transform="translate(518 190) rotate(0 4.79268899708984 89.49057852476835)"><path d="M0.93 -0.82 C2.33 28.99, 7.55 149.65, 8.66 179.81" stroke="#000000" stroke-width="1.5" fill="none" stroke-dasharray="8 9"></path></g><g transform="translate(518 190) rotate(0 4.79268899708984 89.49057852476835)"><path d="M-4.11 153.15 C0.77 160.08, 4.86 171.06, 6.98 179.97" stroke="#000000" stroke-width="1.5" fill="none"></path></g><g transform="translate(518 190) rotate(0 4.79268899708984 89.49057852476835)"><path d="M16.4 152.32 C14.76 159.68, 12.32 170.92, 6.98 179.97" stroke="#000000" stroke-width="1.5" fill="none"></path></g></g><mask></mask><g stroke-linecap="round"><g transform="translate(635 221) rotate(0 -28.844334547221706 -19.37292893677943)"><path d="M0.67 0.1 C-8.95 -6.56, -48.55 -32.42, -58.36 -38.84" stroke="#000000" stroke-width="1.5" fill="none" stroke-dasharray="8 9"></path></g><g transform="translate(635 221) rotate(0 -28.844334547221706 -19.37292893677943)"><path d="M-28.99 -30.91 C-37.84 -32.11, -44.37 -35.45, -57.1 -39.78" stroke="#000000" stroke-width="1.5" fill="none"></path></g><g transform="translate(635 221) rotate(0 -28.844334547221706 -19.37292893677943)"><path d="M-40.23 -13.74 C-46.46 -19.25, -50.2 -26.84, -57.1 -39.78" stroke="#000000" stroke-width="1.5" fill="none"></path></g></g><mask></mask><g stroke-linecap="round"><g transform="translate(597 159) rotate(0 32.81496048718691 19.15767699927096)"><path d="M-0.44 -0.09 C10.57 6.22, 54.76 32, 66.07 38.41" stroke="#000000" stroke-width="1.5" fill="none" stroke-dasharray="8 9"></path></g><g transform="translate(597 159) rotate(0 32.81496048718691 19.15767699927096)"><path d="M36.37 31.67 C44.5 35.54, 53.39 36.71, 66.87 39.57" stroke="#000000" stroke-width="1.5" fill="none"></path></g><g transform="translate(597 159) rotate(0 32.81496048718691 19.15767699927096)"><path d="M46.61 13.89 C51.72 23.11, 57.51 29.66, 66.87 39.57" stroke="#000000" stroke-width="1.5" fill="none"></path></g></g><mask></mask><g transform="translate(12 204) rotate(0 70.5 13)"><text x="0" y="18" font-family="Virgil, Segoe UI Emoji" font-size="20px" fill="#000000" text-anchor="start" style="white-space: pre;" direction="ltr">Client request</text></g><g transform="translate(10 328) rotate(0 74.5 13)"><text x="0" y="18" font-family="Virgil, Segoe UI Emoji" font-size="20px" fill="#000000" text-anchor="start" style="white-space: pre;" direction="ltr">Client response</text></g><g transform="translate(287 148) rotate(0 46 25.5)"><text x="0" y="18.5" font-family="Virgil, Segoe UI Emoji" font-size="20px" fill="#000000" text-anchor="start" style="white-space: pre;" direction="ltr">"internal"</text><text x="0" y="44" font-family="Virgil, Segoe UI Emoji" font-size="20px" fill="#000000" text-anchor="start" style="white-space: pre;" direction="ltr">messages</text></g></svg>