<svg version="1.1" xmlns="http://www.w3.org/2000/svg" viewBox="0 0 1091.7944415377451 604" width="1091.7944415377451" height="604">
  <!-- svg-source:excalidraw -->
  
  <defs>
    <style>
      @font-face {
        font-family: "Virgil";
        src: url("https://excalidraw.com/Virgil.woff2");
      }
      @font-face {
        font-family: "Cascadia";
        src: url("https://excalidraw.com/Cascadia.woff2");
      }
    </style>
  </defs>
  <rect x="0" y="0" width="1091.7944415377451" height="604" fill="#ffffff"></rect><g stroke-linecap="round" transform="translate(196.06851948741814 68) rotate(0 369 263)"><path d="M0.5 -0.01 C237.18 -2.59, 475.46 -2.19, 737.34 -0.2 M-0.29 0.32 C257.82 0.5, 516.3 0.81, 737.7 -0.25 M737.73 -0.26 C738.25 183.22, 738.9 365.07, 737.57 526.27 M738.13 -0.17 C739.84 145.15, 740.17 290.57, 738.08 525.79 M737.77 526.07 C487.95 528.96, 238.27 527.83, 0.26 525.28 M738.05 526.33 C548.84 526.75, 359.79 526.58, -0.01 526.28 M-0.32 525.22 C1.21 420.51, 1.28 315.34, 0.59 0.7 M-0.3 525.96 C-0.08 327.29, 0.23 128.37, -0.38 -0.02" stroke="#000000" stroke-width="1" fill="none"></path></g><g transform="translate(753.0685194874181 10) rotate(0 92.5 25.5)"><text x="0" y="18.5" font-family="Virgil, Segoe UI Emoji" font-size="20px" fill="#000000" text-anchor="start" style="white-space: pre;" direction="ltr">SM model fake</text><text x="0" y="44" font-family="Virgil, Segoe UI Emoji" font-size="20px" fill="#000000" text-anchor="start" style="white-space: pre;" direction="ltr">with fault-injection</text></g><g stroke-linecap="round" transform="translate(503.06851948741814 205) rotate(0 99 88)"><path d="M-1.85 0.4 C46.53 -3.7, 95.77 -0.35, 198.41 1.62 M-0.45 -0.33 C73 -1.99, 145.64 -0.87, 198.82 0.76 M197.84 0.57 C197.66 41.69, 196.57 82.05, 196.39 176.08 M198.97 -0.51 C195.76 46.89, 195.62 93.73, 197.13 175.75 M199.42 176.58 C124.59 176.82, 49.21 175.65, 0.21 174.41 M198.34 176.7 C142.03 173.8, 87.58 174.56, -0.21 176.18 M1.71 177.47 C0.21 110.12, -1.14 46.48, -0.76 0.06 M-0.96 176.62 C-1.22 111.68, -1.81 47.46, -0.03 0.37" stroke="#000000" stroke-width="1" fill="none"></path></g><g transform="translate(545.0685194874181 258) rotate(0 45 13)"><text x="0" y="18" font-family="Virgil, Segoe UI Emoji" font-size="20px" fill="#000000" text-anchor="start" style="white-space: pre;" direction="ltr">SM model</text></g><g stroke-linecap="round"><g transform="translate(406.06851948741814 251) rotate(0 44.9103890195488 0.5374937068298493)"><path d="M0.24 -0.43 C14.87 0.22, 73.72 2.33, 88.82 2.77 M-1.09 -1.7 C13.8 -1.29, 75.65 0.15, 90.91 1.05" stroke="#000000" stroke-width="1" fill="none"></path></g><g transform="translate(406.06851948741814 251) rotate(0 44.9103890195488 0.5374937068298493)"><path d="M61.64 8.25 C74.78 7.99, 84.97 4.68, 92.23 2.31 M62.91 9.33 C73.31 7.28, 83.49 4.57, 90.24 0.88" stroke="#000000" stroke-width="1" fill="none"></path></g><g transform="translate(406.06851948741814 251) rotate(0 44.9103890195488 0.5374937068298493)"><path d="M62.42 -12.25 C75.07 -4.57, 84.96 0.06, 92.23 2.31 M63.7 -11.18 C73.72 -5.95, 83.62 -1.38, 90.24 0.88" stroke="#000000" stroke-width="1" fill="none"></path></g></g><g stroke-linecap="round"><g transform="translate(404.06851948741814 332) rotate(0 43.672099666669965 0.3230098258704004)"><path d="M-0.43 -1.18 C14.39 -0.92, 73.16 1.3, 87.77 1.83 M1.55 0.81 C16.37 0.72, 73.05 0.25, 87.23 0.14" stroke="#000000" stroke-width="1" fill="none"></path></g><g transform="translate(404.06851948741814 332) rotate(0 43.672099666669965 0.3230098258704004)"><path d="M57.15 11.91 C66.3 8.96, 72.37 7.7, 88.49 1.24 M58.22 11.41 C66.53 8.62, 74.23 4.46, 87.05 0.6" stroke="#000000" stroke-width="1" fill="none"></path></g><g transform="translate(404.06851948741814 332) rotate(0 43.672099666669965 0.3230098258704004)"><path d="M56.98 -8.61 C66.21 -7.3, 72.32 -4.32, 88.49 1.24 M58.06 -9.11 C66.34 -6.68, 74.08 -5.61, 87.05 0.6" stroke="#000000" stroke-width="1" fill="none"></path></g></g><g stroke-linecap="round"><g transform="translate(710.0685194874181 254) rotate(0 39.32300982587037 -0.9898041870817451)"><path d="M-1.18 0.77 C12.08 0.72, 66.3 -0.59, 79.83 -0.76 M0.4 0.13 C13.56 -0.27, 66.09 -2.37, 79.31 -2.75" stroke="#000000" stroke-width="1" fill="none"></path></g><g transform="translate(710.0685194874181 254) rotate(0 39.32300982587037 -0.9898041870817451)"><path d="M52.78 9.87 C60.85 6.78, 70.67 2.82, 80.41 -3.66 M52.28 8.71 C59.69 6.5, 65.64 2.56, 79.77 -2.83" stroke="#000000" stroke-width="1" fill="none"></path></g><g transform="translate(710.0685194874181 254) rotate(0 39.32300982587037 -0.9898041870817451)"><path d="M52.07 -10.64 C60.29 -7.15, 70.34 -4.54, 80.41 -3.66 M51.56 -11.8 C59.28 -8.52, 65.42 -6.98, 79.77 -2.83" stroke="#000000" stroke-width="1" fill="none"></path></g></g><g stroke-linecap="round"><g transform="translate(706.0685194874181 323) rotate(0 43.97989153732544 -1.4063528490532349)"><path d="M0.77 0.83 C15.55 0.69, 73.57 -1.52, 88.24 -2.03 M-0.28 0.22 C14.39 -0.14, 72.64 -2.91, 87.42 -3.64" stroke="#000000" stroke-width="1" fill="none"></path></g><g transform="translate(706.0685194874181 323) rotate(0 43.97989153732544 -1.4063528490532349)"><path d="M61.14 8.37 C68.81 6.03, 75.77 2.75, 86.52 -4.29 M59.98 8.78 C70.5 2.94, 79.43 -0.08, 87.34 -3.36" stroke="#000000" stroke-width="1" fill="none"></path></g><g transform="translate(706.0685194874181 323) rotate(0 43.97989153732544 -1.4063528490532349)"><path d="M60.15 -12.13 C67.88 -9.05, 75.1 -6.91, 86.52 -4.29 M59 -11.72 C69.68 -10.26, 78.97 -5.96, 87.34 -3.36" stroke="#000000" stroke-width="1" fill="none"></path></g></g><g stroke-linecap="round" transform="translate(506.06851948741814 451) rotate(0 100.5 44.5)"><path d="M0.4 1.47 C73.09 -2.61, 143.13 -0.59, 200.85 0.51 M-0.01 -0.72 C60.06 0.73, 119.21 0.94, 201.87 -0.46 M199.38 -1.73 C200.16 22.97, 199.82 42.1, 202.42 89.58 M201.14 0.1 C200.85 35.02, 201.22 69.71, 201.34 89.7 M200.99 88.63 C150.2 91.4, 98.78 89.76, 1.54 90.32 M201.8 88.66 C138.13 88.6, 75.86 88.73, -0.86 89.56 M0.04 88.94 C0.77 63.05, 1.99 33.87, -1.46 -0.5 M0.52 88.55 C-0.33 60.74, 0.57 33.31, 0.9 0.28" stroke="#000000" stroke-width="1" fill="none"></path></g><g stroke-linecap="round"><g transform="translate(798.0685194874181 319) rotate(0 -4.15386561558546 96.52707377586663)"><path d="M0.88 0.03 C10.88 1.17, 49.28 -24.66, 59.78 7.03 C70.28 38.72, 87.87 160.77, 63.88 190.16 C39.9 219.54, -59.67 184.44, -84.13 183.34" stroke="#000000" stroke-width="1.5" fill="none" stroke-dasharray="8 9"></path></g><g transform="translate(798.0685194874181 319) rotate(0 -4.15386561558546 96.52707377586663)"><path d="M-54.44 178.35 C-61.05 181.69, -70.79 181.29, -85.23 185.12" stroke="#000000" stroke-width="1.5" fill="none"></path></g><g transform="translate(798.0685194874181 319) rotate(0 -4.15386561558546 96.52707377586663)"><path d="M-58.4 198.49 C-63.94 196.17, -72.57 190.15, -85.23 185.12" stroke="#000000" stroke-width="1.5" fill="none"></path></g></g><g transform="translate(573.0685194874181 482) rotate(0 29.5 13)"><text x="0" y="18" font-family="Virgil, Segoe UI Emoji" font-size="20px" fill="#000000" text-anchor="start" style="white-space: pre;" direction="ltr">state</text></g><g stroke-linecap="round"><g transform="translate(306.06851948741814 248) rotate(0 44.56171974372114 0.7737491654232258)"><path d="M0.47 -0.04 C15.31 0.1, 74.09 1.39, 88.65 1.59" stroke="#000000" stroke-width="1.5" fill="none" stroke-dasharray="8 9"></path></g><g transform="translate(306.06851948741814 248) rotate(0 44.56171974372114 0.7737491654232258)"><path d="M60.21 11.88 C69.26 7.71, 76.21 5.95, 88.21 3.32" stroke="#000000" stroke-width="1.5" fill="none"></path></g><g transform="translate(306.06851948741814 248) rotate(0 44.56171974372114 0.7737491654232258)"><path d="M60.58 -8.64 C69.65 -7.23, 76.51 -3.4, 88.21 3.32" stroke="#000000" stroke-width="1.5" fill="none"></path></g></g><g stroke-linecap="round"><g transform="translate(795.0685194874181 253) rotate(0 67.75672239176924 -0.5534269046038389)"><path d="M-0.62 -0.53 C22.02 -0.63, 113.44 -0.47, 136.13 -0.58" stroke="#000000" stroke-width="1.5" fill="none" stroke-dasharray="8 9"></path></g><g transform="translate(795.0685194874181 253) rotate(0 67.75672239176924 -0.5534269046038389)"><path d="M107.07 9.93 C117.8 5.74, 125.91 2.82, 135.21 0.13" stroke="#000000" stroke-width="1.5" fill="none"></path></g><g transform="translate(795.0685194874181 253) rotate(0 67.75672239176924 -0.5534269046038389)"><path d="M107.04 -10.59 C117.78 -8.13, 125.9 -4.4, 135.21 0.13" stroke="#000000" stroke-width="1.5" fill="none"></path></g></g><g stroke-linecap="round" transform="translate(399.06851948741814 164) rotate(0 202 119)"><path d="M-0.34 -0.57 C101.8 -0.19, 203.12 -0.99, 403.48 -0.71 M404.17 -0.71 C404.87 62.95, 402.04 130.61, 404.18 239.63 M404.49 237.59 C252.82 239.81, 101.29 240.22, 0.62 238.82 M-1.05 236.45 C-1.68 152.23, 0.02 67.39, 0.31 0.77" stroke="#000000" stroke-width="1.5" fill="none" stroke-dasharray="1.5 7"></path></g><g stroke-linecap="round"><g transform="translate(135.06851948741814 247) rotate(0 27.04175688710069 0.5246583670476923)"><path d="M-0.93 -0.76 C7.76 -0.87, 43.73 -0.12, 52.89 0.25 M0.78 1.46 C9.77 1.46, 46.27 2.02, 55.01 1.73" stroke="#000000" stroke-width="1" fill="none"></path></g><g transform="translate(135.06851948741814 247) rotate(0 27.04175688710069 0.5246583670476923)"><path d="M28.43 9.24 C38.56 7.94, 49.73 5.7, 55.39 2.65 M30.06 11.08 C36.22 7.93, 44.18 5.14, 54.17 2.66" stroke="#000000" stroke-width="1" fill="none"></path></g><g transform="translate(135.06851948741814 247) rotate(0 27.04175688710069 0.5246583670476923)"><path d="M28.34 -9.23 C38.64 -3.87, 49.84 0.55, 55.39 2.65 M29.96 -7.39 C36.13 -5.55, 44.13 -3.35, 54.17 2.66" stroke="#000000" stroke-width="1" fill="none"></path></g></g><g stroke-linecap="round"><g transform="translate(940.0685194874181 251.92225893344084) rotate(0 70.53786244262005 0.009966968209511151)"><path d="M-0.65 -0.87 C23.15 -1.1, 117.89 -1.37, 141.73 -1.24 M1.21 1.29 C24.93 1.2, 117.26 0.56, 140.71 -0.02" stroke="#000000" stroke-width="1" fill="none"></path></g><g transform="translate(940.0685194874181 251.92225893344084) rotate(0 70.53786244262005 0.009966968209511151)"><path d="M111.22 10.42 C117.56 9.43, 125.37 6.29, 139.39 -0.56 M112.38 9.72 C117.38 7.58, 124.57 5.27, 140.7 0.82" stroke="#000000" stroke-width="1" fill="none"></path></g><g transform="translate(940.0685194874181 251.92225893344084) rotate(0 70.53786244262005 0.009966968209511151)"><path d="M110.92 -10.1 C117.35 -6.76, 125.23 -5.57, 139.39 -0.56 M112.08 -10.8 C117.06 -8.8, 124.3 -6.98, 140.7 0.82" stroke="#000000" stroke-width="1" fill="none"></path></g></g><g transform="translate(17.068519487418143 178) rotate(0 23.5 13)"><text x="0" y="18" font-family="Virgil, Segoe UI Emoji" font-size="20px" fill="#000000" text-anchor="start" style="white-space: pre;" direction="ltr">input</text></g><g transform="translate(960.5685194874181 209) rotate(0 33.5 13)"><text x="0" y="18" font-family="Virgil, Segoe UI Emoji" font-size="20px" fill="#000000" text-anchor="start" style="white-space: pre;" direction="ltr">output</text></g><g stroke-linecap="round" transform="translate(100 234.5) rotate(0 17.5 18)"><path d="M18.75 -0.79 C22.49 -0.67, 26.66 2.85, 29.27 5.47 C31.88 8.08, 33.97 11.16, 34.43 14.91 C34.9 18.66, 34.06 24.69, 32.07 27.98 C30.07 31.27, 26.09 33.56, 22.47 34.66 C18.85 35.75, 13.88 35.98, 10.35 34.58 C6.81 33.17, 3.07 29.61, 1.27 26.23 C-0.54 22.85, -1.39 18.1, -0.48 14.3 C0.42 10.5, 2.91 5.53, 6.67 3.43 C10.43 1.34, 18.83 1.87, 22.07 1.73 C25.32 1.59, 26.08 2.46, 26.12 2.57 M14.44 -0.71 C17.83 -1.17, 22.96 1.68, 26.07 3.73 C29.19 5.77, 31.72 7.81, 33.13 11.56 C34.54 15.3, 35.68 22.39, 34.54 26.21 C33.4 30.04, 29.96 32.7, 26.28 34.49 C22.6 36.28, 16.37 37.75, 12.45 36.95 C8.53 36.15, 4.81 32.95, 2.78 29.69 C0.75 26.43, 0.02 21.23, 0.26 17.39 C0.49 13.55, 1.79 9.36, 4.19 6.63 C6.59 3.91, 12.83 2.12, 14.67 1.05 C16.51 -0.01, 14.86 -0.15, 15.23 0.23" stroke="#2b8a3e" stroke-width="1" fill="none"></path></g><g transform="translate(105 239.5) rotate(0 12.5 13)"><text x="12.5" y="18" font-family="Virgil, Segoe UI Emoji" font-size="20px" fill="#2b8a3e" text-anchor="middle" style="white-space: pre;" direction="ltr">+</text></g><g stroke-linecap="round"><g transform="translate(48 207.5) rotate(0 25.929473870992695 17.53322668671609)"><path d="M-0.87 -0.91 C8.04 4.97, 43.82 29.93, 52.73 35.98 M0.87 1.22 C9.75 6.73, 43.61 29.03, 52.17 34.37" stroke="#000000" stroke-width="1" fill="none"></path></g></g><g transform="translate(10 313.5) rotate(0 69 13)"><text x="0" y="18" font-family="Virgil, Segoe UI Emoji" font-size="20px" fill="#2b8a3e" text-anchor="start" style="white-space: pre;" direction="ltr">fault-injection</text></g><g stroke-linecap="round"><g transform="translate(56 300.5) rotate(0 24.469160870844462 -16.255603465223686)"><path d="M1.04 -0.75 C8.78 -6.05, 38.63 -26.89, 46.41 -32.25 M0.12 1.47 C8.27 -4.13, 40.95 -28.48, 48.82 -33.98" stroke="#2b8a3e" stroke-width="1" fill="none"></path></g></g><g stroke-linecap="round" transform="translate(234 159.5) rotate(0 37 120.5)"><path d="M-1.4 1.2 C15.94 1.23, 34.55 1.53, 74.61 -0.62 M-0.29 -0.84 C20.34 0.66, 39.27 0.46, 74.32 0.67 M72.99 -1.31 C72.22 70.46, 72.6 139.96, 72.42 242.64 M73.47 0.76 C72.96 71.46, 72.22 144.66, 74.48 241.7 M75.22 242.14 C53.94 239.91, 35.23 241.72, -0.41 239.27 M74.55 241.72 C46.02 240.8, 15.45 240.02, 0.28 240.78 M0.94 241.59 C1.46 171.51, 0.7 102.47, 0.75 0.46 M0.73 241.24 C-0.91 168.2, -1.74 94.69, 0.82 0.42" stroke="#2b8a3e" stroke-width="1" fill="none"></path></g><g stroke-linecap="round"><g transform="translate(198 249.5) rotate(0 17.424488443136283 0.38163862824438866)"><path d="M1.19 -0.1 C6.97 -0.14, 28.18 0.87, 33.66 0.86" stroke="#000000" stroke-width="1.5" fill="none" stroke-dasharray="8 9"></path></g><g transform="translate(198 249.5) rotate(0 17.424488443136283 0.38163862824438866)"><path d="M17.88 7.02 C22.5 6.34, 24.43 2.46, 32.15 1.33" stroke="#000000" stroke-width="1.5" fill="none"></path></g><g transform="translate(198 249.5) rotate(0 17.424488443136283 0.38163862824438866)"><path d="M18.17 -4.26 C22.82 -2.53, 24.69 -4, 32.15 1.33" stroke="#000000" stroke-width="1.5" fill="none"></path></g></g><g transform="translate(241 168.5) rotate(0 31.5 13)"><text x="0" y="18" font-family="Virgil, Segoe UI Emoji" font-size="20px" fill="#000000" text-anchor="start" style="white-space: pre;" direction="ltr">faults</text></g><g stroke-linecap="round"><g transform="translate(503 502.5) rotate(0 -129.01320537161826 -43.607020888757745)"><path d="M-1.09 1.11 C-41.11 2, -201.05 20.83, -240.3 4.27 C-279.55 -12.29, -237.26 -81.31, -236.59 -98.27" stroke="#000000" stroke-width="1.5" fill="none" stroke-dasharray="8 9"></path></g><g transform="translate(503 502.5) rotate(0 -129.01320537161826 -43.607020888757745)"><path d="M-233.6 -67.13 C-235.05 -77.81, -236.28 -85.87, -235.75 -97.66" stroke="#000000" stroke-width="1.5" fill="none"></path></g><g transform="translate(503 502.5) rotate(0 -129.01320537161826 -43.607020888757745)"><path d="M-253.14 -73.41 C-249.1 -82.13, -244.78 -88.41, -235.75 -97.66" stroke="#000000" stroke-width="1.5" fill="none"></path></g></g><g stroke-linecap="round"><g transform="translate(310 330.5) rotate(0 43.419363695383026 0.9049398362636509)"><path d="M-0.44 0.48 C14.24 0.7, 72.73 1.32, 87.28 1.33" stroke="#000000" stroke-width="1.5" fill="none" stroke-dasharray="8 9"></path></g><g transform="translate(310 330.5) rotate(0 43.419363695383026 0.9049398362636509)"><path d="M59.82 11.87 C66.13 8.88, 71.32 7.67, 87.09 0.37" stroke="#000000" stroke-width="1.5" fill="none"></path></g><g transform="translate(310 330.5) rotate(0 43.419363695383026 0.9049398362636509)"><path d="M59.95 -8.65 C66.23 -6.88, 71.39 -3.32, 87.09 0.37" stroke="#000000" stroke-width="1.5" fill="none"></path></g></g><g stroke-linecap="round"><g transform="translate(343 247.5) rotate(0 258.9709176422849 -67.72043433785439)"><path d="M1.09 1.29 C0.57 -48.67, 3.05 -93.29, 6.84 -140.18 M4.31 -138.69 C123.39 -137.04, 243.28 -137.11, 504.8 -137.72 M503.16 -136.55 C508.95 -88.45, 511.59 -40.06, 516.92 4.74" stroke="#2b8a3e" stroke-width="1.5" fill="none" stroke-dasharray="8 9"></path></g><g transform="translate(343 247.5) rotate(0 258.9709176422849 -67.72043433785439)"><path d="M504.92 -20.96 C507.15 -15.25, 512.35 -4.17, 518.76 3.56" stroke="#2b8a3e" stroke-width="1.5" fill="none"></path></g><g transform="translate(343 247.5) rotate(0 258.9709176422849 -67.72043433785439)"><path d="M525.34 -23.06 C520.72 -16.56, 519.06 -4.77, 518.76 3.56" stroke="#2b8a3e" stroke-width="1.5" fill="none"></path></g></g><g transform="translate(344 249.5) rotate(0 0.00004999999998744897 0.00004999999998744897)" stroke="none"><path fill="#000000" d="M 1.57,-1.57 Q 1.57,-1.57 1.77,-1.27 1.98,-0.98 2.09,-0.64 2.20,-0.29 2.19,0.05 2.18,0.41 2.05,0.75 1.93,1.09 1.70,1.37 1.48,1.65 1.18,1.84 0.87,2.04 0.52,2.12 0.18,2.21 -0.17,2.18 -0.53,2.15 -0.86,2.01 -1.19,1.87 -1.46,1.63 -1.73,1.39 -1.90,1.07 -2.08,0.76 -2.15,0.41 -2.21,0.05 -2.17,-0.29 -2.12,-0.65 -1.96,-0.97 -1.80,-1.29 -1.54,-1.54 -1.29,-1.80 -0.97,-1.96 -0.65,-2.12 -0.29,-2.17 0.06,-2.21 0.41,-2.15 0.76,-2.08 1.07,-1.90 1.39,-1.73 1.63,-1.46 1.87,-1.19 2.01,-0.86 2.15,-0.53 2.18,-0.17 2.21,0.18 2.12,0.52 2.03,0.87 1.84,1.18 1.65,1.48 1.37,1.70 1.09,1.93 0.75,2.05 0.41,2.18 0.05,2.19 -0.30,2.20 -0.64,2.09 -0.98,1.98 -1.27,1.77 -1.57,1.56 -1.57,1.57 -1.57,1.57 -1.73,1.35 -1.90,1.14 -2.01,0.90 -2.12,0.66 -2.16,0.39 -2.21,0.13 -2.20,-0.13 -2.18,-0.40 -2.10,-0.65 -2.02,-0.91 -1.88,-1.14 -1.74,-1.36 -1.55,-1.55 -1.36,-1.74 -1.14,-1.88 -0.91,-2.02 -0.65,-2.10 -0.40,-2.18 -0.13,-2.20 0.13,-2.21 0.39,-2.16 0.66,-2.12 0.90,-2.01 1.14,-1.90 1.35,-1.73 1.57,-1.57 1.57,-1.57 L 1.57,-1.57 Z"></path></g><g transform="translate(863 253.5) rotate(0 0.00004999999998744897 0.00004999999998744897)" stroke="none"><path fill="#000000" d="M 1.57,-1.57 Q 1.57,-1.57 1.77,-1.27 1.98,-0.98 2.09,-0.64 2.20,-0.29 2.19,0.05 2.18,0.41 2.05,0.75 1.93,1.09 1.70,1.37 1.48,1.65 1.18,1.84 0.87,2.04 0.52,2.12 0.18,2.21 -0.17,2.18 -0.53,2.15 -0.86,2.01 -1.19,1.87 -1.46,1.63 -1.73,1.39 -1.90,1.07 -2.08,0.76 -2.15,0.41 -2.21,0.05 -2.17,-0.29 -2.12,-0.65 -1.96,-0.97 -1.80,-1.29 -1.54,-1.54 -1.29,-1.80 -0.97,-1.96 -0.65,-2.12 -0.29,-2.17 0.06,-2.21 0.41,-2.15 0.76,-2.08 1.07,-1.90 1.39,-1.73 1.63,-1.46 1.87,-1.19 2.01,-0.86 2.15,-0.53 2.18,-0.17 2.21,0.18 2.12,0.52 2.03,0.87 1.84,1.18 1.65,1.48 1.37,1.70 1.09,1.93 0.75,2.05 0.41,2.18 0.05,2.19 -0.30,2.20 -0.64,2.09 -0.98,1.98 -1.27,1.77 -1.57,1.56 -1.57,1.57 -1.57,1.57 -1.73,1.35 -1.90,1.14 -2.01,0.90 -2.12,0.66 -2.16,0.39 -2.21,0.13 -2.20,-0.13 -2.18,-0.40 -2.10,-0.65 -2.02,-0.91 -1.88,-1.14 -1.74,-1.36 -1.55,-1.55 -1.36,-1.74 -1.14,-1.88 -0.91,-2.02 -0.65,-2.10 -0.40,-2.18 -0.13,-2.20 0.13,-2.21 0.39,-2.16 0.66,-2.12 0.90,-2.01 1.14,-1.90 1.35,-1.73 1.57,-1.57 1.57,-1.57 L 1.57,-1.57 Z"></path></g></svg>