<svg version="1.1" xmlns="http://www.w3.org/2000/svg" viewBox="0 0 967.6567823123186 546" width="967.6567823123186" height="546">
  <!-- svg-source:excalidraw -->
  
  <defs>
    <style>
      @font-face {
        font-family: "Virgil";
        src: url("https://excalidraw.com/Virgil.woff2");
      }
      @font-face {
        font-family: "Cascadia";
        src: url("https://excalidraw.com/Cascadia.woff2");
      }
    </style>
  </defs>
  <rect x="0" y="0" width="967.6567823123186" height="546" fill="#ffffff"></rect><g stroke-linecap="round" transform="translate(178.9308602619916 10) rotate(0 315.5 263)"><path d="M0.5 -0.01 C202.76 -2.19, 406.62 -1.78, 630.34 -0.2 M-0.29 0.32 C220.41 0.43, 441.47 0.74, 630.7 -0.25 M630.73 -0.26 C631.25 183.22, 631.9 365.07, 630.57 526.27 M631.13 -0.17 C632.84 145.15, 633.17 290.57, 631.08 525.79 M630.77 526.07 C417.16 528.63, 203.7 527.5, 0.26 525.28 M631.05 526.33 C469.24 526.67, 307.6 526.5, -0.01 526.28 M-0.32 525.22 C1.21 420.51, 1.28 315.34, 0.59 0.7 M-0.3 525.96 C-0.08 327.29, 0.23 128.37, -0.38 -0.02" stroke="#000000" stroke-width="1" fill="none"></path></g><g transform="translate(651.9308602619916 19) rotate(0 72 13)"><text x="0" y="18" font-family="Virgil, Segoe UI Emoji" font-size="20px" fill="#000000" text-anchor="start" style="white-space: pre;" direction="ltr">SM model fake</text></g><g stroke-linecap="round" transform="translate(378.9308602619916 147) rotate(0 99 88)"><path d="M-1.85 0.4 C46.53 -3.7, 95.77 -0.35, 198.41 1.62 M-0.45 -0.33 C73 -1.99, 145.64 -0.87, 198.82 0.76 M197.84 0.57 C197.66 41.69, 196.57 82.05, 196.39 176.08 M198.97 -0.51 C195.76 46.89, 195.62 93.73, 197.13 175.75 M199.42 176.58 C124.59 176.82, 49.21 175.65, 0.21 174.41 M198.34 176.7 C142.03 173.8, 87.58 174.56, -0.21 176.18 M1.71 177.47 C0.21 110.12, -1.14 46.48, -0.76 0.06 M-0.96 176.62 C-1.22 111.68, -1.81 47.46, -0.03 0.37" stroke="#000000" stroke-width="1" fill="none"></path></g><g transform="translate(420.9308602619916 200) rotate(0 45 13)"><text x="0" y="18" font-family="Virgil, Segoe UI Emoji" font-size="20px" fill="#000000" text-anchor="start" style="white-space: pre;" direction="ltr">SM model</text></g><g stroke-linecap="round"><g transform="translate(281.9308602619916 193) rotate(0 44.9103890195488 0.5374937068298493)"><path d="M0.24 -0.43 C14.87 0.22, 73.72 2.33, 88.82 2.77 M-1.09 -1.7 C13.8 -1.29, 75.65 0.15, 90.91 1.05" stroke="#000000" stroke-width="1" fill="none"></path></g><g transform="translate(281.9308602619916 193) rotate(0 44.9103890195488 0.5374937068298493)"><path d="M61.64 8.25 C74.78 7.99, 84.97 4.68, 92.23 2.31 M62.91 9.33 C73.31 7.28, 83.49 4.57, 90.24 0.88" stroke="#000000" stroke-width="1" fill="none"></path></g><g transform="translate(281.9308602619916 193) rotate(0 44.9103890195488 0.5374937068298493)"><path d="M62.42 -12.25 C75.07 -4.57, 84.96 0.06, 92.23 2.31 M63.7 -11.18 C73.72 -5.95, 83.62 -1.38, 90.24 0.88" stroke="#000000" stroke-width="1" fill="none"></path></g></g><g stroke-linecap="round"><g transform="translate(279.9308602619916 274) rotate(0 43.672099666669965 0.3230098258704004)"><path d="M-0.43 -1.18 C14.39 -0.92, 73.16 1.3, 87.77 1.83 M1.55 0.81 C16.37 0.72, 73.05 0.25, 87.23 0.14" stroke="#000000" stroke-width="1" fill="none"></path></g><g transform="translate(279.9308602619916 274) rotate(0 43.672099666669965 0.3230098258704004)"><path d="M57.15 11.91 C66.3 8.96, 72.37 7.7, 88.49 1.24 M58.22 11.41 C66.53 8.62, 74.23 4.46, 87.05 0.6" stroke="#000000" stroke-width="1" fill="none"></path></g><g transform="translate(279.9308602619916 274) rotate(0 43.672099666669965 0.3230098258704004)"><path d="M56.98 -8.61 C66.21 -7.3, 72.32 -4.32, 88.49 1.24 M58.06 -9.11 C66.34 -6.68, 74.08 -5.61, 87.05 0.6" stroke="#000000" stroke-width="1" fill="none"></path></g></g><g stroke-linecap="round"><g transform="translate(585.9308602619916 196) rotate(0 39.32300982587037 -0.9898041870817451)"><path d="M-1.18 0.77 C12.08 0.72, 66.3 -0.59, 79.83 -0.76 M0.4 0.13 C13.56 -0.27, 66.09 -2.37, 79.31 -2.75" stroke="#000000" stroke-width="1" fill="none"></path></g><g transform="translate(585.9308602619916 196) rotate(0 39.32300982587037 -0.9898041870817451)"><path d="M52.78 9.87 C60.85 6.78, 70.67 2.82, 80.41 -3.66 M52.28 8.71 C59.69 6.5, 65.64 2.56, 79.77 -2.83" stroke="#000000" stroke-width="1" fill="none"></path></g><g transform="translate(585.9308602619916 196) rotate(0 39.32300982587037 -0.9898041870817451)"><path d="M52.07 -10.64 C60.29 -7.15, 70.34 -4.54, 80.41 -3.66 M51.56 -11.8 C59.28 -8.52, 65.42 -6.98, 79.77 -2.83" stroke="#000000" stroke-width="1" fill="none"></path></g></g><g stroke-linecap="round"><g transform="translate(581.9308602619916 265) rotate(0 43.97989153732544 -1.4063528490532349)"><path d="M0.77 0.83 C15.55 0.69, 73.57 -1.52, 88.24 -2.03 M-0.28 0.22 C14.39 -0.14, 72.64 -2.91, 87.42 -3.64" stroke="#000000" stroke-width="1" fill="none"></path></g><g transform="translate(581.9308602619916 265) rotate(0 43.97989153732544 -1.4063528490532349)"><path d="M61.14 8.37 C68.81 6.03, 75.77 2.75, 86.52 -4.29 M59.98 8.78 C70.5 2.94, 79.43 -0.08, 87.34 -3.36" stroke="#000000" stroke-width="1" fill="none"></path></g><g transform="translate(581.9308602619916 265) rotate(0 43.97989153732544 -1.4063528490532349)"><path d="M60.15 -12.13 C67.88 -9.05, 75.1 -6.91, 86.52 -4.29 M59 -11.72 C69.68 -10.26, 78.97 -5.96, 87.34 -3.36" stroke="#000000" stroke-width="1" fill="none"></path></g></g><g stroke-linecap="round" transform="translate(381.9308602619916 393) rotate(0 100.5 44.5)"><path d="M0.4 1.47 C73.09 -2.61, 143.13 -0.59, 200.85 0.51 M-0.01 -0.72 C60.06 0.73, 119.21 0.94, 201.87 -0.46 M199.38 -1.73 C200.16 22.97, 199.82 42.1, 202.42 89.58 M201.14 0.1 C200.85 35.02, 201.22 69.71, 201.34 89.7 M200.99 88.63 C150.2 91.4, 98.78 89.76, 1.54 90.32 M201.8 88.66 C138.13 88.6, 75.86 88.73, -0.86 89.56 M0.04 88.94 C0.77 63.05, 1.99 33.87, -1.46 -0.5 M0.52 88.55 C-0.33 60.74, 0.57 33.31, 0.9 0.28" stroke="#000000" stroke-width="1" fill="none"></path></g><g stroke-linecap="round"><g transform="translate(673.9308602619916 261) rotate(0 -4.15386561558546 96.52707377586663)"><path d="M0.88 0.03 C10.88 1.17, 49.28 -24.66, 59.78 7.03 C70.28 38.72, 87.87 160.77, 63.88 190.16 C39.9 219.54, -59.67 184.44, -84.13 183.34" stroke="#000000" stroke-width="1.5" fill="none" stroke-dasharray="8 9"></path></g><g transform="translate(673.9308602619916 261) rotate(0 -4.15386561558546 96.52707377586663)"><path d="M-54.44 178.35 C-61.05 181.69, -70.79 181.29, -85.23 185.12" stroke="#000000" stroke-width="1.5" fill="none"></path></g><g transform="translate(673.9308602619916 261) rotate(0 -4.15386561558546 96.52707377586663)"><path d="M-58.4 198.49 C-63.94 196.17, -72.57 190.15, -85.23 185.12" stroke="#000000" stroke-width="1.5" fill="none"></path></g></g><g stroke-linecap="round"><g transform="translate(371.9308602619916 436) rotate(0 -79.71230401904279 -83.58724165680707)"><path d="M0.15 -0.42 C-23.46 -0.92, -115.39 25.83, -140.94 -1.83 C-166.5 -29.5, -160.92 -139.45, -153.18 -166.41 C-145.44 -193.37, -104.35 -163.93, -94.5 -163.57" stroke="#000000" stroke-width="1.5" fill="none" stroke-dasharray="8 9"></path></g><g transform="translate(371.9308602619916 436) rotate(0 -79.71230401904279 -83.58724165680707)"><path d="M-124.23 -165.48 C-112.67 -165.79, -103.07 -164.54, -93.79 -163.69" stroke="#000000" stroke-width="1.5" fill="none"></path></g><g transform="translate(371.9308602619916 436) rotate(0 -79.71230401904279 -83.58724165680707)"><path d="M-117.22 -184.05 C-108.04 -177.6, -100.99 -169.58, -93.79 -163.69" stroke="#000000" stroke-width="1.5" fill="none"></path></g></g><g transform="translate(448.9308602619916 424) rotate(0 29.5 13)"><text x="0" y="18" font-family="Virgil, Segoe UI Emoji" font-size="20px" fill="#000000" text-anchor="start" style="white-space: pre;" direction="ltr">state</text></g><g stroke-linecap="round"><g transform="translate(181.9308602619916 190) rotate(0 44.56171974372114 0.7737491654232258)"><path d="M0.47 -0.04 C15.31 0.1, 74.09 1.39, 88.65 1.59" stroke="#000000" stroke-width="1.5" fill="none" stroke-dasharray="8 9"></path></g><g transform="translate(181.9308602619916 190) rotate(0 44.56171974372114 0.7737491654232258)"><path d="M60.21 11.88 C69.26 7.71, 76.21 5.95, 88.21 3.32" stroke="#000000" stroke-width="1.5" fill="none"></path></g><g transform="translate(181.9308602619916 190) rotate(0 44.56171974372114 0.7737491654232258)"><path d="M60.58 -8.64 C69.65 -7.23, 76.51 -3.4, 88.21 3.32" stroke="#000000" stroke-width="1.5" fill="none"></path></g></g><g stroke-linecap="round"><g transform="translate(670.9308602619916 195) rotate(0 67.75672239176924 -0.5534269046038389)"><path d="M-0.62 -0.53 C22.02 -0.63, 113.44 -0.47, 136.13 -0.58" stroke="#000000" stroke-width="1.5" fill="none" stroke-dasharray="8 9"></path></g><g transform="translate(670.9308602619916 195) rotate(0 67.75672239176924 -0.5534269046038389)"><path d="M107.07 9.93 C117.8 5.74, 125.91 2.82, 135.21 0.13" stroke="#000000" stroke-width="1.5" fill="none"></path></g><g transform="translate(670.9308602619916 195) rotate(0 67.75672239176924 -0.5534269046038389)"><path d="M107.04 -10.59 C117.78 -8.13, 125.9 -4.4, 135.21 0.13" stroke="#000000" stroke-width="1.5" fill="none"></path></g></g><g stroke-linecap="round" transform="translate(274.9308602619916 106) rotate(0 202 119)"><path d="M-0.34 -0.57 C101.8 -0.19, 203.12 -0.99, 403.48 -0.71 M404.17 -0.71 C404.87 62.95, 402.04 130.61, 404.18 239.63 M404.49 237.59 C252.82 239.81, 101.29 240.22, 0.62 238.82 M-1.05 236.45 C-1.68 152.23, 0.02 67.39, 0.31 0.77" stroke="#000000" stroke-width="1.5" fill="none" stroke-dasharray="1.5 7"></path></g><g stroke-linecap="round"><g transform="translate(10.930860261991597 189) rotate(0 80.04175688710069 0.8179796207490426)"><path d="M-0.93 -0.76 C25.43 -0.76, 132.06 0.41, 158.89 0.89 M0.78 1.46 C27.43 1.57, 134.6 2.55, 161.01 2.37" stroke="#000000" stroke-width="1" fill="none"></path></g><g transform="translate(10.930860261991597 189) rotate(0 80.04175688710069 0.8179796207490426)"><path d="M131.54 10.71 C142.71 9.13, 154.91 6.6, 161.39 3.29 M133.17 12.55 C140.11 9.18, 148.86 6.17, 160.17 3.3" stroke="#000000" stroke-width="1" fill="none"></path></g><g transform="translate(10.930860261991597 189) rotate(0 80.04175688710069 0.8179796207490426)"><path d="M131.59 -9.81 C142.9 -3.99, 155.08 0.87, 161.39 3.29 M133.21 -7.97 C140.13 -5.8, 148.86 -3.27, 160.17 3.3" stroke="#000000" stroke-width="1" fill="none"></path></g></g><g stroke-linecap="round"><g transform="translate(815.9308602619916 194) rotate(0 70.53786244262005 -0.023481283458153257)"><path d="M-0.65 -0.87 C23.15 -1.11, 117.89 -1.43, 141.73 -1.32 M1.21 1.29 C24.93 1.18, 117.26 0.49, 140.71 -0.1" stroke="#000000" stroke-width="1" fill="none"></path></g><g transform="translate(815.9308602619916 194) rotate(0 70.53786244262005 -0.023481283458153257)"><path d="M111.23 10.35 C117.56 9.36, 125.38 6.22, 139.39 -0.64 M112.39 9.66 C117.39 7.52, 124.57 5.2, 140.7 0.75" stroke="#000000" stroke-width="1" fill="none"></path></g><g transform="translate(815.9308602619916 194) rotate(0 70.53786244262005 -0.023481283458153257)"><path d="M110.92 -10.16 C117.35 -6.83, 125.23 -5.64, 139.39 -0.64 M112.08 -10.86 C117.06 -8.87, 124.3 -7.05, 140.7 0.75" stroke="#000000" stroke-width="1" fill="none"></path></g></g><g transform="translate(61.9308602619916 150) rotate(0 23.5 13)"><text x="0" y="18" font-family="Virgil, Segoe UI Emoji" font-size="20px" fill="#000000" text-anchor="start" style="white-space: pre;" direction="ltr">input</text></g><g transform="translate(836.4308602619916 151) rotate(0 33.5 13)"><text x="0" y="18" font-family="Virgil, Segoe UI Emoji" font-size="20px" fill="#000000" text-anchor="start" style="white-space: pre;" direction="ltr">output</text></g></svg>