<svg version="1.1" xmlns="http://www.w3.org/2000/svg" viewBox="0 0 966 537" width="1932" height="1074">
  <!-- svg-source:excalidraw -->
  
  <defs>
    <style class="style-fonts">
      @font-face {
        font-family: "Virgil";
        src: url("https://excalidraw.com/Virgil.woff2");
      }
      @font-face {
        font-family: "Cascadia";
        src: url("https://excalidraw.com/Cascadia.woff2");
      }
    </style>
  </defs>
  <rect x="0" y="0" width="966" height="537" fill="#ffffff"></rect><g stroke-linecap="round" transform="translate(204 256) rotate(0 72 114.5)"><path d="M32 0 M32 0 C61.52 -0.72, 93.22 -0.51, 112 0 M32 0 C58.1 -1.03, 84.78 -0.97, 112 0 M112 0 C132.93 0.58, 145.77 10.09, 144 32 M112 0 C135.26 1.84, 142.11 11.52, 144 32 M144 32 C143.65 79, 145.34 129.83, 144 197 M144 32 C145.11 81.23, 144.01 130.36, 144 197 M144 197 C142.93 219.34, 135.07 228.15, 112 229 M144 197 C143.29 218.23, 132.12 229.31, 112 229 M112 229 C87.84 227.85, 67.04 230.39, 32 229 M112 229 C88.5 228.95, 63.56 229.17, 32 229 M32 229 C9.28 227.92, -0.21 218.92, 0 197 M32 229 C10.58 227.01, 2.15 218.99, 0 197 M0 197 C1.52 146.31, 2 95.87, 0 32 M0 197 C-1.21 145.26, -1.95 91.28, 0 32 M0 32 C1.91 9.21, 9.2 1.01, 32 0 M0 32 C-1.74 12.69, 10.82 1.43, 32 0" stroke="#000000" stroke-width="1" fill="none"></path></g><g stroke-linecap="round" transform="translate(443 253.5) rotate(0 72 114.5)"><path d="M32 0 M32 0 C61.67 0.63, 93.53 -1.12, 112 0 M32 0 C59.83 0.73, 87.84 -0.43, 112 0 M112 0 C135.2 0.57, 144.02 9.29, 144 32 M112 0 C131.17 0.45, 142.8 11.67, 144 32 M144 32 C143.08 67.26, 146.04 100.23, 144 197 M144 32 C144.84 73.59, 144.82 115.05, 144 197 M144 197 C144.14 219.58, 134.01 228.21, 112 229 M144 197 C146.13 219.44, 133.04 228.54, 112 229 M112 229 C94.53 227.06, 76.31 228.23, 32 229 M112 229 C86.23 227.82, 60.31 227.82, 32 229 M32 229 C12.13 228.32, -1.69 219.69, 0 197 M32 229 C12.11 228.57, -0.7 220.14, 0 197 M0 197 C-2.57 138.37, -1.52 78.05, 0 32 M0 197 C0.78 141.32, 0.11 84.84, 0 32 M0 32 C-0.51 8.68, 11.84 -1.93, 32 0 M0 32 C0.47 12.87, 9.59 -0.46, 32 0" stroke="#000000" stroke-width="1" fill="none"></path></g><g stroke-linecap="round" transform="translate(666 253.5) rotate(0 72 114.5)"><path d="M32 0 M32 0 C53.27 0.68, 78.45 -1.37, 112 0 M32 0 C57.88 -0.77, 82.1 -0.86, 112 0 M112 0 C132.5 -1.4, 145.46 9.99, 144 32 M112 0 C131.39 1.56, 145.44 10.23, 144 32 M144 32 C146.77 76.45, 143.94 121.17, 144 197 M144 32 C142.42 78.02, 142.83 126.66, 144 197 M144 197 C142.31 219.31, 132.82 227.01, 112 229 M144 197 C145.35 216.11, 133.8 231.2, 112 229 M112 229 C92.5 230.39, 72.27 229.01, 32 229 M112 229 C90.86 229.04, 70.61 229.35, 32 229 M32 229 C10.33 230.74, 1.08 217.78, 0 197 M32 229 C11.18 228.45, 0.09 219.25, 0 197 M0 197 C-1.22 160.32, 0.64 123.86, 0 32 M0 197 C0.72 161.17, 1.24 124.1, 0 32 M0 32 C1.69 9.82, 12.19 1.47, 32 0 M0 32 C1.73 12.76, 11.79 1.65, 32 0" stroke="#000000" stroke-width="1" fill="none"></path></g><g transform="translate(261 268) rotate(0 39.5 13)"><text x="0" y="18" font-family="Virgil, Segoe UI Emoji" font-size="20px" fill="#000000" text-anchor="start" style="white-space: pre;" direction="ltr">Network</text></g><g transform="translate(529 263) rotate(0 29 25.5)"><text x="0" y="18.5" font-family="Virgil, Segoe UI Emoji" font-size="20px" fill="#000000" text-anchor="start" style="white-space: pre;" direction="ltr">Event</text><text x="0" y="44" font-family="Virgil, Segoe UI Emoji" font-size="20px" fill="#000000" text-anchor="start" style="white-space: pre;" direction="ltr">queue</text></g><g transform="translate(711 262) rotate(0 47.5 13)"><text x="0" y="18" font-family="Virgil, Segoe UI Emoji" font-size="20px" fill="#000000" text-anchor="start" style="white-space: pre;" direction="ltr">Timewheel</text></g><g stroke-linecap="round" transform="translate(430 10) rotate(0 97 74.5)"><path d="M32 0 M32 0 C58.5 1.93, 85.5 2.47, 162 0 M32 0 C81.98 0.72, 133.66 -0.07, 162 0 M162 0 C184.9 1.56, 194.08 8.91, 194 32 M162 0 C182.19 1.62, 194.48 9.84, 194 32 M194 32 C195.15 50.19, 192.79 67.01, 194 117 M194 32 C193.5 51.12, 192.79 67.4, 194 117 M194 117 C194.57 137.14, 181.34 150.95, 162 149 M194 117 C195.87 138.4, 183.11 147.23, 162 149 M162 149 C122.24 149.68, 84.54 149.29, 32 149 M162 149 C126.1 150.52, 87.53 149.35, 32 149 M32 149 C12.26 147.85, -1.1 136.42, 0 117 M32 149 C10.61 146.85, -1.02 140.25, 0 117 M0 117 C-0.45 85.26, -1.07 55.19, 0 32 M0 117 C1.05 89.04, 1.08 59.57, 0 32 M0 32 C0.64 10.72, 9.04 1.8, 32 0 M0 32 C-1.85 8.73, 11.65 2.18, 32 0" stroke="#000000" stroke-width="1" fill="none"></path></g><g transform="translate(483 16) rotate(0 71 13)"><text x="0" y="18" font-family="Virgil, Segoe UI Emoji" font-size="20px" fill="#000000" text-anchor="start" style="white-space: pre;" direction="ltr">State machine</text></g><g stroke-linecap="round"><g transform="translate(123 416) rotate(0 39.46651736094151 -0.3390520730185642)"><path d="M-0.48 -0.93 C12.46 -1.11, 64 -1.71, 77.15 -1.87 M1.47 1.19 C14.83 1.21, 66.68 -0.41, 79.41 -0.79" stroke="#000000" stroke-width="1" fill="none"></path></g><g transform="translate(123 416) rotate(0 39.46651736094151 -0.3390520730185642)"><path d="M49.98 8.89 C57.38 8.25, 64.54 6.46, 80.22 0.28 M51.57 9.5 C62.07 5.6, 69.91 3.02, 80.36 -1.04" stroke="#000000" stroke-width="1" fill="none"></path></g><g transform="translate(123 416) rotate(0 39.46651736094151 -0.3390520730185642)"><path d="M49.37 -11.62 C56.79 -6.94, 64.11 -3.43, 80.22 0.28 M50.95 -11.01 C61.58 -7.86, 69.63 -3.39, 80.36 -1.04" stroke="#000000" stroke-width="1" fill="none"></path></g></g><mask></mask><g transform="translate(10 433) rotate(0 82 25.5)"><text x="0" y="18.5" font-family="Virgil, Segoe UI Emoji" font-size="20px" fill="#000000" text-anchor="start" style="white-space: pre;" direction="ltr">Client request /</text><text x="0" y="44" font-family="Virgil, Segoe UI Emoji" font-size="20px" fill="#000000" text-anchor="start" style="white-space: pre;" direction="ltr">internal message</text></g><g stroke-linecap="round"><g transform="translate(512 247) rotate(0 1.188393225804873 -39.49980155637952)"><path d="M-0.39 -0.77 C-0.19 -14.06, 0.31 -67.33, 0.38 -80.44 M1.61 1.44 C2.27 -11.63, 2.64 -65.31, 2.77 -79.13" stroke="#000000" stroke-width="1" fill="none"></path></g><g transform="translate(512 247) rotate(0 1.188393225804873 -39.49980155637952)"><path d="M11.5 -51.89 C9.88 -59.11, 9.21 -63.62, 4.68 -78.72 M13.77 -51.35 C9.65 -58.88, 6.95 -68.84, 1.91 -79.12" stroke="#000000" stroke-width="1" fill="none"></path></g><g transform="translate(512 247) rotate(0 1.188393225804873 -39.49980155637952)"><path d="M-9.02 -52.06 C-5.86 -59.18, -1.76 -63.65, 4.68 -78.72 M-6.75 -51.53 C-4.71 -58.83, -1.26 -68.74, 1.91 -79.12" stroke="#000000" stroke-width="1" fill="none"></path></g></g><mask></mask><g transform="translate(523 187) rotate(0 40 13)"><text x="0" y="18" font-family="Virgil, Segoe UI Emoji" font-size="20px" fill="#000000" text-anchor="start" style="white-space: pre;" direction="ltr">dequeue</text></g><g stroke-linecap="round"><g transform="translate(355 414) rotate(0 41.832523914622186 1.3318827254604457)"><path d="M0.73 1.08 C14.26 1.18, 68.09 0.84, 81.88 1.03 M-0.34 0.61 C13.48 0.79, 70.12 1.54, 84.01 2.06" stroke="#000000" stroke-width="1" fill="none"></path></g><g transform="translate(355 414) rotate(0 41.832523914622186 1.3318827254604457)"><path d="M57.4 9.8 C64.13 8.85, 76.34 5.5, 85.1 0.75 M56.43 11.95 C62.05 9.58, 71.41 6.05, 83.15 1.52" stroke="#000000" stroke-width="1" fill="none"></path></g><g transform="translate(355 414) rotate(0 41.832523914622186 1.3318827254604457)"><path d="M57.87 -10.72 C64.51 -4.3, 76.55 -0.29, 85.1 0.75 M56.91 -8.57 C62.48 -5.53, 71.71 -3.65, 83.15 1.52" stroke="#000000" stroke-width="1" fill="none"></path></g></g><mask></mask><g transform="translate(360 336) rotate(0 38.5 38.5)"><text x="0" y="17.666666666666668" font-family="Virgil, Segoe UI Emoji" font-size="20px" fill="#000000" text-anchor="start" style="white-space: pre;" direction="ltr">enqueue</text><text x="0" y="43.333333333333336" font-family="Virgil, Segoe UI Emoji" font-size="20px" fill="#000000" text-anchor="start" style="white-space: pre;" direction="ltr">network</text><text x="0" y="69" font-family="Virgil, Segoe UI Emoji" font-size="20px" fill="#000000" text-anchor="start" style="white-space: pre;" direction="ltr">event</text></g><g stroke-linecap="round"><g transform="translate(648 418) rotate(0 -30.294318979261448 0.5661669867934904)"><path d="M-0.5 -0.64 C-10.55 -0.55, -50.99 0.2, -61.05 0.8 M1.44 1.65 C-8.71 1.81, -51.53 1.79, -62.02 1.71" stroke="#000000" stroke-width="1" fill="none"></path></g><g transform="translate(648 418) rotate(0 -30.294318979261448 0.5661669867934904)"><path d="M-34.86 -8.55 C-42.48 -5.92, -45.51 -2.31, -62.2 2.79 M-33.24 -8.74 C-45.64 -4.96, -55.57 -0.85, -61.68 2.58" stroke="#000000" stroke-width="1" fill="none"></path></g><g transform="translate(648 418) rotate(0 -30.294318979261448 0.5661669867934904)"><path d="M-34.92 11.97 C-42.58 9.72, -45.59 8.46, -62.2 2.79 M-33.3 11.78 C-45.61 7.53, -55.52 3.61, -61.68 2.58" stroke="#000000" stroke-width="1" fill="none"></path></g></g><mask></mask><g transform="translate(589 339) rotate(0 38.5 38.5)"><text x="0" y="17.666666666666668" font-family="Virgil, Segoe UI Emoji" font-size="20px" fill="#000000" text-anchor="start" style="white-space: pre;" direction="ltr">enqueue</text><text x="0" y="43.333333333333336" font-family="Virgil, Segoe UI Emoji" font-size="20px" fill="#000000" text-anchor="start" style="white-space: pre;" direction="ltr">timer</text><text x="0" y="69" font-family="Virgil, Segoe UI Emoji" font-size="20px" fill="#000000" text-anchor="start" style="white-space: pre;" direction="ltr">event</text></g><g stroke-linecap="round"><g transform="translate(429 149.31634581776882) rotate(0 -60.35246415116836 50.54425550844714)"><path d="M0.44 0.71 C-19.69 17.41, -100.41 84.55, -120.58 101.05 M-0.78 0.04 C-21.03 16.29, -101.12 82.38, -121.15 99.11" stroke="#000000" stroke-width="1" fill="none"></path></g><g transform="translate(429 149.31634581776882) rotate(0 -60.35246415116836 50.54425550844714)"><path d="M-104.81 74.44 C-110 82.71, -117.08 90.21, -122.38 100.05 M-105.34 72.72 C-109.8 79.64, -112.2 83.88, -120.42 99.42" stroke="#000000" stroke-width="1" fill="none"></path></g><g transform="translate(429 149.31634581776882) rotate(0 -60.35246415116836 50.54425550844714)"><path d="M-91.71 90.24 C-101.17 93.55, -112.4 96.04, -122.38 100.05 M-92.24 88.51 C-99.6 91.95, -104.9 92.7, -120.42 99.42" stroke="#000000" stroke-width="1" fill="none"></path></g></g><mask></mask><g stroke-linecap="round"><g transform="translate(616 158) rotate(0 50.027560050785496 44.06150814297608)"><path d="M-0.6 -0.22 C16.13 14.3, 83.95 73.48, 100.65 88.33 M1.29 -1.39 C17.89 13.79, 83.82 74.27, 100.05 89.51" stroke="#000000" stroke-width="1" fill="none"></path></g><g transform="translate(616 158) rotate(0 50.027560050785496 44.06150814297608)"><path d="M72.02 78.96 C80.31 81.11, 90.08 85.21, 100.82 89.14 M72.16 78.84 C82.06 80.74, 91.09 85.2, 100.9 89.2" stroke="#000000" stroke-width="1" fill="none"></path></g><g transform="translate(616 158) rotate(0 50.027560050785496 44.06150814297608)"><path d="M85.97 63.91 C89.91 70.84, 95.19 79.8, 100.82 89.14 M86.11 63.79 C91.09 70.94, 95.33 80.57, 100.9 89.2" stroke="#000000" stroke-width="1" fill="none"></path></g></g><mask></mask><g transform="translate(191 131) rotate(0 96 38.5)"><text x="0" y="17.666666666666668" font-family="Virgil, Segoe UI Emoji" font-size="20px" fill="#000000" text-anchor="start" style="white-space: pre;" direction="ltr">respond to client /</text><text x="0" y="43.333333333333336" font-family="Virgil, Segoe UI Emoji" font-size="20px" fill="#000000" text-anchor="start" style="white-space: pre;" direction="ltr">send reply to other</text><text x="0" y="69" font-family="Virgil, Segoe UI Emoji" font-size="20px" fill="#000000" text-anchor="start" style="white-space: pre;" direction="ltr">node(s)</text></g><g stroke-linecap="round"><g transform="translate(194 319) rotate(0 -37.98030289934485 0.5651208127429754)"><path d="M0.18 -0.17 C-12.54 0.04, -63.15 1.93, -75.81 2.44 M-1.18 -1.31 C-14 -0.95, -63.68 0.16, -76.14 0.55" stroke="#000000" stroke-width="1" fill="none"></path></g><g transform="translate(194 319) rotate(0 -37.98030289934485 0.5651208127429754)"><path d="M-48.52 -8.47 C-56.87 -4.71, -65.61 -1.25, -75.12 -1.32 M-47.99 -11.28 C-55.75 -7.67, -60.78 -5.09, -76.96 1.25" stroke="#000000" stroke-width="1" fill="none"></path></g><g transform="translate(194 319) rotate(0 -37.98030289934485 0.5651208127429754)"><path d="M-47.98 12.05 C-56.71 8.83, -65.64 5.32, -75.12 -1.32 M-47.46 9.23 C-55.15 8, -60.31 5.72, -76.96 1.25" stroke="#000000" stroke-width="1" fill="none"></path></g></g><mask></mask><g transform="translate(16 243) rotate(0 87.5 25.5)"><text x="0" y="18.5" font-family="Virgil, Segoe UI Emoji" font-size="20px" fill="#000000" text-anchor="start" style="white-space: pre;" direction="ltr">client response / </text><text x="0" y="44" font-family="Virgil, Segoe UI Emoji" font-size="20px" fill="#000000" text-anchor="start" style="white-space: pre;" direction="ltr">internal message</text></g><g stroke-linecap="round"><g transform="translate(248 291.4733578769096) rotate(0 -23.831523363292206 14.412606622643722)"><path d="M-0.11 -0.22 C-7.98 4.53, -39.62 24.13, -47.56 29.04" stroke="#000000" stroke-width="1.5" fill="none" stroke-dasharray="1.5 7"></path></g><g transform="translate(248 291.4733578769096) rotate(0 -23.831523363292206 14.412606622643722)"><path d="M-30.93 6.56 C-33.98 12.15, -38.32 21.23, -48.59 28.45" stroke="#000000" stroke-width="1.5" fill="none" stroke-dasharray="1.5 5"></path></g><g transform="translate(248 291.4733578769096) rotate(0 -23.831523363292206 14.412606622643722)"><path d="M-21.05 22.53 C-26.89 23.72, -33.94 28.41, -48.59 28.45" stroke="#000000" stroke-width="1.5" fill="none" stroke-dasharray="1.5 5"></path></g></g><mask></mask><g stroke-linecap="round"><g transform="translate(201 412) rotate(0 74.8406226709485 1.8969493553042582)"><path d="M0.4 0.72 C25.47 1.13, 124.35 2.6, 149.28 3.07" stroke="#000000" stroke-width="1.5" fill="none" stroke-dasharray="1.5 7"></path></g><g transform="translate(201 412) rotate(0 74.8406226709485 1.8969493553042582)"><path d="M122.12 11.66 C125.13 10.77, 131.71 9.15, 150.61 1.89" stroke="#000000" stroke-width="1.5" fill="none" stroke-dasharray="1.5 5"></path></g><g transform="translate(201 412) rotate(0 74.8406226709485 1.8969493553042582)"><path d="M122.46 -8.86 C125.51 -5.54, 132.02 -2.97, 150.61 1.89" stroke="#000000" stroke-width="1.5" fill="none" stroke-dasharray="1.5 5"></path></g></g><mask></mask><g transform="translate(650 158) rotate(0 99 13)"><text x="0" y="18" font-family="Virgil, Segoe UI Emoji" font-size="20px" fill="#000000" text-anchor="start" style="white-space: pre;" direction="ltr">register/reset timer</text></g><g stroke-linecap="round"><g transform="translate(517 167) rotate(0 -44.43975640982387 -23.503138864832366)"><path d="M-0.4 -0.6 C-6.67 -8.4, -23.55 -43.98, -38.22 -46.28 C-52.9 -48.57, -80.1 -19.71, -88.48 -14.38" stroke="#000000" stroke-width="1.5" fill="none" stroke-dasharray="1.5 7"></path></g><g transform="translate(517 167) rotate(0 -44.43975640982387 -23.503138864832366)"><path d="M-74.21 -40.58 C-77.33 -32.99, -82.26 -26.56, -89.98 -13.8" stroke="#000000" stroke-width="1.5" fill="none" stroke-dasharray="1.5 5"></path></g><g transform="translate(517 167) rotate(0 -44.43975640982387 -23.503138864832366)"><path d="M-61.18 -24.72 C-67.6 -21.1, -75.76 -18.61, -89.98 -13.8" stroke="#000000" stroke-width="1.5" fill="none" stroke-dasharray="1.5 5"></path></g></g><mask></mask><g stroke-linecap="round"><g transform="translate(514 170) rotate(0 54.47415430580901 -23.73769164256771)"><path d="M-0.15 1.01 C8.77 -6.99, 34.18 -46.23, 52.39 -48.39 C70.6 -50.54, 99.47 -17.85, 109.09 -11.93" stroke="#000000" stroke-width="1.5" fill="none" stroke-dasharray="1.5 7"></path></g><g transform="translate(514 170) rotate(0 54.47415430580901 -23.73769164256771)"><path d="M82.56 -23.13 C87.66 -20.52, 92.22 -16.66, 107.27 -13.55" stroke="#000000" stroke-width="1.5" fill="none" stroke-dasharray="1.5 5"></path></g><g transform="translate(514 170) rotate(0 54.47415430580901 -23.73769164256771)"><path d="M95.71 -38.89 C98.06 -33.06, 99.93 -25.96, 107.27 -13.55" stroke="#000000" stroke-width="1.5" fill="none" stroke-dasharray="1.5 5"></path></g></g><mask></mask><g transform="translate(496 111) rotate(0 22.5 13)"><text x="0" y="18" font-family="Virgil, Segoe UI Emoji" font-size="20px" fill="#000000" text-anchor="start" style="white-space: pre;" direction="ltr">step</text></g><g stroke-linecap="round" transform="translate(684 331) rotate(0 53.5 53.5)"><path d="M74.47 4.53 C82.55 7.19, 90.04 14.21, 95.4 21.26 C100.76 28.31, 105.55 37.96, 106.61 46.82 C107.68 55.68, 105.13 66.13, 101.78 74.43 C98.44 82.73, 93.62 91.35, 86.56 96.64 C79.49 101.93, 68.24 105.21, 59.39 106.16 C50.54 107.1, 41.7 105.56, 33.46 102.3 C25.22 99.04, 15.32 93.75, 9.92 86.6 C4.53 79.45, 2.08 68.59, 1.1 59.42 C0.11 50.25, 0.72 39.58, 4 31.58 C7.27 23.58, 13.42 16.73, 20.74 11.41 C28.06 6.08, 38.57 0.61, 47.91 -0.36 C57.26 -1.34, 71.72 4.39, 76.82 5.55 C81.92 6.7, 78.99 5.72, 78.53 6.56 M67.08 3.23 C75.19 4.77, 84.83 10.82, 91.2 16.83 C97.58 22.83, 102.98 30.88, 105.33 39.28 C107.69 47.67, 107.81 58.38, 105.32 67.18 C102.84 75.99, 96.72 85.93, 90.43 92.11 C84.15 98.29, 76.05 102.13, 67.61 104.26 C59.16 106.38, 48.64 107.09, 39.78 104.86 C30.92 102.62, 20.58 97.39, 14.46 90.83 C8.34 84.26, 5.06 74.09, 3.07 65.47 C1.07 56.85, 0.26 47.68, 2.5 39.12 C4.75 30.56, 10.43 20.22, 16.52 14.12 C22.6 8.02, 30.37 4.53, 39.02 2.5 C47.66 0.48, 63.49 2.13, 68.4 1.99 C73.3 1.84, 68.94 0.84, 68.44 1.63" stroke="#000000" stroke-width="1" fill="none"></path></g><g stroke-linecap="round"><g transform="translate(735 384) rotate(0 0.42021497842256395 -25.738712055981154)"><path d="M-0.54 0.12 C-0.46 -8.38, 0.18 -43.08, 0.15 -51.59 M1.38 -0.87 C1.43 -9.16, 0.25 -42.24, -0.19 -50.37" stroke="#000000" stroke-width="1" fill="none"></path></g><g transform="translate(735 384) rotate(0 0.42021497842256395 -25.738712055981154)"><path d="M9.74 -24.88 C6.03 -32.76, 4.41 -38.15, 1.59 -50.35 M9.58 -26.89 C8 -32.44, 5.24 -37.24, -1.12 -50.83" stroke="#000000" stroke-width="1" fill="none"></path></g><g transform="translate(735 384) rotate(0 0.42021497842256395 -25.738712055981154)"><path d="M-7.69 -24.13 C-6.64 -32.14, -3.51 -37.73, 1.59 -50.35 M-7.85 -26.14 C-5.75 -31.92, -4.82 -36.88, -1.12 -50.83" stroke="#000000" stroke-width="1" fill="none"></path></g></g><mask></mask><g stroke-linecap="round"><g transform="translate(737 382) rotate(0 17.737906272709324 -0.32631004601716995)"><path d="M-1.01 0.86 C4.93 0.55, 30.14 -1.22, 36.49 -1.51 M0.66 0.27 C6.32 0.08, 29.32 -0.28, 35.27 -0.25" stroke="#000000" stroke-width="1" fill="none"></path></g><g transform="translate(737 382) rotate(0 17.737906272709324 -0.32631004601716995)"><path d="M19.25 5.41 C23.53 4.1, 30.88 0.54, 36.52 0.2 M17.91 5.79 C22.31 3.97, 28.5 2.46, 34.63 -0.65" stroke="#000000" stroke-width="1" fill="none"></path></g><g transform="translate(737 382) rotate(0 17.737906272709324 -0.32631004601716995)"><path d="M19.16 -7.25 C23.52 -3.87, 30.89 -2.74, 36.52 0.2 M17.82 -6.87 C22.24 -4.85, 28.45 -2.52, 34.63 -0.65" stroke="#000000" stroke-width="1" fill="none"></path></g></g><mask></mask><g stroke-linecap="round" transform="translate(460 393) rotate(0 9 21)"><path d="M10.16 1.28 C11.81 1.7, 14.9 3.79, 16.1 7.28 C17.3 10.77, 17.32 17.67, 17.34 22.23 C17.36 26.79, 17.28 31.28, 16.23 34.64 C15.18 38, 13.03 41.71, 11.02 42.39 C9.02 43.07, 6.01 41.31, 4.19 38.72 C2.38 36.13, 0.71 31.24, 0.13 26.84 C-0.45 22.45, -0.15 16.52, 0.72 12.37 C1.59 8.22, 3.13 3.49, 5.36 1.95 C7.6 0.41, 12.46 2.55, 14.12 3.12 C15.79 3.69, 15.61 5.23, 15.34 5.36 M5.17 3.39 C6.32 1.08, 7.68 -1.25, 9.69 -0.37 C11.69 0.51, 15.68 4.75, 17.2 8.7 C18.71 12.65, 19.01 18.66, 18.76 23.34 C18.51 28.02, 17.22 33.83, 15.69 36.77 C14.16 39.71, 11.62 40.45, 9.6 40.98 C7.59 41.52, 5.25 42.05, 3.61 39.97 C1.98 37.88, 0.47 32.86, -0.21 28.46 C-0.88 24.05, -1.23 18.04, -0.43 13.54 C0.37 9.04, 3.45 3.06, 4.6 1.45 C5.75 -0.16, 6.3 3.44, 6.46 3.89" stroke="#000000" stroke-width="1" fill="none"></path></g><g stroke-linecap="round"><g transform="translate(467 391) rotate(0 47.204985101521004 0.5481668512911142)"><path d="M-0.51 1.19 C15.43 1.33, 79.25 1.56, 94.92 1.49 M1.42 0.76 C17.35 0.49, 79.28 -0.58, 94.46 -0.38" stroke="#000000" stroke-width="1" fill="none"></path></g></g><mask></mask><g stroke-linecap="round"><g transform="translate(561 394) rotate(0 -38.02907671056812 18.26500892454291)"><path d="M-0.24 -0.69 C1.27 3.55, 8.27 20.36, 8.18 25.97 C8.09 31.58, 14.84 31.25, -0.79 32.99 C-16.41 34.73, -71.35 35.76, -85.56 36.42 M-1.83 1.57 C-0.29 5.43, 7.79 18.9, 7.85 24.35 C7.92 29.81, 14.14 32.16, -1.44 34.3 C-17.02 36.44, -71.77 36.71, -85.61 37.22" stroke="#000000" stroke-width="1" fill="none"></path></g></g><mask></mask><g transform="translate(498 403) rotate(0 25 13)"><text x="0" y="18" font-family="Virgil, Segoe UI Emoji" font-size="20px" fill="#000000" text-anchor="start" style="white-space: pre;" direction="ltr">FIFO</text></g><g stroke-linecap="round"><g stroke-opacity="0.6" fill-opacity="0.6" transform="translate(507 390) rotate(0 2.982172219455208 -70.16479467600584)"><path d="M-0.11 -0.75 C0.91 -23.96, 5.07 -116.27, 6.08 -139.58" stroke="#000000" stroke-width="1.5" fill="none" stroke-dasharray="1.5 7"></path></g><g stroke-opacity="0.6" fill-opacity="0.6" transform="translate(507 390) rotate(0 2.982172219455208 -70.16479467600584)"><path d="M13.84 -110.83 C13.22 -119.48, 8.88 -128.61, 6.39 -138.78" stroke="#000000" stroke-width="1.5" fill="none" stroke-dasharray="1.5 5"></path></g><g stroke-opacity="0.6" fill-opacity="0.6" transform="translate(507 390) rotate(0 2.982172219455208 -70.16479467600584)"><path d="M-6.66 -111.74 C-1.29 -120.11, 0.36 -128.96, 6.39 -138.78" stroke="#000000" stroke-width="1.5" fill="none" stroke-dasharray="1.5 5"></path></g></g><mask></mask><g stroke-opacity="0.6" fill-opacity="0.6" stroke-linecap="round" transform="translate(188 222) rotate(0 384 152.5)"><path d="M32 0 M32 0 C225.8 0.17, 419.52 1.34, 736 0 M736 0 C758.85 -1.66, 767.13 12.37, 768 32 M768 32 C766.84 124.13, 766.43 217, 768 273 M768 273 C766.77 295.14, 756.94 306.17, 736 305 M736 305 C467.26 305.87, 198.84 305.39, 32 305 M32 305 C10.32 303.22, 1.34 295.1, 0 273 M0 273 C-0.38 220.05, -1.24 169.41, 0 32 M0 32 C-1.74 11.57, 9.52 -1.3, 32 0" stroke="#000000" stroke-width="1.5" fill="none" stroke-dasharray="1.5 7"></path></g><g transform="translate(833 224) rotate(0 52.5 13)"><text x="0" y="18" font-family="Virgil, Segoe UI Emoji" font-size="20px" fill="#000000" text-anchor="start" style="white-space: pre;" direction="ltr">Event loop</text></g></svg>