<svg version="1.1" xmlns="http://www.w3.org/2000/svg" viewBox="0 0 380.6990381946042 330.5662192982621" width="761.3980763892084" height="661.1324385965243">
  <!-- svg-source:excalidraw -->
  
  <defs>
    <style>
      @font-face {
        font-family: "Virgil";
        src: url("https://excalidraw.com/Virgil.woff2");
      }
      @font-face {
        font-family: "Cascadia";
        src: url("https://excalidraw.com/Cascadia.woff2");
      }
    </style>
  </defs>
  <rect x="0" y="0" width="380.6990381946042" height="330.5662192982621" fill="#ffffff"></rect><g stroke-linecap="round"><g transform="translate(203.50548231240361 39) rotate(0 -20.477701539713905 35.17864680733531)"><path d="M0.34 0.47 C-6.24 12.14, -33.44 57.77, -40.23 69.45 M-0.95 -0.33 C-7.63 11.55, -34.55 59.22, -41.29 70.69" stroke="#000000" stroke-width="1" fill="none"></path></g></g><g stroke-linecap="round"><g transform="translate(158.50548231240361 117) rotate(0 -21.091924051213994 42.143460746370266)"><path d="M0.08 0.2 C-6.8 14.06, -34.24 69.86, -41.21 83.67 M-1.34 -0.74 C-8.4 13.26, -35.96 70.94, -42.27 85.03" stroke="#000000" stroke-width="1" fill="none"></path></g></g><g stroke-linecap="round"><g transform="translate(160.50548231240361 111) rotate(0 18.923739597573842 47.407935248035926)"><path d="M-0.29 0.75 C6.08 16.28, 31.93 77.62, 38.13 93.12 M1.76 0.09 C7.99 15.85, 31 79.43, 37.26 94.72" stroke="#000000" stroke-width="1" fill="none"></path></g></g><g stroke-linecap="round"><g transform="translate(107.50548231240361 208) rotate(0 -48.22904565867037 46.09701032277198)"><path d="M-0.76 0.27 C-16.84 15.45, -80.62 75.97, -96.37 91.19 M1.05 -0.63 C-15.23 14.75, -81.4 77.8, -97.51 92.82" stroke="#000000" stroke-width="1" fill="none"></path></g></g><g stroke-linecap="round"><g transform="translate(110.50548231240361 204) rotate(0 -9.927803856302035 56.96953488754107)"><path d="M0.52 1.2 C-2.76 19.86, -16.03 94.82, -19.63 113.16 M-0.66 0.78 C-4.08 19.65, -17.37 93.08, -20.38 111.64" stroke="#000000" stroke-width="1" fill="none"></path></g></g><g stroke-linecap="round"><g transform="translate(116.50548231240361 211) rotate(0 35.13259104165246 54.23370943756774)"><path d="M1.15 -0.03 C12.95 18.08, 58.67 90.24, 69.97 108.36 M0.3 -1.1 C12.09 17.2, 58.23 91.08, 69.52 109.57" stroke="#000000" stroke-width="1" fill="none"></path></g></g><g stroke-linecap="round"><g transform="translate(197.50548231240361 204) rotate(0 -10.920799359101807 25.72413679691033)"><path d="M-0.46 1.11 C-4.34 9.49, -18.57 41.44, -22.25 49.86 M1.49 0.65 C-2.65 9.17, -19.15 42.64, -23.33 50.8" stroke="#000000" stroke-width="1" fill="none"></path></g></g><g stroke-linecap="round"><g transform="translate(204.50548231240361 203) rotate(0 15.556963162301145 25.48305368067699)"><path d="M-1 -0.43 C3.9 7.99, 24.66 42.63, 29.95 51.09 M0.68 -1.7 C5.88 6.88, 27.25 43.84, 32.11 52.67" stroke="#000000" stroke-width="1" fill="none"></path></g></g><g stroke-linecap="round"><g transform="translate(204.50548231240361 35) rotate(0 47.989135226234794 53.66433166202158)"><path d="M-0.97 -0.21 C15.1 17.53, 80.88 89.2, 96.94 107.11 M0.73 -1.37 C16.67 16.53, 80.89 90.36, 96.49 108.7" stroke="#000000" stroke-width="1" fill="none"></path></g></g><g stroke-linecap="round"><g transform="translate(287.5054823124036 223) rotate(0 0.5401189631503485 0.08009870318480239)"><path d="M0.59 -0.83 C0.3 -1.21, -0.44 -1.34, -0.65 -1.1 M-0.55 1.35 C-0.55 1.59, 1.92 0.33, 1.73 -0.14" stroke="#000000" stroke-width="1" fill="none"></path></g></g><g stroke-linecap="round"><g transform="translate(297.5054823124036 149) rotate(0 -14.204710435886 30.92254934998229)"><path d="M-1.17 0.56 C-5.82 10.68, -23.56 50.42, -27.92 60.68 M0.42 -0.2 C-4.38 10.1, -24.13 51.96, -28.83 62.04" stroke="#000000" stroke-width="1" fill="none"></path></g></g><g stroke-linecap="round"><g transform="translate(302.5054823124036 150) rotate(0 3.000393687812675 31.466773363575328)"><path d="M0.62 -0.88 C1.55 9.92, 5.6 53.26, 6.51 63.81 M-0.51 1.28 C0.13 11.83, 3.8 51.76, 5.31 62.11" stroke="#000000" stroke-width="1" fill="none"></path></g></g><g stroke-linecap="round"><g transform="translate(301.5054823124036 142) rotate(0 33.83460905758659 35.733228687904756)"><path d="M-0.04 0.25 C11.53 11.92, 57.86 58.75, 69.19 70.74 M-1.52 -0.67 C10.01 11.13, 57.42 60.29, 68.87 72.13" stroke="#000000" stroke-width="1" fill="none"></path></g></g><g stroke-linecap="round"><g transform="translate(308.5054823124036 209) rotate(0 -13.495578163582877 38.416465693134796)"><path d="M-1.03 0.83 C-5.45 13.68, -23.22 64.25, -27.63 76.61 M0.64 0.22 C-3.29 12.76, -20.39 62.22, -25.25 74.81" stroke="#000000" stroke-width="1" fill="none"></path></g></g><g stroke-linecap="round"><g transform="translate(310.5054823124036 213) rotate(0 18.631778607144952 37.723257531244315)"><path d="M-0.83 0.08 C5.34 12.56, 31.45 62.54, 38.09 74.89 M0.94 -0.92 C6.86 11.76, 30.88 63.7, 37.19 76.37" stroke="#000000" stroke-width="1" fill="none"></path></g></g><g transform="translate(206.50548231240361 96) rotate(0 8.5 13)"><text x="0" y="18" font-family="Virgil, Segoe UI Emoji" font-size="20px" fill="#000000" text-anchor="start" style="white-space: pre;" direction="ltr">...</text></g><g transform="translate(199.50548231240361 10) rotate(0 10 13.5)"><text x="0" y="19" font-family="Virgil, Segoe UI Emoji" font-size="20px" fill="#000000" text-anchor="start" style="white-space: pre;" direction="ltr">s₀</text></g><g stroke-linecap="round"><g transform="translate(197.50548231240361 37) rotate(0 -20.458924260363005 35.48251252335497)"><path d="M0.2 0.15 C-6.78 11.99, -34.44 59.96, -41.12 71.79 M-1.15 -0.82 C-7.85 10.62, -32.43 57.85, -38.99 70.08" stroke="#d9480f" stroke-width="4" fill="none"></path></g></g><g stroke-linecap="round"><g transform="translate(160.50548231240361 114) rotate(0 17.1767196846381 46.8390849463828)"><path d="M0.42 -0.02 C5.73 15.71, 27.59 79.03, 32.99 94.75 M-0.83 -1.08 C4.75 14.28, 29.19 76.88, 35.18 93.03" stroke="#d9480f" stroke-width="4" fill="none"></path></g></g><g stroke-linecap="round"><g transform="translate(192.50548231240361 208) rotate(0 -10.529251916725173 23.27830642785875)"><path d="M0.07 0.8 C-3.22 8.38, -17.06 37.45, -20.8 44.9 M-1.36 0.18 C-4.6 8, -17.45 39.17, -21.12 46.38" stroke="#d9480f" stroke-width="4" fill="none"></path></g></g><g transform="translate(130.50548231240361 93) rotate(0 10 13.5)"><text x="0" y="19" font-family="Virgil, Segoe UI Emoji" font-size="20px" fill="#000000" text-anchor="start" style="white-space: pre;" direction="ltr">s₁</text></g><g transform="translate(207.50548231240361 179) rotate(0 10 13.5)"><text x="0" y="19" font-family="Virgil, Segoe UI Emoji" font-size="20px" fill="#000000" text-anchor="start" style="white-space: pre;" direction="ltr">s₂</text></g><g transform="translate(182.50548231240361 248) rotate(0 10 13.5)"><text x="0" y="19" font-family="Virgil, Segoe UI Emoji" font-size="20px" fill="#000000" text-anchor="start" style="white-space: pre;" direction="ltr">s₃</text></g><g transform="translate(154.50548231240361 55) rotate(0 6.5 13.5)"><text x="0" y="19" font-family="Virgil, Segoe UI Emoji" font-size="20px" fill="#000000" text-anchor="start" style="white-space: pre;" direction="ltr">i₀</text></g><g transform="translate(189.50548231240361 138) rotate(0 6.5 13.5)"><text x="0" y="19" font-family="Virgil, Segoe UI Emoji" font-size="20px" fill="#000000" text-anchor="start" style="white-space: pre;" direction="ltr">i₁</text></g><g transform="translate(159.50548231240361 207) rotate(0 6.5 13.5)"><text x="0" y="19" font-family="Virgil, Segoe UI Emoji" font-size="20px" fill="#000000" text-anchor="start" style="white-space: pre;" direction="ltr">i₂</text></g></svg>