<svg version="1.1" xmlns="http://www.w3.org/2000/svg" viewBox="0 0 741 312" width="1482" height="624">
  <!-- svg-source:excalidraw -->
  
  <defs>
    <style>
      @font-face {
        font-family: "Virgil";
        src: url("https://excalidraw.com/Virgil.woff2");
      }
      @font-face {
        font-family: "Cascadia";
        src: url("https://excalidraw.com/Cascadia.woff2");
      }
    </style>
  </defs>
  <rect x="0" y="0" width="741" height="312" fill="#ffffff"></rect><g transform="translate(261.5 10) rotate(0 69 13.5)"><text x="0" y="19" font-family="Virgil, Segoe UI Emoji" font-size="20px" fill="#000000" text-anchor="start" style="white-space: pre;" direction="ltr">&lt; i₀, i₁, i₂, i₃ &gt;</text></g><g transform="translate(68.5 104.5) rotate(0 41.5 13.5)"><text x="0" y="19" font-family="Virgil, Segoe UI Emoji" font-size="20px" fill="#000000" text-anchor="start" style="white-space: pre;" direction="ltr">&lt; i₀, i₁ &gt;</text></g><g transform="translate(176.5 107.5) rotate(0 41.5 13.5)"><text x="0" y="19" font-family="Virgil, Segoe UI Emoji" font-size="20px" fill="#000000" text-anchor="start" style="white-space: pre;" direction="ltr">&lt; i₂, i₃ &gt;</text></g><g stroke-linecap="round"><g transform="translate(278.5 43) rotate(0 -77.0704449141212 25.17627895863727)"><path d="M-0.83 -1.02 C-26.5 7.4, -129.35 41.32, -155.07 49.89 M0.93 1.05 C-24.29 9.73, -127.29 43.5, -152.93 51.38" stroke="#000000" stroke-width="1" fill="none"></path></g></g><g stroke-linecap="round"><g transform="translate(299.47229863895063 46) rotate(0 -35.05591797261718 28.009793511945745)"><path d="M-1.09 0.71 C-12.62 10.03, -58.15 45.69, -69.51 54.98 M0.55 0.03 C-11.16 9.56, -58.89 46.94, -70.66 55.98" stroke="#000000" stroke-width="1" fill="none"></path></g></g><g transform="translate(104 192.5) rotate(0 27.5 13.5)"><text x="0" y="19" font-family="Virgil, Segoe UI Emoji" font-size="20px" fill="#000000" text-anchor="start" style="white-space: pre;" direction="ltr">&lt; i₁ &gt;</text></g><g transform="translate(10 193.5) rotate(0 27.5 13.5)"><text x="0" y="19" font-family="Virgil, Segoe UI Emoji" font-size="20px" fill="#000000" text-anchor="start" style="white-space: pre;" direction="ltr">&lt; i₀ &gt;</text></g><g stroke-linecap="round"><g transform="translate(90.5 135) rotate(0 -22.41647138820963 24.404617794919744)"><path d="M-0.83 -0.93 C-8.47 7.34, -38.46 40.23, -45.76 48.82 M0.93 1.2 C-6.33 9.64, -35.76 41.84, -43.45 49.74" stroke="#000000" stroke-width="1" fill="none"></path></g></g><g stroke-linecap="round"><g transform="translate(128.5 136) rotate(0 5.241841790452554 24.348086121352367)"><path d="M-0.56 0.1 C1.27 8.31, 9.21 41.36, 11.04 49.59 M1.35 -0.9 C3.11 6.93, 9.22 39.73, 10.64 47.78" stroke="#000000" stroke-width="1" fill="none"></path></g></g><g transform="translate(253 186.5) rotate(0 27.5 13.5)"><text x="0" y="19" font-family="Virgil, Segoe UI Emoji" font-size="20px" fill="#000000" text-anchor="start" style="white-space: pre;" direction="ltr">&lt; i₃ &gt;</text></g><g transform="translate(187 188.5) rotate(0 27.5 13.5)"><text x="0" y="19" font-family="Virgil, Segoe UI Emoji" font-size="20px" fill="#000000" text-anchor="start" style="white-space: pre;" direction="ltr">&lt; i₂ &gt;</text></g><g stroke-linecap="round"><g transform="translate(220.7080175358616 136.84155901435759) rotate(0 -2.728903992585856 19.346146627077843)"><path d="M1.06 0.63 C0.15 6.93, -4.61 31.43, -6.12 37.83 M0.15 -0.08 C-0.76 6.31, -5.57 32.03, -6.51 38.77" stroke="#000000" stroke-width="1" fill="none"></path></g></g><g stroke-linecap="round"><g transform="translate(242.5 135) rotate(0 11.828402989171423 19.034175978181878)"><path d="M-0.99 0.31 C3.31 6.36, 20.47 31.09, 24.65 37.01 M0.69 -0.57 C5.01 5.63, 20.34 32.45, 24.13 38.64" stroke="#000000" stroke-width="1" fill="none"></path></g></g><g transform="translate(324.5 112.5) rotate(0 55 13.5)"><text x="0" y="19" font-family="Virgil, Segoe UI Emoji" font-size="20px" fill="#000000" text-anchor="start" style="white-space: pre;" direction="ltr">&lt; i₀, i₁, i₂ &gt;</text></g><g transform="translate(338.5 186) rotate(0 41.5 13.5)"><text x="0" y="19" font-family="Virgil, Segoe UI Emoji" font-size="20px" fill="#000000" text-anchor="start" style="white-space: pre;" direction="ltr">&lt; i₀, i₁ &gt;</text></g><g transform="translate(374 274) rotate(0 27.5 13.5)"><text x="0" y="19" font-family="Virgil, Segoe UI Emoji" font-size="20px" fill="#000000" text-anchor="start" style="white-space: pre;" direction="ltr">&lt; i₁ &gt;</text></g><g transform="translate(280 275) rotate(0 27.5 13.5)"><text x="0" y="19" font-family="Virgil, Segoe UI Emoji" font-size="20px" fill="#000000" text-anchor="start" style="white-space: pre;" direction="ltr">&lt; i₀ &gt;</text></g><g stroke-linecap="round"><g transform="translate(360.5 216.5) rotate(0 -22.850784321148012 25.02237587831914)"><path d="M-0.79 -0.97 C-8.4 7.69, -38.24 42.36, -45.49 51.02 M1 1.13 C-6.84 9.56, -39.08 41.43, -46.7 49.43" stroke="#000000" stroke-width="1" fill="none"></path></g></g><g stroke-linecap="round"><g transform="translate(398.5 217.5) rotate(0 5.022375878319167 23.95387433813883)"><path d="M-0.97 -0.49 C1.02 7.92, 9.03 41.41, 11.02 49.7 M0.71 -1.8 C2.73 6.34, 8.94 39.19, 10.61 47.95" stroke="#000000" stroke-width="1" fill="none"></path></g></g><g stroke-linecap="round"><g transform="translate(365.5 145) rotate(0 -0.9355282438594941 19.067119320947683)"><path d="M-0.13 -0.24 C-0.22 5.99, -0.21 31.68, -0.19 38.01 M-1.66 -1.42 C-1.95 4.97, -1.39 32.83, -1.24 39.55" stroke="#000000" stroke-width="1" fill="none"></path></g></g><g stroke-linecap="round"><g transform="translate(321.5 42) rotate(0 17.73844841319135 31.15335316029376)"><path d="M0.85 -0.24 C6.65 10.27, 29.79 53.19, 35.64 63.72 M-0.16 -1.41 C5.47 8.7, 29.06 51.04, 35.03 61.98" stroke="#000000" stroke-width="1" fill="none"></path></g></g><g transform="translate(442.5 182.5) rotate(0 41.5 13.5)"><text x="0" y="19" font-family="Virgil, Segoe UI Emoji" font-size="20px" fill="#000000" text-anchor="start" style="white-space: pre;" direction="ltr">&lt; i₀, i₂ &gt;</text></g><g transform="translate(540.5 183.5) rotate(0 41.5 13.5)"><text x="0" y="19" font-family="Virgil, Segoe UI Emoji" font-size="20px" fill="#000000" text-anchor="start" style="white-space: pre;" direction="ltr">&lt; i₁, i₂ &gt;</text></g><g transform="translate(448 272.5) rotate(0 27.5 13.5)"><text x="0" y="19" font-family="Virgil, Segoe UI Emoji" font-size="20px" fill="#000000" text-anchor="start" style="white-space: pre;" direction="ltr">&lt; i₀ &gt;</text></g><g transform="translate(525 273.5) rotate(0 27.5 13.5)"><text x="0" y="19" font-family="Virgil, Segoe UI Emoji" font-size="20px" fill="#000000" text-anchor="start" style="white-space: pre;" direction="ltr">&lt; i₂ &gt;</text></g><g stroke-linecap="round"><g transform="translate(471.5 216) rotate(0 0.1778890599590568 23.023429524917162)"><path d="M-0.73 -0.07 C-0.75 7.7, 0.6 38.33, 0.85 46.13 M1.09 -1.16 C0.9 6.79, 0.46 39.04, 0.35 47.21" stroke="#000000" stroke-width="1" fill="none"></path></g></g><g stroke-linecap="round"><g transform="translate(489.5 212) rotate(0 26.782866062698986 27.603603610023868)"><path d="M0.76 -0.93 C9.76 8.5, 45.08 46.95, 53.86 56.13 M-0.3 1.2 C8.63 10.35, 44.5 45.62, 53.37 54.61" stroke="#000000" stroke-width="1" fill="none"></path></g></g><g stroke-linecap="round"><g transform="translate(382.5 145) rotate(0 30.058092017900208 15.119379687272016)"><path d="M0.14 -0.41 C10.21 4.63, 51.04 25.38, 61.37 30.58 M-1.25 -1.66 C8.62 3.51, 50.08 26.28, 60.61 31.9" stroke="#000000" stroke-width="1" fill="none"></path></g></g><g stroke-linecap="round"><g transform="translate(415.5 140) rotate(0 81.56218182705345 16.886795349437733)"><path d="M-0.84 0.12 C26.32 5.84, 136.6 28.87, 163.96 34.64 M0.92 -0.87 C27.91 4.47, 136.56 27.25, 163.52 32.86" stroke="#000000" stroke-width="1" fill="none"></path></g></g><g transform="translate(612 271.5) rotate(0 27.5 13.5)"><text x="0" y="19" font-family="Virgil, Segoe UI Emoji" font-size="20px" fill="#000000" text-anchor="start" style="white-space: pre;" direction="ltr">&lt; i₁ &gt;</text></g><g transform="translate(676 271.5) rotate(0 27.5 13.5)"><text x="0" y="19" font-family="Virgil, Segoe UI Emoji" font-size="20px" fill="#000000" text-anchor="start" style="white-space: pre;" direction="ltr">&lt; i₂ &gt;</text></g><g stroke-linecap="round"><g transform="translate(588.5 224) rotate(0 18.453984200339846 26.095359965786344)"><path d="M0.3 -0.65 C6.11 8.18, 29.53 44.01, 35.82 52.84 M-1 1.63 C5.07 10.14, 31.45 42.46, 37.91 51.15" stroke="#000000" stroke-width="1" fill="none"></path></g></g><g stroke-linecap="round"><g transform="translate(605.5 218) rotate(0 45.88837862549349 21.760454543549542)"><path d="M1.1 -0.57 C16.29 6.62, 76.64 35.35, 91.55 42.71 M0.23 1.74 C15.26 9.15, 76.01 37.46, 90.89 44.09" stroke="#000000" stroke-width="1" fill="none"></path></g></g><g transform="translate(386.5 57) rotate(0 8.5 13)"><text x="0" y="18" font-family="Virgil, Segoe UI Emoji" font-size="20px" fill="#000000" text-anchor="start" style="white-space: pre;" direction="ltr">...</text></g></svg>